<?xml version="1.0" encoding="UTF-8" standalone="no"?>
<svg
   xmlns:dc="http://purl.org/dc/elements/1.1/"
   xmlns:cc="http://creativecommons.org/ns#"
   xmlns:rdf="http://www.w3.org/1999/02/22-rdf-syntax-ns#"
   xmlns:svg="http://www.w3.org/2000/svg"
   xmlns="http://www.w3.org/2000/svg"
   xmlns:sodipodi="http://sodipodi.sourceforge.net/DTD/sodipodi-0.dtd"
   xmlns:inkscape="http://www.inkscape.org/namespaces/inkscape"
   version="1.1"
   id="svg10"
   xml:space="preserve"
   width="1000"
   height="666.66669"
   viewBox="0 0 1000 666.66669"
   sodipodi:docname="back-mobile1.svg"
   inkscape:version="1.0.1 (3bc2e813f5, 2020-09-07)"><metadata
     id="metadata16"><rdf:RDF><cc:Work
         rdf:about=""><dc:format>image/svg+xml</dc:format><dc:type
           rdf:resource="http://purl.org/dc/dcmitype/StillImage" /><dc:title /></cc:Work></rdf:RDF></metadata><defs
     id="defs14"><inkscape:path-effect
       effect="powerclip"
       id="path-effect8432"
       is_visible="true"
       lpeversion="1"
       inverse="true"
       flatten="false"
       hide_clip="false"
       message="Use fill-rule evenodd on &lt;b&gt;fill and stroke&lt;/b&gt; dialog if no flatten result after convert clip to paths." /><inkscape:path-effect
       effect="powerclip"
       id="path-effect8420"
       is_visible="true"
       lpeversion="1"
       inverse="true"
       flatten="false"
       hide_clip="false"
       message="Use fill-rule evenodd on &lt;b&gt;fill and stroke&lt;/b&gt; dialog if no flatten result after convert clip to paths." /><inkscape:path-effect
       effect="powerclip"
       id="path-effect8416"
       is_visible="true"
       lpeversion="1"
       inverse="true"
       flatten="false"
       hide_clip="false"
       message="Use fill-rule evenodd on &lt;b&gt;fill and stroke&lt;/b&gt; dialog if no flatten result after convert clip to paths." /><clipPath
       clipPathUnits="userSpaceOnUse"
       id="clipPath26"><path
         d="M 0,0 H 750 V 500 H 0 Z"
         id="path24" /></clipPath><linearGradient
       x1="0"
       y1="0"
       x2="1"
       y2="0"
       gradientUnits="userSpaceOnUse"
       gradientTransform="matrix(0,500,500,0,375,-5e-5)"
       spreadMethod="pad"
       id="linearGradient38"><stop
         style="stop-opacity:1;stop-color:#d5fbe6"
         offset="0"
         id="stop32" /><stop
         style="stop-opacity:1;stop-color:#d5fbe6"
         offset="0.6731898"
         id="stop34" /><stop
         style="stop-opacity:1;stop-color:#00cbe8"
         offset="1"
         id="stop36" /></linearGradient><clipPath
       clipPathUnits="userSpaceOnUse"
       id="clipPath48"><path
         d="M 0,0 H 750 V 500 H 0 Z"
         id="path46" /></clipPath><clipPath
       clipPathUnits="userSpaceOnUse"
       id="clipPath56"><path
         d="M -66.8188,406.931 H 252.987 V 203 H -66.8188 Z"
         id="path54" /></clipPath><clipPath
       clipPathUnits="userSpaceOnUse"
       id="clipPath60"><path
         d="m 23.015,273.726 c 0.088,-0.002 0.176,-0.002 0.264,-0.003 -0.072,-0.062 -0.14,-0.128 -0.211,-0.19 -0.018,0.064 -0.035,0.129 -0.053,0.193 m 216.987,-39.39 c -1.299,0.166 -2.578,0.155 -3.823,0.016 0.643,1.039 1.09,2.208 1.275,3.471 0.763,5.213 -3.141,10.015 -8.72,10.728 -0.112,0.015 -0.223,0.016 -0.335,0.027 1.361,1.787 2.3,3.895 2.64,6.219 1.124,7.677 -4.626,14.752 -12.844,15.802 -3.077,0.393 -6.064,-0.115 -8.656,-1.307 -0.308,0.301 -0.617,0.602 -0.936,0.893 0.138,0.521 0.253,1.053 0.333,1.597 1.198,8.183 -4.932,15.724 -13.69,16.843 -4.6,0.588 -9,-0.726 -12.325,-3.279 0.641,1.473 1.12,3.032 1.361,4.68 1.514,10.347 -6.013,19.879 -16.918,21.696 0.123,0.562 0.235,1.129 0.32,1.706 1.776,12.13 -5.867,23.428 -17.688,27.471 6.092,5.76 10.314,13.344 11.579,21.985 3.107,21.223 -12.79,40.781 -35.507,43.685 -17.697,2.261 -34.309,-6.253 -42.258,-20.159 -5.657,6.272 -13.724,10.683 -23.106,11.882 -20.104,2.569 -38.631,-10.574 -41.381,-29.356 -0.897,-6.127 0.006,-12.093 2.314,-17.446 -6.896,-1.262 -12.491,-6.476 -13.496,-13.344 -0.235,-1.604 -0.201,-3.185 0.066,-4.703 -3.528,1.91 -7.5,3.228 -11.79,3.777 -17.642,2.254 -33.898,-9.279 -36.312,-25.76 -0.666,-4.554 -0.202,-9.007 1.186,-13.118 -0.999,0.266 -2.018,0.492 -3.076,0.628 -12.062,1.541 -23.178,-6.345 -24.828,-17.614 -1.65,-11.269 6.791,-21.654 18.854,-23.195 2.88,-0.369 5.702,-0.185 8.358,0.44 3.079,-11.626 13.454,-20.896 26.929,-22.618 8.162,-1.043 16.024,0.87 22.36,4.854 1.821,-17.943 16.616,-33.025 36.557,-35.573 17.909,-2.288 34.725,6.203 42.975,20.146 7.822,-8.473 18.847,-14.426 31.645,-16.061 12.017,-1.536 23.622,0.985 33.248,6.43 5.709,-4.766 12.949,-8.047 21.105,-9.089 5.454,-0.697 10.799,-0.327 15.797,0.938 3.228,-2.292 7.11,-3.866 11.413,-4.416 9.217,-1.177 17.932,2.632 23.03,9.213 2.315,-3.103 5.946,-5.337 10.274,-5.89 8.217,-1.05 15.79,4.322 16.914,12 1.124,7.676 -4.626,14.751 -12.844,15.801"
         id="path58" /></clipPath><clipPath
       clipPathUnits="userSpaceOnUse"
       id="clipPath64"><path
         d="M -32768,32767 H 32767 V -32768 H -32768 Z"
         id="path62" /></clipPath><linearGradient
       x1="0"
       y1="0"
       x2="1"
       y2="0"
       gradientUnits="userSpaceOnUse"
       gradientTransform="matrix(28.491735,208.3019,-208.3019,28.491735,86.259956,199.81635)"
       spreadMethod="pad"
       id="linearGradient72"><stop
         style="stop-opacity:0.29999237;stop-color:#ffffff"
         offset="0"
         id="stop66" /><stop
         style="stop-opacity:1;stop-color:#ffffff"
         offset="0.41737969"
         id="stop68" /><stop
         style="stop-opacity:1;stop-color:#ffffff"
         offset="1"
         id="stop70" /></linearGradient><mask
       maskUnits="userSpaceOnUse"
       x="0"
       y="0"
       width="1"
       height="1"
       id="mask74"><g
         id="g84"><g
           clip-path="url(#clipPath64)"
           id="g82"><g
             id="g80"><g
               id="g78"><path
                 d="M -32768,32767 H 32767 V -32768 H -32768 Z"
                 style="fill:url(#linearGradient72);stroke:none"
                 id="path76" /></g></g></g></g></mask><linearGradient
       x1="0"
       y1="0"
       x2="1"
       y2="0"
       gradientUnits="userSpaceOnUse"
       gradientTransform="matrix(28.491735,208.3019,-208.3019,28.491735,86.259956,199.81635)"
       spreadMethod="pad"
       id="linearGradient92"><stop
         style="stop-opacity:1;stop-color:#e8faff"
         offset="0"
         id="stop86" /><stop
         style="stop-opacity:1;stop-color:#d0ffff"
         offset="0.41737969"
         id="stop88" /><stop
         style="stop-opacity:1;stop-color:#d0ffff"
         offset="1"
         id="stop90" /></linearGradient><clipPath
       clipPathUnits="userSpaceOnUse"
       id="clipPath118"><path
         d="m 305.966,296.161 c -1.558,0.321 -3.171,0.492 -4.824,0.492 v 0 c -13.1,0 -23.72,-10.62 -23.72,-23.72 v 0 c 0,-2.595 0.422,-5.089 1.192,-7.425 v 0 c -6.676,-0.21 -12.727,-2.884 -17.277,-7.15 v 0 c -3.311,3.567 -8.025,5.812 -13.275,5.812 v 0 c -10.013,0 -18.13,-8.116 -18.13,-18.13 v 0 c 0,-10.013 8.117,-18.129 18.13,-18.129 v 0 c 2.391,0 4.669,0.474 6.759,1.315 v 0 c 3.896,-9.797 13.455,-16.726 24.641,-16.726 v 0 c 5.29,0 10.215,1.555 14.351,4.225 v 0 c 4.28,-13.319 16.763,-22.959 31.503,-22.959 v 0 c 16.273,0 29.792,11.751 32.559,27.23 v 0 c 7.638,-10.224 19.834,-16.844 33.577,-16.844 v 0 c 11.722,0 22.314,4.822 29.916,12.582 v 0 c 3.657,-3.951 8.884,-6.425 14.691,-6.425 v 0 c 8.956,0 16.537,5.882 19.093,13.993 v 0 c 2.176,-1.91 5.018,-3.077 8.139,-3.077 v 0 c 3.289,0 6.269,1.293 8.482,3.389 v 0 c 2.368,-1.319 5.092,-2.075 7.994,-2.075 v 0 c 9.099,0 16.476,7.377 16.476,16.476 v 0 c 0,9.099 -7.377,16.475 -16.476,16.475 v 0 c -1.448,0 -2.844,-0.205 -4.181,-0.555 v 0 c 0.033,0.368 0.057,0.739 0.057,1.116 v 0 c 0,6.821 -5.53,12.351 -12.352,12.351 v 0 c -3.072,0 -5.878,-1.13 -8.039,-2.988 v 0 c 0.223,0.962 0.353,1.959 0.353,2.988 v 0 c 0,7.271 -5.894,13.165 -13.164,13.165 v 0 c -3.82,0 -7.247,-1.637 -9.653,-4.235 v 0 c 0.347,1.357 0.551,2.77 0.551,4.235 v 0 c 0,9.192 -7.271,16.667 -16.374,17.037 v 0 c 0.035,0.504 0.058,1.011 0.058,1.524 v 0 c 0,12.432 -10.079,22.511 -22.512,22.511 v 0 c -7.07,0 -13.376,-3.262 -17.504,-8.362 v 0 c -7.639,8.119 -18.475,13.197 -30.503,13.197 v 0 c -19.48,0 -35.852,-13.299 -40.538,-31.313"
         id="path116" /></clipPath><clipPath
       clipPathUnits="userSpaceOnUse"
       id="clipPath126"><path
         d="M -32768,32767 H 32767 V -32768 H -32768 Z"
         id="path124" /></clipPath><linearGradient
       x1="0"
       y1="0"
       x2="1"
       y2="0"
       gradientUnits="userSpaceOnUse"
       gradientTransform="matrix(0,133.70822,133.70822,0,363.08759,193.76553)"
       spreadMethod="pad"
       id="linearGradient134"><stop
         style="stop-opacity:0.29999237;stop-color:#ffffff"
         offset="0"
         id="stop128" /><stop
         style="stop-opacity:1;stop-color:#ffffff"
         offset="0.41737969"
         id="stop130" /><stop
         style="stop-opacity:1;stop-color:#ffffff"
         offset="1"
         id="stop132" /></linearGradient><mask
       maskUnits="userSpaceOnUse"
       x="0"
       y="0"
       width="1"
       height="1"
       id="mask136"><g
         id="g146"><g
           clip-path="url(#clipPath126)"
           id="g144"><g
             id="g142"><g
               id="g140"><path
                 d="M -32768,32767 H 32767 V -32768 H -32768 Z"
                 style="fill:url(#linearGradient134);stroke:none"
                 id="path138" /></g></g></g></g></mask><linearGradient
       x1="0"
       y1="0"
       x2="1"
       y2="0"
       gradientUnits="userSpaceOnUse"
       gradientTransform="matrix(0,133.70822,133.70822,0,363.08759,193.76553)"
       spreadMethod="pad"
       id="linearGradient158"><stop
         style="stop-opacity:1;stop-color:#e8faff"
         offset="0"
         id="stop152" /><stop
         style="stop-opacity:1;stop-color:#d0ffff"
         offset="0.41737969"
         id="stop154" /><stop
         style="stop-opacity:1;stop-color:#d0ffff"
         offset="1"
         id="stop156" /></linearGradient><clipPath
       clipPathUnits="userSpaceOnUse"
       id="clipPath168"><path
         d="m 485.876,360.267 c -1.133,-10.47 1.278,-20.508 6.27,-28.918 v 0 c -14.121,-1.519 -25.781,-12.68 -27.373,-27.379 v 0 c -0.074,-0.7 -0.117,-1.394 -0.145,-2.087 v 0 c -12.471,0.839 -23.491,-8.282 -24.848,-20.821 v 0 c -0.215,-1.997 -0.145,-3.955 0.126,-5.856 v 0 c -2.896,3.898 -7.33,6.636 -12.538,7.2 v 0 c -9.916,1.072 -18.825,-6.097 -19.898,-16.013 v 0 c -0.072,-0.66 -0.101,-1.314 -0.101,-1.963 v 0 c -0.435,-0.254 -0.86,-0.522 -1.285,-0.791 v 0 c -2.491,2.103 -5.613,3.512 -9.098,3.889 v 0 c -9.303,1.006 -17.66,-5.72 -18.667,-15.023 v 0 c -0.305,-2.817 0.108,-5.542 1.078,-8.008 v 0 c -0.126,0.018 -0.248,0.047 -0.375,0.06 v 0 c -6.316,0.683 -11.99,-3.883 -12.673,-10.199 v 0 c -0.166,-1.532 -0.018,-3.022 0.383,-4.415 v 0 c -1.322,0.501 -2.719,0.863 -4.19,1.022 v 0 c -9.304,1.007 -17.662,-5.719 -18.668,-15.023 v 0 c -1.006,-9.303 5.718,-17.661 15.023,-18.667 v 0 c 4.9,-0.531 9.525,1.099 12.965,4.106 v 0 c 3.665,-9.101 12.095,-15.939 22.531,-17.068 v 0 c 4.872,-0.528 9.581,0.261 13.783,2.068 v 0 c 5.104,-2.843 10.849,-4.733 17.024,-5.401 v 0 c 9.233,-0.999 18.116,0.876 25.757,4.906 v 0 c 8.953,-9.001 20.925,-15.116 34.529,-16.588 v 0 c 14.49,-1.568 28.296,2.407 39.33,10.207 v 0 c 4.969,-18.586 20.907,-33.117 41.182,-35.311 v 0 c 22.576,-2.442 43.172,11.204 50.394,31.738 v 0 c 5.776,-6.395 13.828,-10.778 23.069,-11.776 v 0 c 15.254,-1.652 29.315,6.389 36.074,19.176 v 0 c 2.728,-1.456 5.764,-2.44 9.025,-2.793 v 0 c 13.656,-1.477 25.925,8.396 27.402,22.052 v 0 c 1.478,13.656 -8.395,25.925 -22.052,27.402 v 0 c -1.198,0.131 -2.378,0.143 -3.549,0.103 v 0 c 2.717,4.439 4.523,9.533 5.121,15.05 v 0 c 2.16,19.973 -12.278,37.916 -32.251,40.077 v 0 c -4.856,0.525 -9.591,0.063 -14.01,-1.216 v 0 c 0.734,1.707 1.233,3.55 1.443,5.494 v 0 c 0.901,8.322 -3.707,15.956 -10.888,19.313 v 0 c 4.087,5.645 6.813,12.392 7.617,19.817 v 0 c 2.463,22.761 -13.992,43.209 -36.752,45.671 v 0 c -10.624,1.149 -20.741,-1.824 -28.764,-7.635 v 0 c -4.65,18.462 -20.358,32.964 -40.393,35.132 v 0 c -1.711,0.185 -3.413,0.275 -5.095,0.275 v 0 c -23.611,10e-4 -43.916,-17.798 -46.513,-41.807 M 611.314,218.12 c 0.096,-0.023 0.194,-0.047 0.29,-0.069 v 0 c -0.039,-0.07 -0.076,-0.141 -0.114,-0.211 v 0 c -0.06,0.092 -0.115,0.188 -0.176,0.28"
         id="path166" /></clipPath><clipPath
       clipPathUnits="userSpaceOnUse"
       id="clipPath176"><path
         d="M -32768,32767 H 32767 V -32768 H -32768 Z"
         id="path174" /></clipPath><linearGradient
       x1="0"
       y1="0"
       x2="1"
       y2="0"
       gradientUnits="userSpaceOnUse"
       gradientTransform="matrix(0.00698,258.16061,-258.16061,0.00698,527.9397,143.91345)"
       spreadMethod="pad"
       id="linearGradient184"><stop
         style="stop-opacity:0.29999237;stop-color:#ffffff"
         offset="0"
         id="stop178" /><stop
         style="stop-opacity:1;stop-color:#ffffff"
         offset="0.41737969"
         id="stop180" /><stop
         style="stop-opacity:1;stop-color:#ffffff"
         offset="1"
         id="stop182" /></linearGradient><mask
       maskUnits="userSpaceOnUse"
       x="0"
       y="0"
       width="1"
       height="1"
       id="mask186"><g
         id="g196"><g
           clip-path="url(#clipPath176)"
           id="g194"><g
             id="g192"><g
               id="g190"><path
                 d="M -32768,32767 H 32767 V -32768 H -32768 Z"
                 style="fill:url(#linearGradient184);stroke:none"
                 id="path188" /></g></g></g></g></mask><linearGradient
       x1="0"
       y1="0"
       x2="1"
       y2="0"
       gradientUnits="userSpaceOnUse"
       gradientTransform="matrix(0.00698,258.16061,-258.16061,0.00698,527.9397,143.91345)"
       spreadMethod="pad"
       id="linearGradient208"><stop
         style="stop-opacity:1;stop-color:#e8faff"
         offset="0"
         id="stop202" /><stop
         style="stop-opacity:1;stop-color:#d0ffff"
         offset="0.41737969"
         id="stop204" /><stop
         style="stop-opacity:1;stop-color:#d0ffff"
         offset="1"
         id="stop206" /></linearGradient><clipPath
       clipPathUnits="userSpaceOnUse"
       id="clipPath218"><path
         d="M 0,0 H 750 V 500 H 0 Z"
         id="path216" /></clipPath><clipPath
       clipPathUnits="userSpaceOnUse"
       id="clipPath1144"><path
         d="m 45.105,288.574 h 96.753 V -40.3178 H 45.105 Z"
         id="path1142" /></clipPath><clipPath
       clipPathUnits="userSpaceOnUse"
       id="clipPath2400"><path
         d="m 357.156,174.363 h 82.581 V -46.1824 h -82.581 z"
         id="path2398" /></clipPath><clipPath
       clipPathUnits="userSpaceOnUse"
       id="clipPath2468"><path
         d="m 215.897,87.3477 h 95.244 V -20.5195 h -95.244 z"
         id="path2466" /></clipPath><clipPath
       clipPathUnits="userSpaceOnUse"
       id="clipPath3692"><path
         d="m 666.808,280.158 h 41.042 v -311.8 h -41.042 z"
         id="path3690" /></clipPath><clipPath
       clipPathUnits="userSpaceOnUse"
       id="clipPath8408"><rect
         style="display:block;fill:#000000;fill-opacity:0;stroke-width:0.75"
         id="rect8410"
         width="1428.3685"
         height="661.99963"
         x="-298.19803"
         y="6.9366431" /></clipPath><clipPath
       clipPathUnits="userSpaceOnUse"
       id="clipPath8412"><rect
         style="display:none;fill:#000000;fill-opacity:0;stroke-width:0.528649"
         id="rect8414"
         width="1428.3685"
         height="328.90472"
         x="-298.19803"
         y="-248.13602"
         transform="scale(1,-1)" /><path
         id="lpe_path-effect8420"
         style="fill:#000000;fill-opacity:0;stroke-width:0.528649"
         class="powerclip"
         d="M -5,-5 H 755 V 505 H -5 Z M -152.08099,-251.09912 V 36.322144 H 1055.621 V -251.09912 Z" /></clipPath><clipPath
       clipPathUnits="userSpaceOnUse"
       id="clipPath8428"><rect
         style="display:none;fill:#000000;fill-opacity:0;stroke-width:0.528649"
         id="rect8430"
         width="1207.702"
         height="287.42126"
         x="-152.08099"
         y="-251.09912"
         transform="scale(1,-1)" /><path
         id="lpe_path-effect8432"
         style="fill:#000000;fill-opacity:0;stroke-width:0.528649"
         class="powerclip"
         d="M -5,-5 H 755 V 505 H -5 Z M -152.08099,-251.09912 V 36.322144 H 1055.621 V -251.09912 Z" /></clipPath><clipPath
       clipPathUnits="userSpaceOnUse"
       id="clipPath943"><rect
         style="fill:#000000;fill-opacity:0;stroke-width:0.512659"
         id="rect945"
         width="1060.094"
         height="265.41992"
         x="-91.642899"
         y="-529.7865"
         transform="scale(1,-1)" /></clipPath><clipPath
       clipPathUnits="userSpaceOnUse"
       id="clipPath949"><rect
         style="fill:#000000;fill-opacity:0;stroke-width:0.464181"
         id="rect951"
         width="1138.6323"
         height="218.88261"
         x="-188.35599"
         y="-529.27264"
         transform="scale(1,-1)" /></clipPath></defs><sodipodi:namedview
     pagecolor="#ffffff"
     bordercolor="#666666"
     borderopacity="1"
     objecttolerance="10"
     gridtolerance="10"
     guidetolerance="10"
     inkscape:pageopacity="0"
     inkscape:pageshadow="2"
     inkscape:window-width="1576"
     inkscape:window-height="977"
     id="namedview12"
     showgrid="false"
     inkscape:zoom="0.71137977"
     inkscape:cx="42.21721"
     inkscape:cy="418.47446"
     inkscape:window-x="292"
     inkscape:window-y="79"
     inkscape:window-maximized="0"
     inkscape:current-layer="g18"
     inkscape:document-rotation="0" /><g
     id="g18"
     inkscape:groupmode="layer"
     inkscape:label="4238285"
     transform="matrix(1.3333333,0,0,-1.3333333,0,666.66667)"><g
       id="g20"
       transform="matrix(1.0037595,0,0,2.6692255,-2.127111,-829.85292)"
       clip-path="url(#clipPath949)"
       inkscape:path-effect="#path-effect8420;#path-effect8432"><g
         id="g22"
         clip-path="url(#clipPath26)"><g
           id="g28"><g
             id="g30"><path
               d="M 0,0 H 750 V 500 H 0 Z"
               style="fill:url(#linearGradient38);stroke:none"
               id="path40"
               inkscape:original-d="M 0,0 H 750 V 500 H 0 Z" /></g></g></g></g></g></svg>
