<?xml version="1.0" encoding="UTF-8" standalone="no"?><!-- Generator: Gravit.io --><svg xmlns="http://www.w3.org/2000/svg" xmlns:xlink="http://www.w3.org/1999/xlink" style="isolation:isolate" viewBox="1680.475 1081.334 1249 722" width="1249pt" height="722pt"><defs><clipPath id="_clipPath_RyPSAmBynnDCdqPcz3Ai5tjqgVqvgWbo"><rect width="3200" height="2000"/></clipPath></defs><g clip-path="url(#_clipPath_RyPSAmBynnDCdqPcz3Ai5tjqgVqvgWbo)"><clipPath id="_clipPath_A3k6yeByuHaB1hfEO6GEyhMp783yGXPM"><path d=" M 0 0 L 0 2000 L 3200 2000 L 3200 0 L 0 0 Z " fill="rgb(255,255,255)"/></clipPath><g clip-path="url(#_clipPath_A3k6yeByuHaB1hfEO6GEyhMp783yGXPM)"><path d=" M 641.4 841.316 C 347.153 824.191 111.178 512.888 267.754 332.224 C 331.957 258.143 407.476 280.239 486.716 302.336 C 557.351 322.033 630.944 341.729 702.116 293.303 C 934.448 135.222 1310.85 106.48 1360.67 305.758 C 1410.49 505.035 1245.46 816.407 1122.47 835.089 C 999.476 853.771 641.4 841.316 641.4 841.316 Z " fill="none"/><path d=" M 635.95 369.2 C 669.034 366.864 688.624 397.093 694.333 423.56 C 698.451 442.656 696.408 446.394 696.408 446.394 C 696.408 446.394 692.775 451.583 666.828 453.14 C 640.88 454.697 637.767 454.178 637.767 454.178 L 636.21 424.079 L 628.425 453.14 C 628.425 453.14 624.274 458.849 608.187 451.064 C 592.099 443.28 584.833 417.333 584.833 417.333 C 584.833 417.333 581.201 400.207 593.656 388.79 C 606.11 377.374 635.95 369.2 635.95 369.2 Z " fill="rgb(48,60,96)"/><path d=" M 611.337 447.291 C 608.164 468.291 591.402 483.171 573.898 480.526 C 556.394 477.881 544.777 458.712 547.95 437.712 C 551.124 416.712 567.886 401.833 585.39 404.478 C 602.894 407.122 614.511 426.291 611.337 447.291 Z " fill="rgb(213,74,65)"/><path d=" M 598.692 446.729 C 595.754 466.174 581.992 480.218 567.955 478.097 C 553.917 475.975 544.919 458.492 547.857 439.048 C 550.796 419.603 564.558 405.56 578.595 407.681 C 592.633 409.802 601.631 427.285 598.692 446.729 Z " fill="rgb(243,152,146)"/><path d=" M 577.24 442.385 C 575.625 453.068 569.806 461.047 564.24 460.207 C 558.675 459.366 555.472 450.023 557.087 439.34 C 558.701 428.656 564.521 420.677 570.086 421.519 C 575.651 422.359 578.854 431.702 577.24 442.385 Z " fill="rgb(242,229,222)"/><path d=" M 576.4 405.007 C 591.58 348.571 643.979 356.802 657.228 364.659 C 668.385 371.276 669.941 380.617 669.941 380.617 C 669.941 380.617 655.541 368.94 631.021 373.222 C 607.753 377.284 593.915 390.996 591.969 406.175 C 590.977 413.913 576.4 405.007 576.4 405.007 Z " fill="rgb(213,74,65)"/><path d=" M 343.522 587.192 L 343.407 587.187 C 342.747 587.124 342.264 586.538 342.327 585.878 C 343.69 571.606 350.823 556.936 362.412 544.569 C 375.515 530.586 394.163 519.569 416.339 512.711 C 465.753 497.429 508.86 477.996 535.948 394.647 C 536.153 394.017 536.83 393.672 537.461 393.876 C 538.091 394.081 538.436 394.758 538.231 395.388 C 525.782 433.695 508.836 461.584 486.427 480.65 C 466.662 497.466 444.397 506.545 417.048 515.004 C 395.27 521.739 376.982 532.53 364.163 546.21 C 352.935 558.192 346.029 572.36 344.716 586.106 C 344.656 586.727 344.134 587.192 343.522 587.192 Z " fill="rgb(48,60,96)"/><path d=" M 365.837 529.588 C 365.479 529.588 365.124 529.428 364.888 529.123 C 364.481 528.599 364.577 527.846 365.101 527.44 C 365.311 527.277 386.425 511.109 416.954 504.382 C 475.565 491.468 514.915 456.225 530.749 402.463 C 530.937 401.827 531.602 401.465 532.239 401.651 C 532.875 401.838 533.239 402.505 533.052 403.141 C 523.27 436.354 504.867 462.565 478.356 481.045 C 461.284 492.946 440.799 501.586 417.47 506.726 C 387.492 513.332 366.776 529.178 366.571 529.337 C 366.353 529.506 366.093 529.588 365.837 529.588 Z " fill="rgb(48,60,96)"/><path d=" M 1117.3 512.357 L 959.21 512.357 C 957.728 512.357 956.964 511.156 957.503 509.674 L 989.569 421.572 C 990.109 420.091 991.747 418.89 993.229 418.89 L 1151.32 418.89 C 1152.8 418.89 1153.56 420.091 1153.02 421.572 L 1120.96 509.674 C 1120.42 511.156 1118.78 512.357 1117.3 512.357 Z " fill="rgb(158,200,255)"/><path d=" M 1115.39 508.24 L 964.115 508.24 C 962.731 508.24 962.018 507.118 962.521 505.735 L 991.72 425.512 C 992.224 424.128 993.754 423.006 995.138 423.006 L 1146.41 423.006 C 1147.79 423.006 1148.51 424.128 1148 425.512 L 1118.81 505.735 C 1118.3 507.118 1116.77 508.24 1115.39 508.24 Z " fill="rgb(255,255,255)"/><path d=" M 1112.66 503.016 L 970.646 503.016 C 969.091 503.016 968.288 501.755 968.854 500.199 L 994.024 431.047 C 994.59 429.492 996.31 428.23 997.866 428.23 L 1139.88 428.23 C 1141.43 428.23 1142.24 429.492 1141.67 431.047 L 1116.5 500.199 C 1115.94 501.755 1114.21 503.016 1112.66 503.016 Z " fill="rgb(158,200,255)"/><path d=" M 1081.21 465.623 C 1075.99 479.954 1060.15 491.571 1045.82 491.571 C 1031.49 491.571 1024.1 479.954 1029.31 465.623 C 1034.53 451.292 1050.38 439.675 1064.71 439.675 C 1079.04 439.675 1086.43 451.292 1081.21 465.623 Z " fill="rgb(255,255,255)"/><path d=" M 1077.61 465.623 C 1073.11 477.963 1059.47 487.966 1047.13 487.966 C 1034.79 487.966 1028.43 477.963 1032.92 465.623 C 1037.41 453.284 1051.06 443.28 1063.4 443.28 C 1075.73 443.28 1082.1 453.284 1077.61 465.623 Z " fill="rgb(158,200,255)"/><path d=" M 1066.71 464.429 L 1056.83 469.145 L 1046.94 473.86 L 1050.38 464.429 L 1053.81 454.998 L 1060.26 459.714 L 1066.71 464.429 Z " fill="rgb(255,255,255)"/><path d=" M 875.168 386.779 C 872.331 386.779 868.919 389.315 867.867 392.206 L 863.334 404.661 C 862.905 405.84 862.927 406.901 863.396 407.569 C 863.903 408.294 864.839 408.446 865.535 408.446 L 877.99 408.446 C 880.876 408.446 884.22 405.96 885.29 403.019 L 889.823 390.564 C 890.253 389.384 890.23 388.324 889.762 387.655 C 889.255 386.931 888.319 386.779 887.623 386.779 L 875.168 386.779 Z  M 877.99 413.246 L 865.535 413.246 C 862.978 413.246 860.765 412.181 859.464 410.323 C 858.084 408.353 857.851 405.691 858.824 403.019 L 863.357 390.564 C 865.109 385.75 870.297 381.979 875.168 381.979 L 887.623 381.979 C 890.181 381.979 892.394 383.044 893.694 384.902 C 895.073 386.872 895.306 389.534 894.333 392.206 L 889.8 404.661 C 888.048 409.475 882.86 413.246 877.99 413.246 Z " fill="rgb(156,212,153)"/><path d=" M 855.902 439.712 C 853.065 439.712 849.653 442.248 848.601 445.139 L 844.068 457.594 C 843.639 458.773 843.661 459.833 844.13 460.503 C 844.636 461.227 845.573 461.378 846.269 461.378 L 858.724 461.378 C 861.61 461.378 864.954 458.894 866.024 455.952 L 870.558 443.497 C 870.987 442.317 870.964 441.257 870.496 440.588 C 869.989 439.864 869.053 439.712 868.356 439.712 L 855.902 439.712 Z  M 858.724 466.179 L 846.269 466.179 C 843.711 466.179 841.499 465.113 840.198 463.256 C 838.818 461.286 838.585 458.624 839.558 455.952 L 844.091 443.497 C 845.843 438.683 851.031 434.912 855.902 434.912 L 868.356 434.912 C 870.915 434.912 873.127 435.978 874.428 437.835 C 875.808 439.805 876.04 442.467 875.067 445.139 L 870.534 457.594 C 868.782 462.408 863.595 466.179 858.724 466.179 Z " fill="rgb(156,212,153)"/><path d=" M 836.636 492.646 C 833.749 492.646 830.406 495.13 829.335 498.072 L 824.802 510.526 C 824.373 511.706 824.396 512.767 824.864 513.436 C 825.371 514.16 826.307 514.312 827.003 514.312 L 839.458 514.312 C 842.344 514.312 845.688 511.827 846.758 508.885 L 851.292 496.431 C 851.721 495.251 851.698 494.19 851.229 493.521 C 850.723 492.797 849.787 492.646 849.091 492.646 L 836.636 492.646 Z  M 839.458 519.112 L 827.003 519.112 C 824.445 519.112 822.232 518.046 820.932 516.189 C 819.552 514.219 819.319 511.557 820.292 508.885 L 824.825 496.431 C 826.577 491.616 831.765 487.845 836.636 487.845 L 849.091 487.845 C 851.648 487.845 853.861 488.911 855.162 490.768 C 856.541 492.738 856.774 495.4 855.802 498.072 L 851.269 510.526 C 849.517 515.341 844.329 519.112 839.458 519.112 Z " fill="rgb(158,200,255)"/><path d=" M 959.212 461.443 L 890.71 461.443 C 889.426 461.443 888.758 460.393 889.226 459.108 C 889.693 457.824 891.126 456.773 892.411 456.773 L 960.913 456.773 C 962.197 456.773 962.865 457.824 962.397 459.108 C 961.93 460.393 960.497 461.443 959.212 461.443 Z " fill="rgb(158,200,255)"/><path d=" M 980.462 403.062 L 911.96 403.062 C 910.676 403.062 910.007 402.011 910.475 400.726 C 910.942 399.442 912.376 398.391 913.66 398.391 L 982.162 398.391 C 983.446 398.391 984.114 399.442 983.647 400.726 C 983.179 402.011 981.746 403.062 980.462 403.062 Z " fill="rgb(158,200,255)"/><path d=" M 977.062 412.402 L 908.56 412.402 C 907.276 412.402 906.607 411.352 907.075 410.067 C 907.542 408.783 908.976 407.732 910.26 407.732 L 978.762 407.732 C 980.046 407.732 980.714 408.783 980.247 410.067 C 979.78 411.352 978.346 412.402 977.062 412.402 Z " fill="rgb(158,200,255)"/><path d=" M 962.612 452.103 L 894.11 452.103 C 892.826 452.103 892.158 451.052 892.625 449.767 C 893.093 448.482 894.526 447.432 895.811 447.432 L 964.312 447.432 C 965.597 447.432 966.265 448.482 965.798 449.767 C 965.33 451.052 963.896 452.103 962.612 452.103 Z " fill="rgb(158,200,255)"/><path d=" M 942.78 506.592 L 874.278 506.592 C 872.993 506.592 872.325 505.542 872.792 504.257 C 873.26 502.973 874.693 501.922 875.978 501.922 L 944.479 501.922 C 945.764 501.922 946.433 502.973 945.965 504.257 C 945.497 505.542 944.064 506.592 942.78 506.592 Z " fill="rgb(158,200,255)"/><path d=" M 939.38 515.933 L 870.878 515.933 C 869.594 515.933 868.925 514.882 869.393 513.598 C 869.86 512.313 871.294 511.263 872.578 511.263 L 941.08 511.263 C 942.364 511.263 943.032 512.313 942.565 513.598 C 942.097 514.882 940.664 515.933 939.38 515.933 Z " fill="rgb(158,200,255)"/><path d=" M 875.091 406.24 C 874.88 406.24 874.668 406.212 874.46 406.156 C 873.735 405.958 873.145 405.433 872.864 404.736 L 868.163 393.06 C 867.667 391.83 868.263 390.432 869.492 389.937 C 870.721 389.442 872.12 390.038 872.615 391.267 L 876.134 400.005 L 903.921 378.586 C 904.97 377.778 906.478 377.972 907.287 379.022 C 908.097 380.072 907.901 381.579 906.852 382.388 L 876.556 405.741 C 876.131 406.068 875.615 406.24 875.091 406.24 Z " fill="rgb(243,113,104)"/><path d=" M 855.825 459.173 C 855.614 459.173 855.402 459.146 855.194 459.089 C 854.47 458.892 853.879 458.366 853.599 457.669 L 848.896 445.993 C 848.401 444.763 848.997 443.365 850.226 442.87 C 851.456 442.375 852.854 442.971 853.349 444.2 L 856.868 452.938 L 884.655 431.519 C 885.705 430.711 887.212 430.905 888.021 431.955 C 888.831 433.004 888.635 434.511 887.585 435.321 L 857.29 458.674 C 856.865 459.001 856.349 459.173 855.825 459.173 Z " fill="rgb(243,113,104)"/><path d=" M 1308.77 341.565 L 1045.66 341.565 L 1052.46 322.883 L 1315.57 322.883 L 1308.77 341.565 Z " fill="rgb(158,200,255)"/><path d=" M 1298.57 369.589 L 1035.46 369.589 L 1042.26 350.907 L 1305.37 350.907 L 1298.57 369.589 Z " fill="rgb(158,200,255)"/><path d=" M 1006.93 593.615 L 813.722 593.615 C 811.197 593.615 809.884 591.55 810.802 589.025 C 811.721 586.5 814.539 584.435 817.063 584.435 L 1010.27 584.435 C 1012.8 584.435 1014.11 586.5 1013.19 589.025 C 1012.27 591.55 1009.46 593.615 1006.93 593.615 Z " fill="rgb(158,200,255)"/><path d=" M 999.508 614.015 L 806.297 614.015 C 803.772 614.015 802.458 611.95 803.377 609.425 C 804.296 606.901 807.114 604.835 809.638 604.835 L 1002.85 604.835 C 1005.37 604.835 1006.69 606.901 1005.77 609.425 C 1004.85 611.95 1002.03 614.015 999.508 614.015 Z " fill="rgb(158,200,255)"/><path d=" M 1180.38 786.511 C 1180.38 783.269 1219.42 675.355 1193.02 605.886 C 1174.54 557.243 1171.62 498.872 1171.62 498.872 C 1171.62 498.872 1135.63 550.433 1159.95 629.234 C 1174.92 677.735 1181.03 691.172 1182.32 705.44 C 1183.62 719.709 1176.49 791.051 1176.49 791.051 L 1180.38 786.511 Z " fill="rgb(156,212,153)"/><path d=" M 1170.67 502.686 C 1167.71 507.785 1161.97 518.946 1157.8 534.919 C 1152.42 555.494 1148.63 588.498 1161.09 628.88 C 1166.15 645.266 1170.16 657.546 1173.39 667.414 C 1179.75 686.872 1182.65 695.752 1183.52 705.332 C 1184.65 717.815 1179.52 772.291 1178.05 787.379 L 1179.24 785.996 C 1179.38 785.282 1179.8 783.859 1180.86 780.292 C 1203.41 704.911 1207.13 646.376 1191.9 606.312 C 1176.24 565.103 1171.69 516.402 1170.67 502.686 Z  M 1176.49 792.251 C 1176.33 792.251 1176.17 792.22 1176.01 792.155 C 1175.53 791.949 1175.24 791.454 1175.29 790.932 C 1175.36 790.22 1182.4 719.542 1181.13 705.549 C 1180.28 696.239 1177.41 687.44 1171.11 668.159 C 1167.88 658.284 1163.86 645.993 1158.8 629.588 C 1146.15 588.612 1150.03 555.098 1155.5 534.198 C 1161.45 511.512 1170.27 498.718 1170.64 498.185 C 1170.93 497.764 1171.46 497.577 1171.95 497.718 C 1172.45 497.86 1172.79 498.3 1172.82 498.812 C 1172.85 499.394 1175.94 557.56 1194.15 605.459 C 1204.02 631.438 1206 665.695 1200.04 707.28 C 1195.28 740.482 1186.79 768.861 1183.16 780.979 C 1182.34 783.741 1181.62 786.126 1181.58 786.565 C 1181.58 786.852 1181.48 787.075 1181.29 787.292 L 1177.4 791.833 C 1177.16 792.104 1176.83 792.251 1176.49 792.251 Z " fill="rgb(116,181,112)"/><path d=" M 1188.81 797.537 C 1182.97 677.552 1211.51 612.047 1269.88 560.162 C 1328.25 508.276 1330.84 494.656 1330.84 494.656 C 1330.84 494.656 1321.76 595.833 1288.04 630.855 C 1254.31 665.878 1205.02 691.821 1197.89 709.98 C 1190.75 728.14 1193.35 789.105 1193.35 789.105 L 1188.81 800.131 L 1188.81 797.537 Z " fill="rgb(156,212,153)"/><path d=" M 1181.67 807.914 C 1181.03 805.968 1194 695.712 1241.34 689.227 C 1288.69 682.741 1299.71 693.767 1332.14 688.578 C 1355.28 684.876 1373 677.552 1373 677.552 C 1373 677.552 1360.72 708.813 1318.52 721.655 C 1288.69 730.735 1249.77 715.817 1227.07 719.709 C 1204.37 723.601 1192.7 772.243 1192.7 772.243 L 1188.81 797.537 L 1181.67 807.914 Z " fill="rgb(156,212,153)"/><path d=" M 1184.92 776.038 C 1184.81 776.038 1184.69 776.022 1184.58 775.989 C 1183.95 775.805 1183.58 775.139 1183.76 774.503 C 1196.18 731.711 1210.43 706.745 1228.6 695.933 C 1244.85 686.265 1261.65 689.232 1279.43 692.374 C 1283.78 693.143 1288.28 693.938 1292.74 694.522 C 1331.37 699.59 1350.22 690.201 1350.4 690.105 C 1350.99 689.804 1351.71 690.035 1352.02 690.623 C 1352.32 691.211 1352.09 691.934 1351.5 692.238 C 1350.72 692.643 1331.91 702.081 1292.42 696.902 C 1287.92 696.311 1283.39 695.511 1279.01 694.737 C 1261.68 691.675 1245.32 688.783 1229.83 697.995 C 1212.21 708.478 1198.3 733.001 1186.07 775.171 C 1185.92 775.696 1185.44 776.038 1184.92 776.038 Z " fill="rgb(116,181,112)"/><path d=" M 1246.86 609.68 C 1246.5 609.68 1246.14 609.519 1245.91 609.212 C 1245.5 608.688 1245.6 607.935 1246.12 607.53 C 1246.35 607.353 1269.42 589.772 1301.43 583.628 C 1302.08 583.505 1302.71 583.93 1302.84 584.581 C 1302.96 585.231 1302.54 585.86 1301.89 585.985 C 1270.43 592.023 1247.81 609.257 1247.59 609.43 C 1247.37 609.598 1247.11 609.68 1246.86 609.68 Z " fill="rgb(116,181,112)"/><path d=" M 1210.21 661.89 C 1210 661.89 1209.79 661.835 1209.6 661.722 C 1209.03 661.384 1208.84 660.647 1209.18 660.077 C 1226.07 631.597 1245.85 624.42 1288.98 610.902 C 1289.61 610.702 1290.28 611.056 1290.48 611.688 C 1290.68 612.32 1290.33 612.994 1289.7 613.192 C 1247.17 626.52 1227.68 633.58 1211.24 661.302 C 1211.02 661.68 1210.62 661.89 1210.21 661.89 Z " fill="rgb(116,181,112)"/><path d=" M 1199.72 837.424 L 1170.76 837.424 C 1160.53 837.424 1151.75 830.159 1149.83 820.115 L 1140.49 771.27 L 1229.99 771.27 L 1220.65 820.115 C 1218.73 830.159 1209.95 837.424 1199.72 837.424 Z " fill="rgb(243,152,146)"/><path d=" M 1227.72 783.723 L 1143.41 783.723 C 1142.08 783.723 1141.01 782.648 1141.01 781.323 C 1141.01 779.998 1142.08 778.923 1143.41 778.923 L 1227.72 778.923 C 1229.05 778.923 1230.12 779.998 1230.12 781.323 C 1230.12 782.648 1229.05 783.723 1227.72 783.723 Z " fill="rgb(213,74,65)"/><path d=" M 2369.6 539.2 C 2340.45 598.366 2303.91 760.042 2293.94 768.9 C 2283.97 777.759 2226.39 812.088 2216.42 828.698 C 2206.46 845.309 2210.89 839.772 2215.32 840.88 C 2219.75 841.987 2470.01 843.094 2470.01 843.094 C 2470.01 843.094 2441.22 671.452 2437.9 670.345 C 2434.58 669.237 2369.6 539.2 2369.6 539.2 Z " fill="rgb(162,223,242)"/><path d=" M 2328.15 842.292 C 2374.12 842.613 2422.62 842.866 2449.32 842.997 L 2412.76 624.371 C 2393.27 586.569 2369.6 539.2 2369.6 539.2 C 2365.92 546.659 2362.13 555.749 2358.29 565.954 C 2354.5 730.16 2378.15 776.185 2360.38 805.444 C 2346.52 828.275 2333.87 838.489 2328.15 842.292 Z " fill="rgb(150,207,224)"/><path d=" M 2847.79 854.052 L 1646.04 854.052 C 1640.92 854.052 1636.77 849.901 1636.77 844.782 C 1636.77 839.662 1640.92 835.512 1646.04 835.512 L 2847.79 835.512 C 2852.91 835.512 2857.06 839.662 2857.06 844.782 C 2857.06 849.901 2852.91 854.052 2847.79 854.052 Z " fill="rgb(46,91,154)"/><path d=" M 2523.08 467.79 C 2564.64 506.159 2657.17 542.545 2657.17 542.545 C 2657.17 542.545 2671.22 672.428 2661.63 745.97 C 2652.04 819.513 2657.37 834.434 2657.37 834.434 L 2466.59 834.434 C 2466.59 834.434 2440.98 798.902 2394.11 688.416 C 2364.27 618.071 2369.6 539.2 2369.6 539.2 L 2485.77 486.974 L 2523.08 467.79 Z " fill="rgb(162,223,242)"/><path d=" M 2466.59 834.434 L 2657.37 834.434 C 2657.37 834.434 2652.04 819.513 2661.63 745.97 C 2669.53 685.414 2661.39 586.659 2658.28 553.672 L 2640.92 546.236 C 2597.37 558.787 2572.26 623.756 2564.88 687.249 C 2559.94 729.731 2489.56 771.552 2443.52 794.577 C 2458.65 823.41 2466.59 834.434 2466.59 834.434 Z " fill="rgb(150,207,224)"/><path d=" M 2419.81 334.475 C 2396.82 385.696 2424.42 433.145 2423.58 431.144 C 2422.75 429.144 2458.39 344.664 2458.39 344.664 L 2419.81 334.475 Z " fill="rgb(46,91,154)"/><path d=" M 2506.96 372.351 L 2536.13 478.958 C 2536.95 481.967 2536.25 485.173 2534.29 487.594 C 2527.44 496.021 2517.7 513.355 2498.05 518.916 C 2494.23 519.997 2489.53 520.286 2485.72 520.3 C 2481.71 520.315 2478.26 517.495 2477.5 513.562 L 2457.96 412.448 L 2506.96 372.351 Z " fill="rgb(240,153,89)"/><path d=" M 2501.39 381.261 L 2490.73 385.631 L 2457.96 412.448 L 2475.55 502.094 C 2505.39 483.492 2509.74 470.938 2501.39 381.261 Z " fill="rgb(227,133,64)"/><path d=" M 2505.89 419.509 C 2499.44 454.579 2473.19 478.297 2447.28 472.485 C 2421.36 466.674 2409 443.975 2412.04 398.463 C 2414.43 362.758 2432.03 323.948 2457.95 329.76 C 2483.87 335.571 2512.35 384.438 2505.89 419.509 Z " fill="rgb(240,153,89)"/><path d=" M 2657.17 542.545 C 2695.77 551.261 2702.94 629.663 2715.49 712.35 C 2716.94 721.867 2724.35 802.421 2724.35 802.421 C 2724.35 802.421 2725.09 817.187 2710.32 824.569 C 2697.71 830.877 2692.6 835.644 2619.51 836.382 C 2549.32 837.091 2458.81 834.167 2458.81 834.167 C 2458.81 834.167 2458.01 808.048 2465.21 795.284 C 2476.04 776.089 2587.03 748.526 2597.37 747.05 C 2598.84 726.378 2587.17 651.583 2603.27 600.87 C 2614.35 565.985 2626.25 547.713 2641.17 542.937 C 2646.14 541.345 2651.45 541.253 2657.17 542.545 Z " fill="rgb(162,223,242)"/><path d=" M 2498.51 835.758 C 2533.11 836.278 2580.6 836.775 2619.51 836.382 C 2692.6 835.644 2697.71 830.877 2710.32 824.569 C 2725.09 817.187 2725.83 804.636 2725.83 804.636 C 2725.83 804.636 2718.37 718.921 2716.97 709.397 C 2708.85 654.026 2700.07 590.665 2679.65 560.08 C 2698.85 616.347 2701.94 663.823 2702.28 684.101 C 2702.46 694.37 2701.51 708.433 2698.51 718.257 C 2695.19 729.146 2686.7 735.976 2673.41 732.284 C 2646.83 724.901 2613.61 740.405 2613.61 740.405 C 2613.61 740.405 2638.71 731.545 2662.33 739.667 C 2685.96 747.788 2734.69 801.683 2681.53 821.616 C 2665.26 827.716 2567.83 832.69 2498.51 835.758 Z " fill="rgb(150,207,224)"/><path d=" M 2471.12 797.745 C 2471.12 797.745 2480.96 781.011 2501.14 781.011 C 2521.32 781.011 2519.85 813.987 2516.89 824.815 C 2513.94 835.644 2502.13 836.136 2502.13 836.136 L 2458.81 834.167 L 2471.12 797.745 Z " fill="rgb(150,207,224)"/><path d=" M 2427.21 843.651 L 2154.17 843.651 C 2150.05 843.651 2146.68 840.282 2146.68 836.165 L 2146.68 834.013 C 2146.68 829.895 2150.05 826.526 2154.17 826.526 L 2427.21 826.526 C 2431.33 826.526 2434.7 829.895 2434.7 834.013 L 2434.7 836.165 C 2434.7 840.282 2431.33 843.651 2427.21 843.651 Z " fill="rgb(117,161,222)"/><path d=" M 2465.71 799.714 C 2423.38 784.456 2412.27 790.2 2402.71 787.409 C 2379.08 780.519 2373.17 786.425 2357.92 828.261 C 2354.88 836.597 2363.82 837.12 2372.68 837.12 C 2381.54 837.12 2392.37 819.894 2395.81 817.925 C 2399.26 815.956 2408.61 814.972 2408.61 814.972 C 2408.61 814.972 2405.66 814.972 2401.23 823.831 C 2396.8 832.69 2391.38 836.136 2398.28 836.136 C 2405.17 836.136 2406.15 824.815 2418.95 827.276 C 2431.74 829.737 2426.82 836.136 2458.81 835.644 C 2490.81 835.151 2514.95 835.643 2514.43 816.448 C 2513.94 798.237 2515.96 789.131 2498.68 785.933 C 2485.39 783.472 2465.71 799.714 2465.71 799.714 Z " fill="rgb(240,153,89)"/><path d=" M 2466.26 799.714 C 2494.56 796.515 2486.25 831.768 2483.3 834.721 C 2480.35 837.674 2499.06 835.758 2499.06 835.758 C 2499.06 835.758 2507.85 821.616 2500.47 805.374 C 2493.08 789.132 2478.32 788.394 2478.32 788.394 L 2465.77 795.284 L 2466.26 799.714 Z " fill="rgb(168,107,72)"/><path d=" M 2495.81 796.646 C 2495.44 801.014 2488.02 803.96 2479.23 803.226 C 2470.43 802.491 2463.6 798.354 2463.97 793.984 C 2464.33 789.616 2471.75 786.669 2480.55 787.404 C 2489.34 788.139 2496.17 792.276 2495.81 796.646 Z " fill="rgb(46,91,154)"/><path d=" M 2493.56 794.473 C 2493.23 798.376 2486.6 801.009 2478.74 800.353 C 2470.89 799.696 2464.78 795.999 2465.11 792.096 C 2465.43 788.192 2472.07 785.56 2479.92 786.217 C 2487.78 786.873 2493.88 790.569 2493.56 794.473 Z " fill="rgb(62,107,171)"/><path d=" M 2488.65 792.664 C 2488.42 795.474 2483.64 797.368 2477.99 796.896 C 2472.33 796.423 2467.94 793.762 2468.17 790.952 C 2468.4 788.143 2473.18 786.248 2478.84 786.72 C 2484.49 787.192 2488.88 789.854 2488.65 792.664 Z " fill="rgb(240,206,180)"/><path d=" M 2144.18 789.566 L 1869.12 789.566 C 1854.65 789.566 1842.25 779.089 1839.63 764.661 L 1803.76 566.642 C 1800.38 547.967 1814.52 530.753 1833.25 530.753 L 2108.31 530.753 C 2122.78 530.753 2135.18 541.231 2137.79 555.659 L 2173.67 753.678 C 2177.05 772.353 2162.91 789.566 2144.18 789.566 Z " fill="rgb(117,161,222)"/><path d=" M 2157.03 754.42 L 2120.42 560.499 C 2117.75 546.369 2105.09 536.108 2090.32 536.108 L 1810.8 536.108 C 1804.93 542.922 1801.99 552.247 1803.78 561.964 L 1840.91 764.138 C 1843.62 778.869 1856.46 789.566 1871.44 789.566 L 2126.94 789.566 C 2146.05 789.566 2160.48 772.708 2157.03 754.42 Z " fill="rgb(168,206,255)"/><path d=" M 2090.71 816.083 L 2038.49 816.083 C 2029.18 816.083 2021.63 807.79 2021.63 797.559 L 2021.63 702.09 C 2021.63 685.807 2009.61 672.607 1994.79 672.607 L 1967.52 672.607 C 1952.69 672.607 1940.68 685.807 1940.68 702.09 L 1940.68 809.005 C 1940.68 827.288 1954.22 842.077 1970.87 841.962 L 2113.37 840.984 C 2113.37 827.231 2103.22 816.083 2090.71 816.083 Z " fill="rgb(117,161,222)"/><path d=" M 1942.75 704.233 L 1942.75 809.51 C 1942.75 826.648 1956.04 840.659 1972.85 841.868 L 2111.92 840.999 C 2111.91 838.721 2100.95 834.569 2087.4 834.569 L 2030.92 834.569 C 2020.85 834.569 2012.68 826.403 2012.68 816.329 L 2012.68 704.233 C 2012.68 688.2 1999.68 675.202 1983.65 675.202 L 1971.79 675.202 C 1955.75 675.202 1942.75 688.2 1942.75 704.233 Z " fill="rgb(168,206,255)"/><path d=" M 2233.86 803.952 C 2254.88 792.275 2280.57 796.167 2289.91 807.844 C 2299.25 819.52 2300.81 827.304 2279.79 827.304 C 2258.77 827.304 2216.74 828.861 2209.73 828.083 C 2202.73 827.304 2233.86 803.952 2233.86 803.952 Z " fill="rgb(240,153,89)"/><path d=" M 2265 796.946 C 2287.57 791.497 2303 804.633 2321.83 817.185 C 2338.17 828.083 2341.46 838.677 2323.38 829.64 C 2296.92 816.406 2281.35 814.85 2281.35 814.85 L 2265 796.946 Z " fill="rgb(240,153,89)"/><path d=" M 2244.44 803.88 C 2233.04 803.88 2223.09 800.245 2215.04 800.915 C 2206.99 801.586 2181.51 827.74 2185.53 829.751 C 2185.82 829.896 2186.13 830.028 2186.47 830.152 C 2192.52 832.378 2199.35 829.911 2202.76 824.439 C 2206.37 818.651 2212.23 811.917 2219.06 814.327 C 2230.46 818.351 2242.43 817.963 2242.43 817.963 L 2244.44 803.88 Z " fill="rgb(240,153,89)"/><path d=" M 2237.75 831.975 C 2226.08 827.304 2244.76 788.383 2250.99 788.383 C 2257.22 788.383 2280.57 807.065 2280.57 807.065 C 2280.57 807.065 2275.08 810.165 2256.44 803.952 C 2251.77 802.395 2247.88 828.861 2242.43 831.975 C 2236.98 835.089 2237.75 831.975 2237.75 831.975 Z " fill="rgb(247,169,111)"/><path d=" M 2412.02 418.96 C 2410.94 461.819 2425.54 469.067 2435.75 474.887 C 2445.97 480.707 2489.97 471.093 2496.43 460.493 C 2512.95 433.374 2499.04 408.086 2502.74 408.468 C 2506.44 408.851 2509.82 419.408 2519.45 433.109 C 2520.35 434.385 2526.61 442.853 2526.94 440.037 C 2531.41 401.657 2551.4 389.739 2546.64 350.921 C 2543.13 322.304 2524.97 324.575 2524.97 324.575 C 2524.97 324.575 2513.25 300.629 2476.77 303.349 C 2452.33 305.17 2430.54 314.692 2405.35 321.177 C 2380.15 327.661 2435.15 384.768 2467.83 363.904 C 2500.51 343.041 2484.38 388.997 2489.53 392.561 C 2494.69 396.125 2492.01 393.034 2494.38 416.551 C 2496.74 440.067 2466.88 455.421 2458.32 457.434 C 2430.95 463.871 2426.37 459.356 2420.38 449.05 C 2415.18 440.107 2412.02 418.96 2412.02 418.96 Z " fill="rgb(46,91,154)"/><path d=" M 2525.31 405.689 C 2522.17 416.491 2514.49 423.469 2508.17 421.275 C 2501.84 419.082 2501.66 410.304 2502.4 397.745 C 2503.07 386.423 2513.21 379.965 2519.54 382.159 C 2525.86 384.353 2528.45 394.887 2525.31 405.689 Z " fill="rgb(240,153,89)"/><path d=" M 1927.25 376.69 L 1693.61 376.69 C 1691.06 376.69 1689 374.628 1689 372.085 L 1689 271.542 C 1689 268.999 1691.06 266.937 1693.61 266.937 L 1927.25 266.937 C 1929.8 266.937 1931.86 268.999 1931.86 271.542 L 1931.86 372.085 C 1931.86 374.628 1929.8 376.69 1927.25 376.69 Z " fill="rgb(183,225,255)"/><path d=" M 1921.5 371.539 L 1699.36 371.539 C 1697.31 371.539 1695.64 369.874 1695.64 367.819 L 1695.64 299.491 C 1695.64 297.437 1697.31 295.772 1699.36 295.772 L 1921.5 295.772 C 1923.55 295.772 1925.22 297.437 1925.22 299.491 L 1925.22 367.819 C 1925.22 369.874 1923.55 371.539 1921.5 371.539 Z " fill="rgb(255,255,255)"/><path d=" M 1706.47 283.577 L 1701.08 283.577 C 1699.94 283.577 1699.01 282.653 1699.01 281.515 L 1699.01 277.075 C 1699.01 275.937 1699.94 275.014 1701.08 275.014 L 1706.47 275.014 C 1707.6 275.014 1708.53 275.937 1708.53 277.075 L 1708.53 281.515 C 1708.53 282.653 1707.6 283.577 1706.47 283.577 Z " fill="rgb(255,255,255)"/><path d=" M 1723.76 283.577 L 1718.37 283.577 C 1717.24 283.577 1716.31 282.653 1716.31 281.515 L 1716.31 277.075 C 1716.31 275.937 1717.24 275.014 1718.37 275.014 L 1723.76 275.014 C 1724.9 275.014 1725.83 275.937 1725.83 277.075 L 1725.83 281.515 C 1725.83 282.653 1724.9 283.577 1723.76 283.577 Z " fill="rgb(255,255,255)"/><path d=" M 1741.06 283.577 L 1735.67 283.577 C 1734.53 283.577 1733.61 282.653 1733.61 281.515 L 1733.61 277.075 C 1733.61 275.937 1734.53 275.014 1735.67 275.014 L 1741.06 275.014 C 1742.2 275.014 1743.13 275.937 1743.13 277.075 L 1743.13 281.515 C 1743.13 282.653 1742.2 283.577 1741.06 283.577 Z " fill="rgb(255,255,255)"/><path d=" M 1915.88 312.378 L 1794.44 312.378 C 1792.45 312.378 1790.81 310.744 1790.81 308.746 C 1790.81 306.748 1792.45 305.113 1794.44 305.113 L 1915.88 305.113 C 1917.88 305.113 1919.51 306.748 1919.51 308.746 C 1919.51 310.744 1917.88 312.378 1915.88 312.378 Z " fill="rgb(183,225,255)"/><path d=" M 1824.54 368.425 L 1703.11 368.425 C 1701.11 368.425 1699.47 366.79 1699.47 364.792 C 1699.47 362.794 1701.11 361.16 1703.11 361.16 L 1824.54 361.16 C 1826.54 361.16 1828.17 362.794 1828.17 364.792 C 1828.17 366.79 1826.54 368.425 1824.54 368.425 Z " fill="rgb(183,225,255)"/><path d=" M 1846.91 368.425 L 1834.35 368.425 C 1833.66 368.425 1833.11 367.866 1833.11 367.183 L 1833.11 362.402 C 1833.11 361.719 1833.66 361.16 1834.35 361.16 L 1846.91 361.16 C 1847.6 361.16 1848.15 361.719 1848.15 362.402 L 1848.15 367.183 C 1848.15 367.866 1847.6 368.425 1846.91 368.425 Z " fill="rgb(183,225,255)"/><path d=" M 1865.85 368.425 L 1853.29 368.425 C 1852.61 368.425 1852.05 367.866 1852.05 367.183 L 1852.05 362.402 C 1852.05 361.719 1852.61 361.16 1853.29 361.16 L 1865.85 361.16 C 1866.54 361.16 1867.1 361.719 1867.1 362.402 L 1867.1 367.183 C 1867.1 367.866 1866.54 368.425 1865.85 368.425 Z " fill="rgb(183,225,255)"/><path d=" M 1917.04 328.206 L 1715.95 328.206 C 1714.6 328.206 1713.49 327.097 1713.49 325.741 C 1713.49 324.386 1714.6 323.276 1715.95 323.276 L 1917.04 323.276 C 1918.4 323.276 1919.51 324.386 1919.51 325.741 C 1919.51 327.097 1918.4 328.206 1917.04 328.206 Z " fill="rgb(183,225,255)"/><path d=" M 1917.04 338.845 L 1715.95 338.845 C 1714.6 338.845 1713.49 337.735 1713.49 336.38 C 1713.49 335.024 1714.6 333.915 1715.95 333.915 L 1917.04 333.915 C 1918.4 333.915 1919.51 335.024 1919.51 336.38 C 1919.51 337.735 1918.4 338.845 1917.04 338.845 Z " fill="rgb(183,225,255)"/><path d=" M 1982.13 453.75 L 1748.48 453.75 C 1745.94 453.75 1743.88 451.688 1743.88 449.146 L 1743.88 348.602 C 1743.88 346.059 1745.94 343.997 1748.48 343.997 L 1982.13 343.997 C 1984.67 343.997 1986.74 346.059 1986.74 348.602 L 1986.74 449.146 C 1986.74 451.688 1984.67 453.75 1982.13 453.75 Z " fill="rgb(158,200,255)"/><path d=" M 1976.38 448.599 L 1754.24 448.599 C 1752.18 448.599 1750.52 446.934 1750.52 444.88 L 1750.52 376.552 C 1750.52 374.498 1752.18 372.833 1754.24 372.833 L 1976.38 372.833 C 1978.43 372.833 1980.1 374.498 1980.1 376.552 L 1980.1 444.88 C 1980.1 446.934 1978.43 448.599 1976.38 448.599 Z " fill="rgb(255,255,255)"/><path d=" M 1761.34 360.637 L 1755.95 360.637 C 1754.81 360.637 1753.89 359.714 1753.89 358.576 L 1753.89 354.136 C 1753.89 352.997 1754.81 352.074 1755.95 352.074 L 1761.34 352.074 C 1762.48 352.074 1763.4 352.997 1763.4 354.136 L 1763.4 358.576 C 1763.4 359.714 1762.48 360.637 1761.34 360.637 Z " fill="rgb(255,255,255)"/><path d=" M 1778.64 360.637 L 1773.25 360.637 C 1772.11 360.637 1771.19 359.714 1771.19 358.576 L 1771.19 354.136 C 1771.19 352.997 1772.11 352.074 1773.25 352.074 L 1778.64 352.074 C 1779.78 352.074 1780.7 352.997 1780.7 354.136 L 1780.7 358.576 C 1780.7 359.714 1779.78 360.637 1778.64 360.637 Z " fill="rgb(255,255,255)"/><path d=" M 1795.94 360.637 L 1790.55 360.637 C 1789.41 360.637 1788.49 359.714 1788.49 358.576 L 1788.49 354.136 C 1788.49 352.997 1789.41 352.074 1790.55 352.074 L 1795.94 352.074 C 1797.08 352.074 1798 352.997 1798 354.136 L 1798 358.576 C 1798 359.714 1797.08 360.637 1795.94 360.637 Z " fill="rgb(255,255,255)"/><path d=" M 1970.75 389.438 L 1849.32 389.438 C 1847.32 389.438 1845.69 387.804 1845.69 385.806 C 1845.69 383.808 1847.32 382.173 1849.32 382.173 L 1970.75 382.173 C 1972.75 382.173 1974.39 383.808 1974.39 385.806 C 1974.39 387.804 1972.75 389.438 1970.75 389.438 Z " fill="rgb(158,200,255)"/><path d=" M 1879.42 445.485 L 1757.98 445.485 C 1755.99 445.485 1754.35 443.851 1754.35 441.853 C 1754.35 439.855 1755.99 438.22 1757.98 438.22 L 1879.42 438.22 C 1881.42 438.22 1883.05 439.855 1883.05 441.853 C 1883.05 443.851 1881.42 445.485 1879.42 445.485 Z " fill="rgb(158,200,255)"/><path d=" M 1901.79 445.485 L 1889.22 445.485 C 1888.54 445.485 1887.98 444.927 1887.98 444.243 L 1887.98 439.462 C 1887.98 438.779 1888.54 438.22 1889.22 438.22 L 1901.79 438.22 C 1902.47 438.22 1903.03 438.779 1903.03 439.462 L 1903.03 444.243 C 1903.03 444.927 1902.47 445.485 1901.79 445.485 Z " fill="rgb(158,200,255)"/><path d=" M 1920.73 445.485 L 1908.17 445.485 C 1907.48 445.485 1906.92 444.927 1906.92 444.243 L 1906.92 439.462 C 1906.92 438.779 1907.48 438.22 1908.17 438.22 L 1920.73 438.22 C 1921.41 438.22 1921.97 438.779 1921.97 439.462 L 1921.97 444.243 C 1921.97 444.927 1921.41 445.485 1920.73 445.485 Z " fill="rgb(158,200,255)"/><path d=" M 1971.92 405.267 L 1770.83 405.267 C 1769.47 405.267 1768.36 404.157 1768.36 402.802 C 1768.36 401.446 1769.47 400.337 1770.83 400.337 L 1971.92 400.337 C 1973.28 400.337 1974.39 401.446 1974.39 402.802 C 1974.39 404.157 1973.28 405.267 1971.92 405.267 Z " fill="rgb(158,200,255)"/><path d=" M 1971.92 415.905 L 1770.83 415.905 C 1769.47 415.905 1768.36 414.796 1768.36 413.44 C 1768.36 412.084 1769.47 410.976 1770.83 410.976 L 1971.92 410.976 C 1973.28 410.976 1974.39 412.084 1974.39 413.44 C 1974.39 414.796 1973.28 415.905 1971.92 415.905 Z " fill="rgb(158,200,255)"/><path d=" M 2073.14 426.896 C 2073.14 444.307 2059.02 458.421 2041.61 458.421 C 2024.2 458.421 2010.09 444.307 2010.09 426.896 C 2010.09 409.485 2024.2 395.371 2041.61 395.371 C 2059.02 395.371 2073.14 409.485 2073.14 426.896 Z " fill="rgb(156,212,153)"/><path d=" M 2038.48 438.544 L 2038.39 438.543 C 2037.74 438.519 2037.12 438.225 2036.68 437.73 L 2028.12 428 C 2027.24 427.004 2027.34 425.488 2028.34 424.612 C 2029.33 423.737 2030.85 423.834 2031.72 424.829 L 2038.61 432.659 L 2055.1 416.525 C 2056.04 415.598 2057.56 415.614 2058.49 416.562 C 2059.42 417.509 2059.4 419.028 2058.46 419.956 L 2040.16 437.86 C 2039.71 438.3 2039.11 438.544 2038.48 438.544 Z " fill="rgb(255,255,255)"/><path d=" M 2275.12 280.458 L 2074.68 280.458 C 2069.54 280.458 2065.34 276.254 2065.34 271.116 L 2065.34 199.501 C 2065.34 194.364 2069.54 190.16 2074.68 190.16 L 2275.12 190.16 C 2280.26 190.16 2284.46 194.364 2284.46 199.501 L 2284.46 271.116 C 2284.46 276.254 2280.26 280.458 2275.12 280.458 Z " fill="rgb(158,200,255)"/><path d=" M 2091.8 266.835 L 2091.8 316.655 L 2149.21 259.246 C 2149.21 259.246 2092.97 266.835 2091.8 266.835 Z " fill="rgb(158,200,255)"/><path d=" M 2265.21 271.506 L 2084.59 271.506 C 2080.23 271.506 2076.67 267.942 2076.67 263.586 L 2076.67 207.032 C 2076.67 202.676 2080.23 199.112 2084.59 199.112 L 2265.21 199.112 C 2269.57 199.112 2273.13 202.676 2273.13 207.032 L 2273.13 263.586 C 2273.13 267.942 2269.57 271.506 2265.21 271.506 Z " fill="rgb(255,255,255)"/><path d=" M 2183.66 217.016 L 2094.92 217.016 C 2092.78 217.016 2091.02 215.265 2091.02 213.124 C 2091.02 210.983 2092.78 209.231 2094.92 209.231 L 2183.66 209.231 C 2185.8 209.231 2187.55 210.983 2187.55 213.124 C 2187.55 215.265 2185.8 217.016 2183.66 217.016 Z " fill="rgb(158,200,255)"/><path d=" M 2257.78 231.897 L 2093.19 231.897 C 2092 231.897 2091.02 230.923 2091.02 229.733 L 2091.02 229.688 C 2091.02 228.499 2092 227.524 2093.19 227.524 L 2257.78 227.524 C 2258.97 227.524 2259.94 228.499 2259.94 229.688 L 2259.94 229.733 C 2259.94 230.923 2258.97 231.897 2257.78 231.897 Z " fill="rgb(158,200,255)"/><path d=" M 2257.78 240.369 L 2093.19 240.369 C 2092 240.369 2091.02 239.395 2091.02 238.205 L 2091.02 238.16 C 2091.02 236.97 2092 235.996 2093.19 235.996 L 2257.78 235.996 C 2258.97 235.996 2259.94 236.97 2259.94 238.16 L 2259.94 238.205 C 2259.94 239.395 2258.97 240.369 2257.78 240.369 Z " fill="rgb(158,200,255)"/><path d=" M 2223.76 268.392 L 2218.37 268.392 C 2217.23 268.392 2216.31 267.469 2216.31 266.331 L 2216.31 261.891 C 2216.31 260.752 2217.23 259.829 2218.37 259.829 L 2223.76 259.829 C 2224.9 259.829 2225.82 260.752 2225.82 261.891 L 2225.82 266.331 C 2225.82 267.469 2224.9 268.392 2223.76 268.392 Z " fill="rgb(158,200,255)"/><path d=" M 2241.06 268.392 L 2235.67 268.392 C 2234.53 268.392 2233.61 267.469 2233.61 266.331 L 2233.61 261.891 C 2233.61 260.752 2234.53 259.829 2235.67 259.829 L 2241.06 259.829 C 2242.2 259.829 2243.12 260.752 2243.12 261.891 L 2243.12 266.331 C 2243.12 267.469 2242.2 268.392 2241.06 268.392 Z " fill="rgb(158,200,255)"/><path d=" M 2258.36 268.392 L 2252.97 268.392 C 2251.83 268.392 2250.9 267.469 2250.9 266.331 L 2250.9 261.891 C 2250.9 260.752 2251.83 259.829 2252.97 259.829 L 2258.36 259.829 C 2259.5 259.829 2260.42 260.752 2260.42 261.891 L 2260.42 266.331 C 2260.42 267.469 2259.5 268.392 2258.36 268.392 Z " fill="rgb(158,200,255)"/><g><path d=" M 1841.14 1789.46 C 1841.14 1789.46 1552.95 1608.44 1749.91 1414.38 C 1946.86 1220.32 2210.44 1021.92 2387.12 1098.67 C 2563.8 1175.43 2547.9 1272.46 2741.96 1412.93 C 2936.02 1553.41 2891.13 1664.92 2856.37 1721.4 C 2821.61 1777.88 2815.82 1792.36 2815.82 1792.36 L 1841.14 1789.46 Z " fill="rgb(231,243,254)"/></g><path d=" M 2061.27 1275.63 C 2103.94 1237.62 2135.28 1260.29 2158.62 1285.63 C 2177.22 1305.83 2179.82 1310.31 2195.19 1331.23 C 2197.47 1334.34 2199.22 1337.79 2199.3 1341.64 C 2199.73 1364.78 2211.56 1462.59 2198.41 1496.34 C 2183.07 1535.68 1993.92 1553.69 1993.92 1553.69 L 2061.27 1275.63 Z " fill="rgb(48,60,96)"/><path d=" M 2182.4 1518.74 C 2181.37 1518.74 2180.51 1517.93 2180.46 1516.89 C 2180.4 1515.81 2181.23 1514.9 2182.31 1514.84 C 2187.92 1514.56 2192.49 1512.04 2196.27 1507.13 C 2217.48 1479.65 2205.56 1387.92 2195.17 1338.04 C 2194.95 1336.99 2195.62 1335.96 2196.68 1335.74 C 2197.73 1335.51 2198.76 1336.19 2198.98 1337.25 C 2201.25 1348.14 2208.84 1386.8 2211.21 1427.07 C 2213.64 1468.44 2209.65 1496.17 2199.36 1509.51 C 2194.9 1515.29 2189.23 1518.4 2182.5 1518.74 L 2182.4 1518.74 Z " fill="rgb(48,60,96)"/><path d=" M 2077.27 1264.29 C 1995.26 1309.64 2045.27 1463 1941.24 1517.68 C 1912.43 1532.83 1823.89 1609.7 1881.9 1711.05 C 1919.85 1777.35 2033.26 1763.06 2070.6 1704.38 C 2107.94 1645.71 2077.27 1264.29 2077.27 1264.29 Z " fill="rgb(48,60,96)"/><path d=" M 1859.01 1612.98 L 1858.75 1612.96 C 1857.68 1612.82 1856.93 1611.84 1857.07 1610.77 C 1857.15 1610.23 1858.93 1597.33 1867.11 1580.21 C 1874.65 1564.44 1889.28 1542.05 1916.19 1524.93 C 1964.32 1494.3 1996.27 1465.43 2034.05 1323.14 C 2034.32 1322.1 2035.39 1321.48 2036.43 1321.76 C 2037.47 1322.03 2038.09 1323.1 2037.81 1324.14 C 2019.56 1392.9 2001.46 1439.38 1980.86 1470.42 C 1961.72 1499.25 1942.04 1513.1 1918.29 1528.21 C 1868.29 1560.03 1861.01 1610.78 1860.94 1611.29 C 1860.81 1612.27 1859.97 1612.98 1859.01 1612.98 Z " fill="rgb(48,60,96)"/><path d=" M 1860.8 1573.26 C 1860.45 1573.26 1860.08 1573.17 1859.76 1572.96 C 1858.85 1572.39 1858.58 1571.18 1859.16 1570.28 C 1871.05 1551.45 1886.2 1536.01 1904.18 1524.38 C 1971.77 1480.67 1982.96 1455.54 2038.78 1311.6 C 2039.17 1310.6 2040.3 1310.1 2041.3 1310.49 C 2042.31 1310.88 2042.8 1312.01 2042.42 1313.01 C 2014.5 1384.97 1997.82 1427.14 1979.58 1457.03 C 1959.98 1489.13 1937.87 1507.23 1906.3 1527.65 C 1888.79 1538.97 1874.04 1554.01 1862.45 1572.36 C 1862.08 1572.94 1861.45 1573.26 1860.8 1573.26 Z " fill="rgb(48,60,96)"/><path d=" M 2074.44 1360 C 2046.2 1418.65 2050.54 1471.87 2050.54 1471.87 C 2050.54 1471.87 2053.8 1492.5 2066.84 1496.85 C 2079.87 1501.19 2098.33 1488.16 2097.25 1470.78 C 2096.16 1453.4 2101.59 1411.05 2108.11 1395.84 C 2114.62 1380.64 2074.44 1360 2074.44 1360 Z " fill="rgb(240,153,89)"/><path d=" M 1925.24 1767.51 C 1927.02 1783.51 1923.02 1782.18 1937.24 1784.84 C 1951.47 1787.51 1976.81 1777.73 1976.81 1777.73 L 1948.36 1724.83 L 1925.24 1767.51 Z " fill="rgb(103,145,201)"/><path d=" M 2053.95 1440.37 C 2045.95 1466.38 1985.94 1446.37 1964.94 1452.37 C 1943.94 1458.37 1925.93 1546.39 1922.93 1625.4 C 1919.93 1704.41 1923.93 1767.42 1931.93 1777.42 C 1939.93 1787.42 2071.96 1791.42 2083.96 1787.42 C 2095.96 1783.42 1983.94 1733.42 1983.94 1733.42 C 1983.94 1733.42 1976.94 1641.4 1985.94 1594.39 C 1994.94 1547.39 2075.96 1485.38 2075.96 1485.38 L 2053.95 1440.37 Z " fill="rgb(240,153,89)"/><path d=" M 2081.96 1448.37 C 2102.96 1480.38 2157.97 1476.38 2176.97 1502.38 C 2195.97 1528.38 2235.98 1671.41 2235.98 1671.41 L 2277.99 1526.38 C 2277.99 1526.38 2312.05 1520.66 2300.99 1544.39 C 2281.31 1586.58 2273.98 1722.72 2252.64 1742.06 C 2228.91 1763.56 2205.3 1746.06 2191.97 1708.41 C 2179.08 1671.99 2146.97 1593.39 2123.96 1563.39 C 2100.96 1533.38 2075.96 1485.38 2075.96 1485.38 L 2081.96 1448.37 Z " fill="rgb(240,153,89)"/><path d=" M 2217.53 1747.32 C 2217.81 1747.42 2217.98 1747.42 2217.98 1747.42 C 2217.98 1747.42 2217.81 1747.39 2217.53 1747.32 Z " fill="rgb(103,145,201)"/><path d=" M 1990.94 1452.37 C 2032.95 1501.38 2114.96 1499.38 2132.96 1493.38 C 2150.97 1487.38 2150.97 1487.38 2150.97 1487.38 C 2150.97 1487.38 2164.97 1482.38 2176.97 1496.38 C 2188.97 1510.38 2217.98 1598.4 2222.98 1618.4 C 2227.98 1638.4 2235.98 1671.41 2235.98 1671.41 C 2235.98 1671.41 2214.52 1697.16 2214.52 1723.17 C 2214.52 1749.17 2223.63 1749.39 2223.63 1749.39 C 2223.63 1749.39 2196.97 1743.42 2190.97 1727.42 C 2184.97 1711.41 2130.96 1566.39 2130.96 1566.39 L 1981.94 1569.39 L 1983.94 1733.42 C 1983.94 1733.42 1970.94 1721.41 1952.94 1733.42 C 1934.93 1745.42 1928.93 1773.42 1931.93 1777.42 C 1934.93 1781.42 1925.93 1781.42 1925.93 1778.42 C 1925.93 1775.42 1908.93 1702.41 1920.93 1582.39 C 1932.93 1462.37 1955.94 1449.37 1968.94 1448.37 C 1981.94 1447.37 1990.94 1452.37 1990.94 1452.37 Z " fill="rgb(117,161,222)"/><path d=" M 2223.3 1675.04 C 2214.63 1677.71 2199.96 1708.38 2199.96 1708.38 C 2199.96 1708.38 2166.62 1635.7 2156.62 1535.02 L 2144.72 1603.32 C 2161.15 1647.43 2186.93 1716.64 2190.97 1727.42 C 2196.46 1742.05 2218.6 1748.16 2221.63 1748.84 C 2220.8 1748.56 2218.97 1747.45 2217.45 1743.05 C 2216.58 1742.26 2211.57 1739.92 2210.63 1739.06 C 2202.63 1731.72 2205.96 1714.39 2211.3 1695.05 C 2216.63 1675.71 2231.97 1672.38 2223.3 1675.04 Z " fill="rgb(103,145,201)"/><path d=" M 1989.11 1569.25 L 1972.58 1493.67 C 1954.58 1519.01 1952.58 1605.7 1959.92 1665.04 C 1965.93 1713.71 1974.93 1726.34 1981.11 1731.42 C 1982.94 1732.49 1983.94 1733.42 1983.94 1733.42 L 1981.94 1569.39 L 1989.11 1569.25 Z " fill="rgb(103,145,201)"/><path d=" M 1941.24 1493.01 C 1971.92 1575.69 1956.58 1592.36 1996.94 1689.41 C 2019.49 1743.61 2062.95 1784.42 2062.95 1784.42 C 2062.95 1784.42 2097.96 1793.42 2141.96 1790.42 C 2185.97 1787.42 2218.19 1784.4 2218.19 1784.4 C 2218.19 1784.4 2171.97 1756.42 2169.97 1737.42 C 2167.97 1718.41 2159.29 1643.04 2170.62 1589.69 C 2179.48 1548.04 2142.97 1506.38 2142.97 1506.38 L 2081.96 1503.38 L 1941.24 1493.01 Z " fill="rgb(117,161,222)"/><path d=" M 2144.49 1750.79 C 2142.23 1750.79 2137.65 1750.25 2129.95 1749.06 C 2091.27 1743.06 2049.93 1697.72 2031.93 1668.38 C 2013.93 1639.04 1996.45 1624.01 1995.26 1619.7 C 1993.82 1614.49 1994.8 1612.52 1997.91 1612.52 C 2006.33 1612.52 2030.33 1626.96 2063.94 1630.37 C 2077.31 1631.73 2091.13 1632.07 2103.39 1632.07 C 2109.65 1632.07 2115.5 1631.98 2120.68 1631.89 C 2125.86 1631.8 2130.36 1631.71 2133.91 1631.71 C 2143.81 1631.71 2146.4 1632.4 2135.95 1635.7 C 2110.61 1643.7 2041.26 1631.7 2053.93 1657.04 C 2068.84 1686.86 2086.45 1715.72 2111.95 1733.06 C 2125.3 1742.14 2153.62 1750.79 2144.49 1750.79 Z " fill="rgb(110,153,211)"/><path d=" M 2097.13 1463.17 C 2097.54 1443.21 2102.41 1409.14 2108.11 1395.84 C 2112.78 1384.95 2093.47 1371.27 2082.15 1364.38 L 2072.58 1363.97 C 2071.12 1367.15 2069.75 1370.32 2068.47 1373.45 C 2058.36 1439.83 2088.62 1467.26 2103.05 1472.78 C 2109.29 1475.16 2116.27 1475.43 2122.24 1474.89 C 2113.32 1471.72 2104.64 1468.12 2097.13 1463.17 Z " fill="rgb(227,133,64)"/><path d=" M 2078.82 1492.68 C 2075.35 1492.68 2071.74 1492.26 2068.17 1491.39 C 2059.82 1489.36 2039.92 1481.63 2035.29 1453.85 C 2035.18 1453.25 2035.59 1452.68 2036.19 1452.58 C 2036.79 1452.48 2037.36 1452.88 2037.46 1453.48 C 2041.88 1479.96 2060.77 1487.31 2068.69 1489.25 C 2081 1492.25 2094.05 1489.47 2099.06 1482.79 C 2103.08 1477.43 2100.67 1466.02 2100.64 1465.9 C 2100.51 1465.31 2100.89 1464.72 2101.49 1464.59 C 2102.08 1464.46 2102.67 1464.84 2102.8 1465.43 C 2102.91 1465.94 2105.45 1477.95 2100.83 1484.11 C 2096.73 1489.58 2088.28 1492.68 2078.82 1492.68 Z " fill="rgb(245,206,92)"/><path d=" M 2172.93 1386.09 C 2166.15 1421.92 2150.48 1450.82 2123.96 1445.37 C 2097.45 1439.92 2069.57 1402.08 2076.91 1366.37 C 2084.24 1330.65 2111.69 1306.11 2138.21 1311.56 C 2164.72 1317.01 2181.97 1338.36 2172.93 1386.09 Z " fill="rgb(240,153,89)"/><path d=" M 2267.31 1563.02 C 2267.31 1563.02 2218.3 1694.71 2215.97 1708.38 C 2213.63 1722.05 2218.3 1730.72 2219.63 1730.72 C 2220.97 1730.72 2262.64 1659.38 2262.64 1659.38 L 2267.31 1563.02 Z " fill="rgb(240,153,89)"/><path d=" M 2269.31 1557.24 C 2273.31 1543.91 2267.09 1527.01 2267.09 1527.01 L 2284.87 1529.24 L 2269.31 1557.24 Z " fill="rgb(240,153,89)"/><path d=" M 2288.85 1534.5 L 2239.23 1534.5 C 2236.22 1534.5 2234.06 1531.59 2234.92 1528.71 L 2266.24 1423.69 C 2266.81 1421.79 2268.56 1420.48 2270.55 1420.48 L 2320.17 1420.48 C 2323.18 1420.48 2325.34 1423.38 2324.48 1426.27 L 2293.16 1531.28 C 2292.59 1533.19 2290.84 1534.5 2288.85 1534.5 Z " fill="rgb(67,129,219)"/><path d=" M 2295.07 1534.5 L 2245.46 1534.5 C 2242.45 1534.5 2240.28 1531.59 2241.14 1528.71 L 2272.46 1423.69 C 2273.03 1421.79 2274.79 1420.48 2276.78 1420.48 L 2326.39 1420.48 C 2329.4 1420.48 2331.57 1423.38 2330.71 1426.27 L 2299.39 1531.28 C 2298.82 1533.19 2297.06 1534.5 2295.07 1534.5 Z " fill="rgb(46,91,154)"/><path d=" M 2259.15 1458.38 C 2253.86 1477.44 2250.3 1493.09 2251.2 1493.34 C 2252.1 1493.59 2257.11 1478.34 2262.4 1459.28 C 2267.69 1440.22 2271.25 1424.57 2270.35 1424.32 C 2269.46 1424.07 2264.44 1439.32 2259.15 1458.38 Z " fill="rgb(156,190,237)"/><path d=" M 2292.87 1565.69 C 2294.34 1548.37 2309.34 1532.14 2315.05 1526.96 C 2316.78 1525.38 2317.76 1523.15 2317.74 1520.81 C 2317.66 1512.18 2317.27 1491.8 2315.49 1489.42 C 2313.22 1486.39 2307.53 1447.37 2304.88 1448.88 C 2302.23 1450.4 2305.64 1484.49 2305.64 1484.49 C 2305.64 1484.49 2299.2 1481.46 2295.79 1479.95 C 2292.38 1478.43 2278.36 1493.96 2278.36 1493.96 C 2278.36 1493.96 2271.79 1510.57 2289.76 1503.46 C 2311.1 1495.01 2295.09 1518.57 2280.87 1533.68 C 2269.15 1546.14 2279.12 1548.89 2279.12 1548.89 L 2288.59 1548.51 L 2292.87 1565.69 Z " fill="rgb(240,153,89)"/><path d=" M 2287.5 1579.31 C 2285.93 1579.31 2284.15 1579.07 2282.35 1578.51 C 2277.74 1577.08 2269.68 1572.43 2267.55 1557.51 C 2267.46 1556.91 2267.88 1556.35 2268.49 1556.26 C 2269.09 1556.18 2269.65 1556.59 2269.74 1557.2 C 2271.56 1569.96 2277.75 1574.61 2282.62 1576.27 C 2286.6 1577.63 2289.89 1577 2290.72 1576.54 C 2290.77 1576.16 2291.02 1575.82 2291.41 1575.67 C 2291.97 1575.44 2292.62 1575.71 2292.84 1576.28 C 2293.06 1576.84 2292.93 1577.46 2292.49 1577.94 C 2291.72 1578.78 2289.84 1579.31 2287.5 1579.31 Z " fill="rgb(245,206,92)"/><path d=" M 2285.64 1575.03 C 2284.16 1575.03 2282.63 1574.92 2281.16 1574.7 C 2272.59 1573.46 2266.84 1569.11 2265.4 1562.77 C 2265.26 1562.17 2265.64 1561.58 2266.23 1561.44 C 2266.83 1561.31 2267.42 1561.68 2267.55 1562.28 C 2268.93 1568.33 2274.43 1570.9 2278.8 1571.99 C 2284.93 1573.52 2290.69 1572.58 2291.37 1571.78 C 2291.67 1571.25 2292.33 1571.08 2292.87 1571.38 C 2293.4 1571.68 2293.58 1572.37 2293.28 1572.9 C 2292.46 1574.36 2289.24 1575.03 2285.64 1575.03 Z " fill="rgb(245,206,92)"/><path d=" M 2146.13 1363.56 C 2143.63 1363.56 2141.03 1364.96 2138.74 1367.58 C 2135.92 1370.79 2133.93 1375.38 2133.15 1380.49 C 2131.61 1390.55 2135.41 1399.83 2141.46 1400.76 C 2147.5 1401.69 2153.91 1393.96 2155.45 1383.9 C 2156.99 1373.84 2153.19 1364.56 2147.14 1363.63 C 2146.81 1363.58 2146.47 1363.56 2146.13 1363.56 Z  M 2142.5 1404.74 C 2141.96 1404.74 2141.41 1404.69 2140.87 1404.61 C 2132.45 1403.32 2127.37 1392.47 2129.29 1379.9 C 2130.19 1374.06 2132.5 1368.77 2135.8 1365.01 C 2139.32 1361 2143.56 1359.14 2147.73 1359.78 C 2156.15 1361.07 2161.23 1371.92 2159.3 1384.49 C 2157.5 1396.25 2150.31 1404.74 2142.5 1404.74 Z " fill="rgb(255,255,255)"/><path d=" M 2174.67 1368.13 C 2171.42 1368.13 2167.01 1374.38 2165.54 1383.93 C 2164.03 1393.85 2166.61 1401.31 2169.88 1401.81 C 2173.17 1402.3 2177.85 1395.96 2179.37 1386.04 C 2180.09 1381.37 2179.93 1376.86 2178.94 1373.37 C 2178.07 1370.3 2176.64 1368.4 2175.04 1368.16 C 2174.92 1368.14 2174.79 1368.13 2174.67 1368.13 Z  M 2170.24 1404.79 C 2169.97 1404.79 2169.7 1404.77 2169.44 1404.73 C 2163.93 1403.88 2160.94 1394.55 2162.63 1383.48 C 2164.33 1372.41 2169.99 1364.38 2175.48 1365.24 C 2178.32 1365.68 2180.55 1368.28 2181.77 1372.56 C 2182.88 1376.45 2183.06 1381.4 2182.28 1386.49 C 2180.67 1397.02 2175.48 1404.79 2170.24 1404.79 Z " fill="rgb(255,255,255)"/><path d=" M 2133.28 1371.6 C 2133.11 1371.6 2132.93 1371.57 2132.75 1371.52 L 2067.4 1352.85 C 2066.37 1352.56 2065.77 1351.48 2066.06 1350.44 C 2066.36 1349.41 2067.44 1348.81 2068.47 1349.1 L 2133.82 1367.78 C 2134.85 1368.07 2135.45 1369.15 2135.16 1370.18 C 2134.91 1371.04 2134.13 1371.6 2133.28 1371.6 Z " fill="rgb(255,255,255)"/><path d=" M 2179.96 1330.97 C 2078.83 1390.54 2073.27 1350.53 2073.27 1350.53 L 2079.27 1293.63 L 2139.28 1296.97 L 2179.96 1330.97 Z " fill="rgb(48,60,96)"/><path d=" M 2081.1 1363.75 C 2083.45 1373.82 2080.24 1383.18 2073.92 1384.66 C 2067.6 1386.13 2060.58 1379.17 2058.22 1369.1 C 2055.87 1359.03 2059.08 1349.67 2065.4 1348.19 C 2071.72 1346.72 2078.74 1353.69 2081.1 1363.75 Z " fill="rgb(240,153,89)"/><path d=" M 2074.17 1376.98 C 2074.17 1379.18 2072.38 1380.96 2070.18 1380.96 C 2067.99 1380.96 2066.2 1379.18 2066.2 1376.98 C 2066.2 1374.78 2067.99 1373 2070.18 1373 C 2072.38 1373 2074.17 1374.78 2074.17 1376.98 Z " fill="rgb(245,206,92)"/><path d=" M 2854.35 1802.55 L 1842.72 1802.55 C 1837.6 1802.55 1833.45 1798.4 1833.45 1793.28 C 1833.45 1788.16 1837.6 1784.01 1842.72 1784.01 L 2854.35 1784.01 C 2859.47 1784.01 2863.62 1788.16 2863.62 1793.28 C 2863.62 1798.4 2859.47 1802.55 2854.35 1802.55 Z " fill="rgb(46,91,154)"/><path d=" M 2082.51 1782.22 C 2082.51 1782.22 2044.38 1782.71 2043.89 1786.08 C 2043.41 1789.46 2045.34 1790.91 2058.86 1793.33 C 2072.37 1795.74 2224.43 1796.71 2225.88 1795.74 C 2227.33 1794.78 2271.74 1784.15 2271.74 1784.15 L 2165.06 1782.22 L 2082.51 1782.22 Z " fill="rgb(219,229,235)"/><path d=" M 2103.28 1756.84 C 2103.28 1756.84 2130.62 1744.84 2138.62 1750.17 C 2146.62 1755.5 2169.74 1779.96 2169.74 1779.96 L 2103.28 1756.84 Z " fill="rgb(240,153,89)"/><path d=" M 2168.23 1782.13 C 2167.71 1782.78 2166.93 1783.05 2166.5 1782.73 L 2110.24 1740.85 C 2107.21 1738.59 2105.77 1735.14 2107.23 1733.32 C 2108.69 1731.5 2112.37 1732.15 2115.23 1734.61 L 2168.43 1780.31 C 2168.84 1780.67 2168.75 1781.48 2168.23 1782.13 Z " fill="rgb(46,91,154)"/><path d=" M 2020.59 1751.73 C 2020.59 1751.73 2065.94 1769.73 2071.27 1769.73 C 2076.61 1769.73 2106.39 1749.73 2116.39 1752.39 C 2126.39 1755.06 2175.29 1779.73 2173.96 1781.73 C 2172.63 1783.73 2158.62 1788.4 2117.28 1787.07 C 2075.94 1785.73 2008.59 1779.73 2008.59 1779.73 L 2020.59 1751.73 Z " fill="rgb(240,153,89)"/><path d=" M 2588 1784.78 L 2403.19 1784.78 C 2400.46 1784.78 2398.22 1782.54 2398.22 1779.81 L 2398.22 1750.65 C 2398.22 1747.92 2400.46 1745.68 2403.19 1745.68 L 2588 1745.68 C 2594.86 1745.68 2600.48 1751.29 2600.48 1758.15 L 2600.48 1772.3 C 2600.48 1779.16 2594.86 1784.78 2588 1784.78 Z " fill="rgb(243,113,104)"/><path d=" M 2573.71 1752.29 L 2398.24 1752.29 C 2397.01 1754.33 2396.29 1756.71 2396.29 1759.25 L 2396.29 1771.2 C 2396.29 1773.74 2397.01 1776.12 2398.24 1778.16 L 2573.71 1778.16 C 2579.94 1778.16 2585.04 1773.06 2585.04 1766.83 L 2585.04 1763.62 C 2585.04 1757.39 2579.94 1752.29 2573.71 1752.29 Z " fill="rgb(242,229,222)"/><path d=" M 2581.81 1745.68 L 2441.27 1745.68 C 2439.43 1745.68 2437.92 1744.17 2437.92 1742.32 L 2437.92 1725.38 C 2437.92 1723.53 2439.43 1722.02 2441.27 1722.02 L 2581.81 1722.02 C 2586.44 1722.02 2590.23 1725.81 2590.23 1730.45 L 2590.23 1737.25 C 2590.23 1741.89 2586.44 1745.68 2581.81 1745.68 Z " fill="rgb(123,206,232)"/><path d=" M 2570.07 1726.03 L 2437.94 1726.03 C 2437.01 1727.26 2436.47 1728.7 2436.47 1730.24 L 2436.47 1737.46 C 2436.47 1739 2437.01 1740.44 2437.94 1741.67 L 2570.07 1741.67 C 2574.77 1741.67 2578.6 1738.59 2578.6 1734.82 L 2578.6 1732.88 C 2578.6 1729.11 2574.77 1726.03 2570.07 1726.03 Z " fill="rgb(242,229,222)"/><path d=" M 2605.85 1243.74 L 2455.96 1243.74 C 2451.18 1243.74 2448.7 1239.83 2450.43 1235.05 L 2473.1 1172.77 C 2474.84 1167.99 2480.17 1164.08 2484.95 1164.08 L 2634.84 1164.08 C 2639.62 1164.08 2642.11 1167.99 2640.37 1172.77 L 2617.7 1235.05 C 2615.96 1239.83 2610.63 1243.74 2605.85 1243.74 Z " fill="rgb(158,200,255)"/><path d=" M 2600.77 1237.22 L 2465.79 1237.22 C 2461.65 1237.22 2459.49 1233.83 2461 1229.69 L 2479.77 1178.13 C 2481.28 1173.99 2485.89 1170.6 2490.03 1170.6 L 2625.01 1170.6 C 2629.15 1170.6 2631.31 1173.99 2629.8 1178.13 L 2611.03 1229.69 C 2609.53 1233.83 2604.91 1237.22 2600.77 1237.22 Z " fill="rgb(255,255,255)"/><path d=" M 2515.45 1240.12 C 2503.02 1272.94 2483.88 1283.08 2483.88 1283.08 C 2483.88 1283.08 2497.49 1264.25 2495.52 1255.08 C 2493.55 1245.91 2486.26 1242.04 2486.26 1242.04 L 2515.45 1240.12 Z " fill="rgb(158,200,255)"/><path d=" M 2611.61 1188.95 L 2524.6 1188.95 C 2523.17 1188.95 2522.43 1187.78 2522.95 1186.35 L 2522.99 1186.23 C 2523.51 1184.8 2525.1 1183.63 2526.53 1183.63 L 2613.54 1183.63 C 2614.97 1183.63 2615.71 1184.8 2615.19 1186.23 L 2615.15 1186.35 C 2614.63 1187.78 2613.04 1188.95 2611.61 1188.95 Z " fill="rgb(158,200,255)"/><path d=" M 2607.57 1200.05 L 2520.56 1200.05 C 2519.13 1200.05 2518.39 1198.88 2518.91 1197.45 L 2518.95 1197.33 C 2519.47 1195.91 2521.06 1194.74 2522.49 1194.74 L 2609.5 1194.74 C 2610.93 1194.74 2611.67 1195.91 2611.15 1197.33 L 2611.11 1197.45 C 2610.59 1198.88 2609 1200.05 2607.57 1200.05 Z " fill="rgb(158,200,255)"/><path d=" M 2603 1212.6 L 2515.99 1212.6 C 2514.56 1212.6 2513.82 1211.43 2514.34 1210 L 2514.38 1209.88 C 2514.9 1208.46 2516.5 1207.29 2517.92 1207.29 L 2604.94 1207.29 C 2606.36 1207.29 2607.1 1208.46 2606.58 1209.88 L 2606.54 1210 C 2606.02 1211.43 2604.43 1212.6 2603 1212.6 Z " fill="rgb(158,200,255)"/><path d=" M 2511.03 1197.88 C 2507.58 1207.34 2498.53 1215.01 2490.79 1215.01 C 2483.06 1215.01 2479.59 1207.34 2483.03 1197.88 C 2486.48 1188.41 2495.54 1180.74 2503.27 1180.74 C 2511 1180.74 2514.47 1188.41 2511.03 1197.88 Z " fill="rgb(158,200,255)"/><path d=" M 2520.65 1405.69 L 2513.23 1405.69 C 2511.66 1405.69 2510.85 1404.42 2511.42 1402.85 L 2513.65 1396.73 C 2514.22 1395.16 2515.95 1393.89 2517.52 1393.89 L 2524.95 1393.89 C 2526.52 1393.89 2527.33 1395.16 2526.75 1396.73 L 2524.53 1402.85 C 2523.96 1404.42 2522.22 1405.69 2520.65 1405.69 Z " fill="rgb(158,200,255)"/><path d=" M 2544.49 1405.69 L 2537.06 1405.69 C 2535.49 1405.69 2534.68 1404.42 2535.25 1402.85 L 2537.48 1396.73 C 2538.05 1395.16 2539.79 1393.89 2541.35 1393.89 L 2548.78 1393.89 C 2550.35 1393.89 2551.16 1395.16 2550.59 1396.73 L 2548.36 1402.85 C 2547.79 1404.42 2546.06 1405.69 2544.49 1405.69 Z " fill="rgb(158,200,255)"/><path d=" M 2568.32 1405.69 L 2560.9 1405.69 C 2559.33 1405.69 2558.52 1404.42 2559.09 1402.85 L 2561.32 1396.73 C 2561.89 1395.16 2563.62 1393.89 2565.19 1393.89 L 2572.62 1393.89 C 2574.19 1393.89 2575 1395.16 2574.42 1396.73 L 2572.2 1402.85 C 2571.63 1404.42 2569.89 1405.69 2568.32 1405.69 Z " fill="rgb(158,200,255)"/><path d=" M 2426.21 1358.63 L 2276.32 1358.63 C 2271.54 1358.63 2269.06 1354.72 2270.8 1349.94 L 2293.46 1287.66 C 2295.2 1282.88 2300.54 1278.97 2305.31 1278.97 L 2455.2 1278.97 C 2459.98 1278.97 2462.47 1282.88 2460.73 1287.66 L 2438.06 1349.94 C 2436.33 1354.72 2430.99 1358.63 2426.21 1358.63 Z " fill="rgb(158,200,255)"/><path d=" M 2421.13 1352.11 L 2286.15 1352.11 C 2282.01 1352.11 2279.86 1348.72 2281.36 1344.58 L 2300.13 1293.02 C 2301.64 1288.88 2306.26 1285.49 2310.4 1285.49 L 2445.38 1285.49 C 2449.52 1285.49 2451.67 1288.88 2450.17 1293.02 L 2431.4 1344.58 C 2429.89 1348.72 2425.27 1352.11 2421.13 1352.11 Z " fill="rgb(255,255,255)"/><path d=" M 2283.92 1355 C 2272.45 1387.83 2284.21 1397.97 2284.21 1397.97 C 2284.21 1397.97 2284.3 1379.14 2292.95 1369.97 C 2301.6 1360.8 2311.7 1356.94 2311.7 1356.94 L 2283.92 1355 Z " fill="rgb(158,200,255)"/><path d=" M 2384.5 1308.18 L 2311.07 1308.18 C 2309.76 1308.18 2309.08 1307.1 2309.55 1305.79 L 2309.75 1305.26 C 2310.23 1303.95 2311.69 1302.87 2313.01 1302.87 L 2386.43 1302.87 C 2387.74 1302.87 2388.43 1303.95 2387.95 1305.26 L 2387.76 1305.79 C 2387.28 1307.1 2385.81 1308.18 2384.5 1308.18 Z " fill="rgb(158,200,255)"/><path d=" M 2380.46 1319.28 L 2307.03 1319.28 C 2305.72 1319.28 2305.03 1318.21 2305.51 1316.89 L 2305.71 1316.36 C 2306.18 1315.05 2307.65 1313.97 2308.97 1313.97 L 2382.39 1313.97 C 2383.7 1313.97 2384.39 1315.05 2383.91 1316.36 L 2383.72 1316.89 C 2383.24 1318.21 2381.77 1319.28 2380.46 1319.28 Z " fill="rgb(158,200,255)"/><path d=" M 2375.89 1331.83 L 2302.46 1331.83 C 2301.15 1331.83 2300.47 1330.76 2300.94 1329.44 L 2301.14 1328.91 C 2301.62 1327.6 2303.08 1326.52 2304.4 1326.52 L 2377.82 1326.52 C 2379.13 1326.52 2379.82 1327.6 2379.34 1328.91 L 2379.15 1329.44 C 2378.67 1330.76 2377.2 1331.83 2375.89 1331.83 Z " fill="rgb(158,200,255)"/><path d=" M 2562.75 1429.1 L 2418.08 1429.1 C 2415.49 1429.1 2414.14 1428.03 2415.08 1426.71 L 2415.47 1426.18 C 2416.41 1424.87 2419.3 1423.79 2421.89 1423.79 L 2566.56 1423.79 C 2569.15 1423.79 2570.49 1424.87 2569.55 1426.18 L 2569.17 1426.71 C 2568.23 1428.03 2565.34 1429.1 2562.75 1429.1 Z " fill="rgb(158,200,255)"/><path d=" M 2554.79 1447.45 L 2410.12 1447.45 C 2407.53 1447.45 2406.18 1446.37 2407.12 1445.06 L 2407.5 1444.53 C 2408.45 1443.21 2411.34 1442.14 2413.93 1442.14 L 2558.59 1442.14 C 2561.18 1442.14 2562.53 1443.21 2561.59 1444.53 L 2561.21 1445.06 C 2560.27 1446.37 2557.38 1447.45 2554.79 1447.45 Z " fill="rgb(158,200,255)"/><path d=" M 2410 1336.18 L 2399.38 1336.18 C 2394.61 1336.18 2392.12 1332.27 2393.86 1327.49 L 2401.76 1305.77 C 2403.5 1300.99 2408.84 1297.08 2413.62 1297.08 L 2424.24 1297.08 C 2429.02 1297.08 2431.5 1300.99 2429.76 1305.77 L 2421.86 1327.49 C 2420.12 1332.27 2414.78 1336.18 2410 1336.18 Z " fill="rgb(158,200,255)"/><path d=" M 1157.8 1775.34 L 1031.77 1775.56 C 1029.97 1775.57 1028.47 1773.74 1028.36 1771.5 C 1028.26 1769.26 1029.59 1767.31 1031.38 1767.15 L 1156.91 1755.87 C 1167.1 1754.96 1176.38 1758.9 1176.65 1764.72 C 1176.92 1770.54 1168.03 1775.32 1157.8 1775.34 Z " fill="rgb(117,161,222)"/><path d=" M 994.616 1757.49 C 998.96 1756.41 1006.93 1732.63 1006.93 1732.63 C 1006.93 1732.63 915.913 1701.94 877.312 1681.94 L 823.535 1744.15 C 892.613 1761.35 991.394 1758.3 994.616 1757.49 Z " fill="rgb(240,153,89)"/><path d=" M 980.617 1723.22 C 1003.01 1729.01 1038.65 1714.53 1045.31 1715.98 C 1051.97 1717.42 1079.81 1731.91 1086.47 1739.15 C 1093.13 1746.39 1116.74 1768.84 1112.5 1770.28 C 1108.26 1771.73 1078.6 1750.01 1074.97 1749.29 C 1071.34 1748.56 1069.52 1753.63 1039.86 1759.42 C 1010.2 1765.21 974.341 1750.25 974.341 1750.25 L 980.617 1723.22 Z " fill="rgb(240,153,89)"/><path d=" M 1016.25 1745.66 C 1016.25 1745.66 1050.76 1736.97 1054.99 1738.42 C 1059.23 1739.87 1084.96 1745.66 1102.82 1765.94 C 1085.87 1760.87 1061.65 1759.42 1054.99 1759.42 C 1048.33 1759.42 1016.25 1745.66 1016.25 1745.66 Z " fill="rgb(227,133,64)"/><path d=" M 1024.5 1731.18 C 1039.23 1750.01 1076.64 1755.8 1082.3 1762.32 C 1087.97 1768.84 1068.68 1766.07 1058.5 1765.21 C 1032.6 1763.04 1014.5 1773.54 993.53 1767.03 C 972.561 1760.51 967.824 1744.94 967.824 1744.94 L 1024.5 1731.18 Z " fill="rgb(240,153,89)"/><path d=" M 742.026 1397.01 C 733.605 1416.66 750.715 1442.39 777.749 1462.66 C 804.781 1482.94 821.194 1471.83 819.746 1455.9 C 818.298 1439.97 816.85 1423.08 810.574 1412.94 C 804.298 1402.8 754.095 1394.11 754.095 1394.11 C 754.095 1394.11 743.474 1393.63 742.026 1397.01 Z " fill="rgb(255,255,255)"/><path d=" M 774.128 1298.53 L 748.352 1396.98 C 745.817 1403.57 746.513 1410.96 750.23 1416.96 C 760.726 1433.91 783.306 1466.49 799.471 1462.18 C 821.195 1456.39 806.712 1415.84 806.712 1415.84 L 835.676 1313.73 L 774.128 1298.53 Z " fill="rgb(240,153,89)"/><path d=" M 813.62 1304.6 L 787.885 1294.19 L 780.155 1314.29 C 783.701 1399.86 794.602 1434.78 811.339 1444.52 C 812.239 1431.32 806.712 1415.84 806.712 1415.84 L 827.711 1339.8 L 813.62 1304.6 Z " fill="rgb(227,133,64)"/><path d=" M 885.093 1343.18 C 880.075 1377.16 866.684 1406.28 842.41 1402.7 C 818.135 1399.11 776.459 1370.67 781.478 1336.69 C 786.497 1302.7 840.986 1262.01 865.26 1265.59 C 889.534 1269.18 890.113 1309.19 885.093 1343.18 Z " fill="rgb(240,153,89)"/><path d=" M 700.354 1470.91 C 702.289 1463.19 671.375 1458.58 666.457 1464.83 C 617.824 1526.68 542.177 1693.77 559.161 1723.97 C 578.711 1758.72 789.334 1713.08 793.679 1711.99 C 798.022 1710.91 786.075 1678.32 786.075 1678.32 C 786.075 1678.32 668.047 1680.5 648.134 1667.1 C 710.042 1550.89 685.688 1529.39 700.354 1470.91 Z " fill="rgb(240,153,89)"/><path d=" M 587.447 1593.8 C 635.229 1599.96 663.781 1616.6 678.289 1627.96 C 680.47 1624.93 683.107 1621.19 686.024 1616.9 C 675.971 1607.48 654.106 1590.69 622.308 1586.24 C 609.397 1584.44 599.566 1583.27 592.103 1582.53 C 590.341 1586.71 588.781 1590.5 587.447 1593.8 Z " fill="rgb(255,255,255)"/><path d=" M 598.41 1567.9 C 597.591 1569.76 596.798 1571.57 596.031 1573.34 C 638.002 1571.66 678.273 1592.1 688.442 1604.59 C 689.636 1606.05 690.688 1607.34 691.627 1608.49 C 692.68 1606.88 693.751 1605.22 694.833 1603.52 C 687.947 1596.74 675.718 1585.85 663.341 1580.45 C 638.002 1569.39 601.673 1568.01 598.41 1567.9 Z " fill="rgb(255,255,255)"/><path d=" M 879.846 1720.93 L 826.263 1720.93 L 818.298 1620.88 L 888.536 1620.88 L 879.846 1720.93 Z " fill="rgb(117,161,222)"/><path d=" M 779.559 1678.69 C 794.403 1678.32 818.66 1661.31 826.987 1656.6 C 835.314 1651.89 882.38 1641.76 884.553 1646.83 C 886.725 1651.89 845.089 1662.39 845.089 1662.39 L 876.226 1663.84 C 876.226 1663.84 885.277 1677.6 886.001 1686.65 C 886.725 1695.7 883.104 1708.74 883.104 1708.74 L 869.347 1696.43 C 869.347 1696.43 858.124 1702.58 844.003 1710.91 C 829.884 1719.23 804.54 1714.17 793.679 1711.99 C 782.817 1709.82 757.474 1701.86 757.474 1701.86 L 779.559 1678.69 Z " fill="rgb(240,153,89)"/><path d=" M 585.5 1673.98 C 585.5 1673.98 609.516 1660.1 633.653 1663.48 C 647.485 1665.42 648.984 1667.67 648.134 1667.1 C 651.124 1661.49 653.908 1656.1 656.509 1650.92 C 643.934 1651.5 611.696 1654.9 585.5 1673.98 Z " fill="rgb(227,133,64)"/><path d=" M 1343.57 1503.45 L 1343.57 1750.01 C 1343.57 1758.21 1335.84 1764.85 1326.31 1764.85 L 1274.54 1764.85 C 1265.71 1764.85 1258.55 1771.01 1258.55 1778.61 L 1333.05 1778.61 C 1349.09 1778.61 1362.09 1767.43 1362.09 1753.63 L 1362.09 1503.45 L 1343.57 1503.45 Z " fill="rgb(103,145,201)"/><path d=" M 1305.71 1714.61 L 1297.49 1713.04 C 1292.06 1712.01 1288.61 1707.35 1289.81 1702.68 L 1354.23 1452.41 C 1355.44 1447.75 1360.86 1444.77 1366.28 1445.81 L 1374.5 1447.37 C 1379.92 1448.41 1383.38 1453.07 1382.18 1457.73 L 1317.75 1708 C 1316.55 1712.67 1311.13 1715.64 1305.71 1714.61 Z " fill="rgb(149,190,245)"/><path d=" M 1307.95 1715.04 L 1306.99 1714.85 C 1302.8 1714.05 1300.13 1710.45 1301.05 1706.85 L 1366.47 1452.72 C 1367.4 1449.11 1371.59 1446.82 1375.78 1447.62 L 1376.74 1447.8 C 1380.93 1448.6 1383.6 1452.2 1382.67 1455.8 L 1317.26 1709.94 C 1316.33 1713.54 1312.14 1715.83 1307.95 1715.04 Z " fill="rgb(117,161,222)"/><path d=" M 1479.45 1792.89 L 372.833 1792.89 C 367.714 1792.89 363.563 1788.74 363.563 1783.62 C 363.563 1778.5 367.714 1774.35 372.833 1774.35 L 1479.45 1774.35 C 1484.57 1774.35 1488.73 1778.5 1488.73 1783.62 C 1488.73 1788.74 1484.57 1792.89 1479.45 1792.89 Z " fill="rgb(46,91,154)"/><path d=" M 785.286 1256.07 C 735.144 1287.17 766.88 1320.81 753.551 1378.57 C 761.742 1381.38 770.688 1365.24 776.4 1352.55 C 782.113 1339.85 787.19 1321.45 789.094 1322.08 C 790.999 1322.72 794.172 1351.28 794.172 1351.28 L 801.788 1355.09 C 801.788 1355.09 812.579 1336.05 811.945 1331.6 C 811.309 1327.16 802.424 1305.58 813.213 1295.42 C 820.147 1288.9 848.757 1303.04 848.757 1303.04 L 820.83 1263.05 L 785.286 1256.07 Z " fill="rgb(240,153,89)"/><path d=" M 755.469 1378.89 C 754.827 1378.89 754.186 1378.79 753.551 1378.57 C 756.35 1366.44 757.162 1355.38 757.162 1345.18 C 757.162 1331.09 755.614 1318.65 755.614 1307.33 C 755.614 1287.81 760.215 1271.62 785.286 1256.07 L 820.83 1263.05 L 848.757 1303.04 C 848.757 1303.04 829.866 1293.7 819.066 1293.7 C 816.575 1293.7 814.513 1294.2 813.213 1295.42 C 809.188 1299.21 807.901 1304.59 807.903 1310.08 C 807.905 1319.3 811.546 1328.82 811.945 1331.6 C 811.963 1331.73 811.972 1331.88 811.971 1332.03 C 811.956 1337.14 801.788 1355.09 801.788 1355.09 L 794.172 1351.28 C 794.172 1351.28 790.999 1322.72 789.094 1322.08 C 789.062 1322.07 789.029 1322.07 788.995 1322.07 C 787.594 1322.07 784.674 1331.11 781.092 1340.82 C 779.62 1344.81 778.036 1348.91 776.4 1352.55 C 771.131 1364.26 763.111 1378.89 755.469 1378.89 Z " fill="rgb(143,122,122)"/><path d=" M 895.091 1289.71 C 892.552 1320.18 845.326 1310.64 823.369 1283.37 C 802.423 1257.34 785.192 1275.28 764.341 1284 C 729.432 1298.6 768.784 1214.18 839.237 1227.51 C 892.096 1237.51 896.781 1269.43 895.091 1289.71 Z " fill="rgb(46,91,154)"/><path d=" M 790.123 1322.07 C 792.289 1333.43 788.043 1343.78 780.64 1345.2 C 773.236 1346.61 765.479 1338.54 763.313 1327.18 C 761.147 1315.81 765.393 1305.46 772.796 1304.05 C 780.199 1302.63 787.957 1310.7 790.123 1322.07 Z " fill="rgb(240,153,89)"/><path d=" M 1324.13 1389.44 L 1079.04 1389.44 C 1076.24 1389.44 1073.97 1387.17 1073.97 1384.37 L 1073.97 1242.46 C 1073.97 1239.66 1076.24 1237.38 1079.04 1237.38 L 1324.13 1237.38 C 1326.93 1237.38 1329.2 1239.66 1329.2 1242.46 L 1329.2 1384.37 C 1329.2 1387.17 1326.93 1389.44 1324.13 1389.44 Z " fill="rgb(158,200,255)"/><path d=" M 1316.96 1384.78 L 1086.21 1384.78 C 1083.77 1384.78 1081.79 1382.8 1081.79 1380.36 L 1081.79 1266.26 C 1081.79 1263.82 1083.77 1261.84 1086.21 1261.84 L 1316.96 1261.84 C 1319.4 1261.84 1321.38 1263.82 1321.38 1266.26 L 1321.38 1380.36 C 1321.38 1382.8 1319.4 1384.78 1316.96 1384.78 Z " fill="rgb(255,255,255)"/><path d=" M 1091.97 1254.53 L 1086.58 1254.53 C 1085.44 1254.53 1084.51 1253.61 1084.51 1252.47 L 1084.51 1248.03 C 1084.51 1246.89 1085.44 1245.97 1086.58 1245.97 L 1091.97 1245.97 C 1093.1 1245.97 1094.03 1246.89 1094.03 1248.03 L 1094.03 1252.47 C 1094.03 1253.61 1093.1 1254.53 1091.97 1254.53 Z " fill="rgb(255,255,255)"/><path d=" M 1109.26 1254.53 L 1103.87 1254.53 C 1102.74 1254.53 1101.81 1253.61 1101.81 1252.47 L 1101.81 1248.03 C 1101.81 1246.89 1102.74 1245.97 1103.87 1245.97 L 1109.26 1245.97 C 1110.4 1245.97 1111.33 1246.89 1111.33 1248.03 L 1111.33 1252.47 C 1111.33 1253.61 1110.4 1254.53 1109.26 1254.53 Z " fill="rgb(255,255,255)"/><path d=" M 1126.56 1254.53 L 1121.17 1254.53 C 1120.03 1254.53 1119.11 1253.61 1119.11 1252.47 L 1119.11 1248.03 C 1119.11 1246.89 1120.03 1245.97 1121.17 1245.97 L 1126.56 1245.97 C 1127.7 1245.97 1128.62 1246.89 1128.62 1248.03 L 1128.62 1252.47 C 1128.62 1253.61 1127.7 1254.53 1126.56 1254.53 Z " fill="rgb(255,255,255)"/><path d=" M 1090.72 1376.73 L 1312.46 1376.73 L 1312.46 1269.88 L 1090.72 1269.88 L 1090.72 1376.73 Z  M 1313.26 1377.53 L 1089.92 1377.53 L 1089.92 1269.08 L 1313.26 1269.08 L 1313.26 1377.53 Z " fill="rgb(158,200,255)"/><path d=" M 1312.86 1356 L 1090.32 1356 L 1090.32 1355.2 L 1312.86 1355.2 L 1312.86 1356 Z " fill="rgb(158,200,255)"/><path d=" M 1312.86 1334.47 L 1090.32 1334.47 L 1090.32 1333.67 L 1312.86 1333.67 L 1312.86 1334.47 Z " fill="rgb(158,200,255)"/><path d=" M 1312.86 1312.94 L 1090.32 1312.94 L 1090.32 1312.14 L 1312.86 1312.14 L 1312.86 1312.94 Z " fill="rgb(158,200,255)"/><path d=" M 1312.86 1291.41 L 1090.32 1291.41 L 1090.32 1290.61 L 1312.86 1290.61 L 1312.86 1291.41 Z " fill="rgb(158,200,255)"/><path d=" M 1281.46 1377.13 L 1280.67 1377.13 L 1280.67 1269.48 L 1281.46 1269.48 L 1281.46 1377.13 Z " fill="rgb(158,200,255)"/><path d=" M 1249.67 1377.13 L 1248.87 1377.13 L 1248.87 1269.48 L 1249.67 1269.48 L 1249.67 1377.13 Z " fill="rgb(158,200,255)"/><path d=" M 1217.88 1377.13 L 1217.08 1377.13 L 1217.08 1269.48 L 1217.88 1269.48 L 1217.88 1377.13 Z " fill="rgb(158,200,255)"/><path d=" M 1186.09 1377.13 L 1185.29 1377.13 L 1185.29 1269.48 L 1186.09 1269.48 L 1186.09 1377.13 Z " fill="rgb(158,200,255)"/><path d=" M 1154.3 1377.13 L 1153.5 1377.13 L 1153.5 1269.48 L 1154.3 1269.48 L 1154.3 1377.13 Z " fill="rgb(158,200,255)"/><path d=" M 1122.51 1377.13 L 1121.71 1377.13 L 1121.71 1269.48 L 1122.51 1269.48 L 1122.51 1377.13 Z " fill="rgb(158,200,255)"/><path d=" M 1304.53 1283.08 L 1297.05 1283.08 C 1294.19 1283.08 1291.86 1280.74 1291.86 1277.89 C 1291.86 1275.03 1294.19 1272.7 1297.05 1272.7 L 1304.53 1272.7 C 1307.38 1272.7 1309.72 1275.03 1309.72 1277.89 C 1309.72 1280.74 1307.38 1283.08 1304.53 1283.08 Z " fill="rgb(243,152,146)"/><path d=" M 1307.25 1326.52 L 1294.33 1326.52 C 1292.97 1326.52 1291.86 1325.41 1291.86 1324.05 L 1291.86 1318.62 C 1291.86 1317.26 1292.97 1316.15 1294.33 1316.15 L 1307.25 1316.15 C 1308.61 1316.15 1309.72 1317.26 1309.72 1318.62 L 1309.72 1324.05 C 1309.72 1325.41 1308.61 1326.52 1307.25 1326.52 Z " fill="rgb(243,152,146)"/><path d=" M 1146.41 1309.39 L 1128.85 1309.39 C 1126.9 1309.39 1125.32 1307.8 1125.32 1305.86 L 1125.32 1297.59 C 1125.32 1295.65 1126.9 1294.06 1128.85 1294.06 L 1146.41 1294.06 C 1148.35 1294.06 1149.94 1295.65 1149.94 1297.59 L 1149.94 1305.86 C 1149.94 1307.8 1148.35 1309.39 1146.41 1309.39 Z " fill="rgb(158,200,255)"/><path d=" M 1143.93 1307.23 L 1131.32 1307.23 C 1129.92 1307.23 1128.78 1306.09 1128.78 1304.69 L 1128.78 1298.75 C 1128.78 1297.36 1129.92 1296.22 1131.32 1296.22 L 1143.93 1296.22 C 1145.33 1296.22 1146.47 1297.36 1146.47 1298.75 L 1146.47 1304.69 C 1146.47 1306.09 1145.33 1307.23 1143.93 1307.23 Z " fill="rgb(255,255,255)"/><path d=" M 1273.85 1373.83 L 1256.29 1373.83 C 1254.35 1373.83 1252.76 1372.24 1252.76 1370.3 L 1252.76 1362.03 C 1252.76 1360.09 1254.35 1358.5 1256.29 1358.5 L 1273.85 1358.5 C 1275.79 1358.5 1277.38 1360.09 1277.38 1362.03 L 1277.38 1370.3 C 1277.38 1372.24 1275.79 1373.83 1273.85 1373.83 Z " fill="rgb(158,200,255)"/><path d=" M 1271.37 1371.67 L 1258.76 1371.67 C 1257.37 1371.67 1256.23 1370.53 1256.23 1369.14 L 1256.23 1363.2 C 1256.23 1361.8 1257.37 1360.66 1258.76 1360.66 L 1271.37 1360.66 C 1272.77 1360.66 1273.91 1361.8 1273.91 1363.2 L 1273.91 1369.14 C 1273.91 1370.53 1272.77 1371.67 1271.37 1371.67 Z " fill="rgb(255,255,255)"/><path d=" M 1212.21 1298.53 L 1198.45 1298.53 C 1197.52 1298.53 1196.76 1297.76 1196.76 1296.84 C 1196.76 1295.91 1197.52 1295.15 1198.45 1295.15 L 1212.21 1295.15 C 1213.14 1295.15 1213.9 1295.91 1213.9 1296.84 C 1213.9 1297.76 1213.14 1298.53 1212.21 1298.53 Z " fill="rgb(158,200,255)"/><path d=" M 1212.21 1303.83 L 1198.45 1303.83 C 1197.52 1303.83 1196.76 1303.08 1196.76 1302.15 C 1196.76 1301.22 1197.52 1300.46 1198.45 1300.46 L 1212.21 1300.46 C 1213.14 1300.46 1213.9 1301.22 1213.9 1302.15 C 1213.9 1303.08 1213.14 1303.83 1212.21 1303.83 Z " fill="rgb(158,200,255)"/><path d=" M 1181.8 1362.61 L 1168.04 1362.61 C 1167.11 1362.61 1166.35 1361.85 1166.35 1360.92 C 1166.35 1359.99 1167.11 1359.23 1168.04 1359.23 L 1181.8 1359.23 C 1182.73 1359.23 1183.49 1359.99 1183.49 1360.92 C 1183.49 1361.85 1182.73 1362.61 1181.8 1362.61 Z " fill="rgb(158,200,255)"/><path d=" M 1181.8 1367.92 L 1168.04 1367.92 C 1167.11 1367.92 1166.35 1367.16 1166.35 1366.23 C 1166.35 1365.3 1167.11 1364.54 1168.04 1364.54 L 1181.8 1364.54 C 1182.73 1364.54 1183.49 1365.3 1183.49 1366.23 C 1183.49 1367.16 1182.73 1367.92 1181.8 1367.92 Z " fill="rgb(158,200,255)"/><path d=" M 1110.47 1322.42 L 1096.71 1322.42 C 1095.78 1322.42 1095.02 1321.66 1095.02 1320.73 C 1095.02 1319.8 1095.78 1319.04 1096.71 1319.04 L 1110.47 1319.04 C 1111.4 1319.04 1112.16 1319.8 1112.16 1320.73 C 1112.16 1321.66 1111.4 1322.42 1110.47 1322.42 Z " fill="rgb(158,200,255)"/><path d=" M 1110.47 1327.73 L 1096.71 1327.73 C 1095.78 1327.73 1095.02 1326.97 1095.02 1326.04 C 1095.02 1325.11 1095.78 1324.35 1096.71 1324.35 L 1110.47 1324.35 C 1111.4 1324.35 1112.16 1325.11 1112.16 1326.04 C 1112.16 1326.97 1111.4 1327.73 1110.47 1327.73 Z " fill="rgb(158,200,255)"/><path d=" M 1243.34 1298.53 L 1229.59 1298.53 C 1228.66 1298.53 1227.9 1297.76 1227.9 1296.84 C 1227.9 1295.91 1228.66 1295.15 1229.59 1295.15 L 1243.34 1295.15 C 1244.27 1295.15 1245.03 1295.91 1245.03 1296.84 C 1245.03 1297.76 1244.27 1298.53 1243.34 1298.53 Z " fill="rgb(158,200,255)"/><path d=" M 1243.34 1303.83 L 1229.59 1303.83 C 1228.66 1303.83 1227.9 1303.08 1227.9 1302.15 C 1227.9 1301.22 1228.66 1300.46 1229.59 1300.46 L 1243.34 1300.46 C 1244.27 1300.46 1245.03 1301.22 1245.03 1302.15 C 1245.03 1303.08 1244.27 1303.83 1243.34 1303.83 Z " fill="rgb(158,200,255)"/><path d=" M 1148.54 1353.19 L 1128.16 1353.19 C 1126.4 1353.19 1124.95 1351.75 1124.95 1349.99 L 1124.95 1340.83 C 1124.95 1339.07 1126.4 1337.63 1128.16 1337.63 L 1148.54 1337.63 C 1150.3 1337.63 1151.75 1339.07 1151.75 1340.83 L 1151.75 1349.99 C 1151.75 1351.75 1150.3 1353.19 1148.54 1353.19 Z " fill="rgb(156,212,153)"/><path d=" M 1136.91 1350.63 L 1136.85 1350.63 C 1136.41 1350.61 1136 1350.41 1135.71 1350.08 L 1131.9 1345.75 C 1131.31 1345.09 1131.38 1344.08 1132.04 1343.49 C 1132.7 1342.91 1133.71 1342.97 1134.3 1343.64 L 1137 1346.7 L 1143.93 1339.91 C 1144.56 1339.29 1145.58 1339.3 1146.2 1339.94 C 1146.81 1340.57 1146.8 1341.58 1146.17 1342.2 L 1138.03 1350.17 C 1137.73 1350.46 1137.33 1350.63 1136.91 1350.63 Z " fill="rgb(255,255,255)"/><path d=" M 1243.76 1287.66 L 1223.38 1287.66 C 1221.62 1287.66 1220.17 1286.22 1220.17 1284.46 L 1220.17 1275.3 C 1220.17 1273.54 1221.62 1272.1 1223.38 1272.1 L 1243.76 1272.1 C 1245.52 1272.1 1246.96 1273.54 1246.96 1275.3 L 1246.96 1284.46 C 1246.96 1286.22 1245.52 1287.66 1243.76 1287.66 Z " fill="rgb(156,212,153)"/><path d=" M 1232.13 1285.09 L 1232.07 1285.09 C 1231.63 1285.08 1231.22 1284.88 1230.93 1284.55 L 1227.11 1280.22 C 1226.53 1279.56 1226.6 1278.54 1227.26 1277.96 C 1227.92 1277.38 1228.93 1277.44 1229.52 1278.11 L 1232.21 1281.17 L 1239.15 1274.38 C 1239.78 1273.76 1240.8 1273.77 1241.42 1274.41 C 1242.03 1275.04 1242.02 1276.05 1241.39 1276.67 L 1233.25 1284.64 C 1232.95 1284.93 1232.55 1285.09 1232.13 1285.09 Z " fill="rgb(255,255,255)"/><path d=" M 1240.09 1344.87 C 1240.09 1348.87 1236.84 1352.11 1232.84 1352.11 C 1228.85 1352.11 1225.6 1348.87 1225.6 1344.87 C 1225.6 1340.87 1228.85 1337.63 1232.84 1337.63 C 1236.84 1337.63 1240.09 1340.87 1240.09 1344.87 Z " fill="rgb(158,200,255)"/><path d=" M 1146.31 1366.95 C 1146.31 1370.95 1143.07 1374.19 1139.07 1374.19 C 1135.07 1374.19 1131.83 1370.95 1131.83 1366.95 C 1131.83 1362.95 1135.07 1359.71 1139.07 1359.71 C 1143.07 1359.71 1146.31 1362.95 1146.31 1366.95 Z " fill="rgb(158,200,255)"/><path d=" M 1188.3 1454.83 L 1040.49 1454.83 C 1039.1 1454.83 1037.98 1453.7 1037.98 1452.32 L 1037.98 1369.94 C 1037.98 1368.55 1039.1 1367.43 1040.49 1367.43 L 1188.3 1367.43 C 1189.69 1367.43 1190.81 1368.55 1190.81 1369.94 L 1190.81 1452.32 C 1190.81 1453.7 1189.69 1454.83 1188.3 1454.83 Z " fill="rgb(158,200,255)"/><path d=" M 1185.12 1450.98 L 1043.68 1450.98 C 1042.38 1450.98 1041.33 1449.93 1041.33 1448.63 L 1041.33 1373.62 C 1041.33 1372.33 1042.38 1371.28 1043.68 1371.28 L 1185.12 1371.28 C 1186.41 1371.28 1187.46 1372.33 1187.46 1373.62 L 1187.46 1448.63 C 1187.46 1449.93 1186.41 1450.98 1185.12 1450.98 Z " fill="rgb(255,255,255)"/><path d=" M 1180.79 1446.09 L 1048 1446.09 C 1046.55 1446.09 1045.37 1444.91 1045.37 1443.46 L 1045.37 1378.8 C 1045.37 1377.34 1046.55 1376.17 1048 1376.17 L 1180.79 1376.17 C 1182.25 1376.17 1183.42 1377.34 1183.42 1378.8 L 1183.42 1443.46 C 1183.42 1444.91 1182.25 1446.09 1180.79 1446.09 Z " fill="rgb(158,200,255)"/><path d=" M 1138.66 1411.13 C 1138.66 1424.53 1127.8 1435.39 1114.4 1435.39 C 1101 1435.39 1090.14 1424.53 1090.14 1411.13 C 1090.14 1397.73 1101 1386.87 1114.4 1386.87 C 1127.8 1386.87 1138.66 1397.73 1138.66 1411.13 Z " fill="rgb(255,255,255)"/><path d=" M 1135.29 1411.13 C 1135.29 1422.67 1125.94 1432.02 1114.4 1432.02 C 1102.86 1432.02 1093.51 1422.67 1093.51 1411.13 C 1093.51 1399.59 1102.86 1390.24 1114.4 1390.24 C 1125.94 1390.24 1135.29 1399.59 1135.29 1411.13 Z " fill="rgb(158,200,255)"/><path d=" M 1124.69 1410.01 L 1117.06 1414.42 L 1109.42 1418.83 L 1109.42 1410.01 L 1109.42 1401.19 L 1117.06 1405.6 L 1124.69 1410.01 Z " fill="rgb(255,255,255)"/><path d=" M 1028.29 1158.05 L 932.706 1158.05 C 930.316 1158.05 928.361 1156.1 928.361 1153.71 C 928.361 1151.32 930.316 1149.36 932.706 1149.36 L 1028.29 1149.36 C 1030.68 1149.36 1032.63 1151.32 1032.63 1153.71 C 1032.63 1156.1 1030.68 1158.05 1028.29 1158.05 Z " fill="rgb(158,200,255)"/><path d=" M 1278.1 1525.17 L 1182.52 1525.17 C 1180.13 1525.17 1178.17 1523.21 1178.17 1520.82 C 1178.17 1518.43 1180.13 1516.48 1182.52 1516.48 L 1278.1 1516.48 C 1280.49 1516.48 1282.45 1518.43 1282.45 1520.82 C 1282.45 1523.21 1280.49 1525.17 1278.1 1525.17 Z " fill="rgb(158,200,255)"/><path d=" M 1278.1 1541.1 L 1182.52 1541.1 C 1180.13 1541.1 1178.17 1539.14 1178.17 1536.75 C 1178.17 1534.36 1180.13 1532.41 1182.52 1532.41 L 1278.1 1532.41 C 1280.49 1532.41 1282.45 1534.36 1282.45 1536.75 C 1282.45 1539.14 1280.49 1541.1 1278.1 1541.1 Z " fill="rgb(158,200,255)"/><path d=" M 1278.1 1558.48 L 1182.52 1558.48 C 1180.13 1558.48 1178.17 1556.52 1178.17 1554.13 C 1178.17 1551.74 1180.13 1549.79 1182.52 1549.79 L 1278.1 1549.79 C 1280.49 1549.79 1282.45 1551.74 1282.45 1554.13 C 1282.45 1556.52 1280.49 1558.48 1278.1 1558.48 Z " fill="rgb(158,200,255)"/><path d=" M 1089.83 1174.71 L 932.706 1174.71 C 930.316 1174.71 928.361 1172.75 928.361 1170.36 C 928.361 1167.97 930.316 1166.02 932.706 1166.02 L 1089.83 1166.02 C 1092.22 1166.02 1094.18 1167.97 1094.18 1170.36 C 1094.18 1172.75 1092.22 1174.71 1089.83 1174.71 Z " fill="rgb(158,200,255)"/><path d=" M 411.452 1415.5 C 386.472 1438.31 397.333 1461.12 415.796 1503.48 C 434.26 1545.84 437.519 1702.23 437.519 1702.23 L 422.313 1700.06 C 422.313 1700.06 424.485 1539.32 403.85 1495.88 C 383.214 1452.43 374.525 1430.71 356.062 1444.83 C 337.598 1458.95 411.452 1415.5 411.452 1415.5 Z " fill="rgb(116,181,112)"/><path d=" M 343.028 1540.41 C 386.472 1507.82 431.002 1538.23 453.81 1572.99 C 476.618 1607.74 460.327 1685.94 460.327 1685.94 C 460.327 1685.94 451.638 1685.94 451.638 1682.68 C 451.638 1679.43 475.532 1590.37 419.055 1550.18 C 383.724 1525.04 358.233 1537.15 354.976 1549.09 C 351.717 1561.04 369.095 1582.76 369.095 1582.76 L 343.028 1540.41 Z " fill="rgb(116,181,112)"/><path d=" M 442.949 1473.43 C 399.505 1473.43 385.386 1540.77 397.333 1579.87 C 409.28 1618.97 425.572 1691.73 425.572 1691.73 L 436.433 1680.87 C 436.433 1680.87 395.161 1578.78 404.936 1533.16 C 414.711 1487.55 438.604 1479.95 442.949 1479.95 C 447.294 1479.95 442.949 1473.43 442.949 1473.43 Z " fill="rgb(156,212,153)"/><path d=" M 406.512 1580.17 C 403.457 1576.12 399.682 1572.78 395.076 1570.56 C 395.679 1573.79 396.431 1576.91 397.333 1579.87 C 402.776 1597.68 409.121 1622.48 414.417 1644.21 C 414.898 1641.43 415.64 1637.14 416.785 1630.53 C 417.055 1628.96 417.267 1627.27 417.415 1625.47 C 413.161 1611 409.14 1595.24 406.512 1580.17 Z " fill="rgb(116,181,112)"/><path d=" M 394.634 1580.5 C 312.091 1545.74 355.579 1498.05 282.811 1529.54 C 277.685 1531.76 271.438 1537.36 265.184 1545.07 C 271.665 1546.91 279.513 1548.23 288.241 1546.92 C 309.963 1543.66 302.36 1561.04 266.519 1565.39 C 259.763 1566.21 254.282 1567.33 249.724 1568.93 C 232.649 1601.72 224.954 1644.88 261.088 1659.88 C 268.208 1662.83 277.009 1664.52 286.805 1665.15 C 297.956 1656.29 284.084 1605.01 301.274 1612.09 C 317.778 1618.88 296.103 1656.05 299.073 1665.41 C 315.364 1665.12 333.399 1662.46 350.635 1658.19 C 357.456 1654.36 362.663 1649.24 364.268 1642.5 C 369.698 1619.69 333.857 1605.57 332.771 1586.02 C 331.772 1568.05 345.907 1625.56 383.355 1634.03 C 417.218 1618.21 433.218 1596.74 394.634 1580.5 Z " fill="rgb(156,212,153)"/><path d=" M 345.642 1538.56 C 324.402 1554.98 300.808 1574.17 271.845 1587.2 C 242.88 1600.23 248.673 1642.71 248.673 1642.71 C 248.673 1642.71 244.329 1606.03 268.465 1593.47 C 292.602 1580.92 308.532 1565.96 326.876 1563.06 C 345.22 1560.17 355.357 1557.27 355.357 1557.27 C 355.357 1557.27 349.564 1545.68 352.943 1541.34 C 356.323 1537 345.642 1538.56 345.642 1538.56 Z " fill="rgb(116,181,112)"/><path d=" M 240.95 1345.83 C 318.669 1366.59 375.632 1416.31 386.252 1428.38 C 396.872 1440.45 396.872 1443.83 396.872 1443.83 L 388.666 1459.28 L 384.804 1457.34 C 384.804 1457.34 391.079 1444.31 374.667 1427.42 C 346.362 1398.28 311.911 1375.28 288.257 1365.14 C 264.604 1355 240.95 1345.83 240.95 1345.83 Z " fill="rgb(116,181,112)"/><path d=" M 455.482 1776.03 L 425.789 1776.03 C 404.675 1776.03 387.558 1758.91 387.558 1737.8 L 387.558 1669.58 L 493.713 1669.58 L 493.713 1737.8 C 493.713 1758.91 476.597 1776.03 455.482 1776.03 Z " fill="rgb(243,152,146)"/></g><path d=" M 2736.38 1733.087 C 2736.38 1729.845 2775.42 1621.931 2749.02 1552.462 C 2730.54 1503.819 2727.62 1445.448 2727.62 1445.448 C 2727.62 1445.448 2691.63 1497.009 2715.95 1575.81 C 2730.92 1624.311 2737.03 1637.748 2738.32 1652.016 C 2739.62 1666.285 2732.49 1737.627 2732.49 1737.627 L 2736.38 1733.087 Z " fill="rgb(156,212,153)"/><path d=" M 2726.67 1449.262 C 2723.71 1454.361 2717.97 1465.522 2713.8 1481.495 C 2708.42 1502.07 2704.63 1535.074 2717.09 1575.456 C 2722.15 1591.842 2726.16 1604.122 2729.39 1613.99 C 2735.75 1633.448 2738.65 1642.328 2739.52 1651.908 C 2740.65 1664.391 2735.52 1718.867 2734.05 1733.955 L 2735.24 1732.572 C 2735.38 1731.858 2735.8 1730.435 2736.86 1726.868 C 2759.41 1651.487 2763.13 1592.952 2747.9 1552.888 C 2732.24 1511.679 2727.69 1462.978 2726.67 1449.262 Z  M 2732.49 1738.827 C 2732.33 1738.827 2732.17 1738.796 2732.01 1738.731 C 2731.53 1738.525 2731.24 1738.03 2731.29 1737.508 C 2731.36 1736.796 2738.4 1666.118 2737.13 1652.125 C 2736.28 1642.815 2733.41 1634.016 2727.11 1614.735 C 2723.88 1604.86 2719.86 1592.569 2714.8 1576.164 C 2702.15 1535.188 2706.03 1501.674 2711.5 1480.774 C 2717.45 1458.088 2726.27 1445.294 2726.64 1444.761 C 2726.93 1444.34 2727.46 1444.153 2727.95 1444.294 C 2728.45 1444.436 2728.79 1444.876 2728.82 1445.388 C 2728.85 1445.97 2731.94 1504.136 2750.15 1552.035 C 2760.02 1578.014 2762 1612.271 2756.04 1653.856 C 2751.28 1687.058 2742.79 1715.437 2739.16 1727.555 C 2738.34 1730.317 2737.62 1732.702 2737.58 1733.141 C 2737.58 1733.428 2737.48 1733.651 2737.29 1733.868 L 2733.4 1738.409 C 2733.16 1738.68 2732.83 1738.827 2732.49 1738.827 Z " fill="rgb(116,181,112)"/><path d=" M 2744.81 1744.113 C 2738.97 1624.128 2767.51 1558.623 2825.88 1506.738 C 2884.25 1454.852 2886.84 1441.232 2886.84 1441.232 C 2886.84 1441.232 2877.76 1542.409 2844.04 1577.431 C 2810.31 1612.454 2761.02 1638.397 2753.89 1656.556 C 2746.75 1674.716 2749.35 1735.681 2749.35 1735.681 L 2744.81 1746.707 L 2744.81 1744.113 Z " fill="rgb(156,212,153)"/><path d=" M 2737.67 1754.49 C 2737.03 1752.544 2750 1642.288 2797.34 1635.803 C 2844.69 1629.317 2855.71 1640.343 2888.14 1635.154 C 2911.28 1631.452 2929 1624.128 2929 1624.128 C 2929 1624.128 2916.72 1655.389 2874.52 1668.231 C 2844.69 1677.311 2805.77 1662.393 2783.07 1666.285 C 2760.37 1670.177 2748.7 1718.819 2748.7 1718.819 L 2744.81 1744.113 L 2737.67 1754.49 Z " fill="rgb(156,212,153)"/><path d=" M 2744.16 1738.179 C 2743.55 1738.179 2743.02 1737.712 2742.97 1737.089 C 2742.89 1736.314 2736.18 1658.855 2769.05 1599.55 C 2786.04 1568.915 2804.58 1551.162 2822.51 1533.993 C 2839.22 1517.999 2855 1502.891 2866.96 1478.961 C 2867.26 1478.368 2867.98 1478.13 2868.57 1478.425 C 2869.17 1478.721 2869.41 1479.442 2869.11 1480.034 C 2856.96 1504.337 2841.03 1519.584 2824.17 1535.726 C 2806.37 1552.772 2787.96 1570.397 2771.15 1600.713 C 2738.64 1659.36 2745.28 1736.1 2745.35 1736.868 C 2745.42 1737.528 2744.93 1738.113 2744.27 1738.174 L 2744.16 1738.179 Z " fill="rgb(116,181,112)"/><path d=" M 2740.92 1722.614 C 2740.81 1722.614 2740.69 1722.598 2740.58 1722.565 C 2739.95 1722.381 2739.58 1721.715 2739.76 1721.079 C 2752.18 1678.287 2766.43 1653.321 2784.6 1642.509 C 2800.85 1632.841 2817.65 1635.808 2835.43 1638.95 C 2839.78 1639.719 2844.28 1640.514 2848.74 1641.098 C 2887.37 1646.166 2906.22 1636.777 2906.4 1636.681 C 2906.99 1636.38 2907.71 1636.611 2908.02 1637.199 C 2908.32 1637.787 2908.09 1638.51 2907.5 1638.814 C 2906.72 1639.219 2887.91 1648.657 2848.42 1643.478 C 2843.92 1642.887 2839.39 1642.087 2835.01 1641.313 C 2817.68 1638.251 2801.32 1635.359 2785.83 1644.571 C 2768.21 1655.054 2754.3 1679.577 2742.07 1721.747 C 2741.92 1722.272 2741.44 1722.614 2740.92 1722.614 Z " fill="rgb(116,181,112)"/><path d=" M 2802.86 1556.256 C 2802.5 1556.256 2802.14 1556.095 2801.91 1555.788 C 2801.5 1555.264 2801.6 1554.511 2802.12 1554.106 C 2802.35 1553.929 2825.42 1536.348 2857.43 1530.204 C 2858.08 1530.081 2858.71 1530.506 2858.84 1531.157 C 2858.96 1531.807 2858.54 1532.436 2857.89 1532.561 C 2826.43 1538.599 2803.81 1555.833 2803.59 1556.006 C 2803.37 1556.174 2803.11 1556.256 2802.86 1556.256 Z " fill="rgb(116,181,112)"/><path d=" M 2766.21 1608.466 C 2766 1608.466 2765.79 1608.411 2765.6 1608.298 C 2765.03 1607.96 2764.84 1607.223 2765.18 1606.653 C 2782.07 1578.173 2801.85 1570.996 2844.98 1557.478 C 2845.61 1557.278 2846.28 1557.632 2846.48 1558.264 C 2846.68 1558.896 2846.33 1559.57 2845.7 1559.768 C 2803.17 1573.096 2783.68 1580.156 2767.24 1607.878 C 2767.02 1608.256 2766.62 1608.466 2766.21 1608.466 Z " fill="rgb(116,181,112)"/><path d=" M 2755.72 1784 L 2726.76 1784 C 2716.53 1784 2707.75 1776.735 2705.83 1766.691 L 2696.49 1717.846 L 2785.99 1717.846 L 2776.65 1766.691 C 2774.73 1776.735 2765.95 1784 2755.72 1784 Z " fill="rgb(243,152,146)"/></g></svg>