<svg id="Layer_1" data-name="Layer 1" xmlns="http://www.w3.org/2000/svg" viewBox="0 0 1066.73 664.63"><defs><style>.cls-1{fill:#f3f3ff;}.cls-2{fill:#01203a;}.cls-3{fill:#a4b1f4;}.cls-4{fill:#495abf;}.cls-5{fill:#6e75f4;}.cls-6{fill:#adadea;}.cls-7{fill:#ffa81d;}</style></defs><path class="cls-1" d="M1138,643.73V123.08A65.15,65.15,0,0,0,1072.78,58H290.12a65.15,65.15,0,0,0-65.23,65.08V643.73Z" transform="translate(-149.27 -55)"/><path class="cls-2" d="M1134.11,649.71H230.89a5.91,5.91,0,0,1-5.89-5.92V125.68c0-39,31.59-70.68,70.41-70.68h774.18A70.62,70.62,0,0,1,1140,125.68V643.79A5.91,5.91,0,0,1,1134.11,649.71Zm-903.25-12h903.55V120.39A59.5,59.5,0,0,0,1075,61H290.29a59.5,59.5,0,0,0-59.43,59.44Z" transform="translate(-149.27 -55)"/><path class="cls-3" d="M1111,133.86c0-34.37-18.78-45.86-52.71-45.86h-758C266.34,88,251,99.49,251,133.86v97.47h860Z" transform="translate(-149.27 -55)"/><path class="cls-2" d="M1110,237.31H255.31a6,6,0,0,1-6-6V135.68c0-35.74,16.43-51,54.93-51h753.31c25.05,0,58.36,5.28,58.36,51v95.65A6,6,0,0,1,1110,237.31ZM255,231h855V133.45c0-30.55-13.2-42.45-47.09-42.45H298.62C266,91,255,101.71,255,133.45Z" transform="translate(-149.27 -55)"/><rect class="cls-1" x="106.03" y="176.33" width="854.66" height="412.4"/><path class="cls-2" d="M1110,649.71H255.31a6,6,0,0,1-6-6V231.33a6,6,0,0,1,6-6H1110a6,6,0,0,1,6,6v412.4A6,6,0,0,1,1110,649.71ZM255,644h855V231H255Z" transform="translate(-149.27 -55)"/><path class="cls-1" d="M-320,975" transform="translate(-149.27 -55)"/><path class="cls-1" d="M224.89,713.66h915.49s69.65,0,69.65-69.92H155.24C155.24,713.66,224.89,713.66,224.89,713.66Z" transform="translate(-149.27 -55)"/><path class="cls-2" d="M1140.38,719.63H224.89c-.75,0-75.62-.87-75.62-75.89a6,6,0,0,1,6-6H1210a6,6,0,0,1,6,6C1216,718.76,1141.13,719.63,1140.38,719.63ZM155,644c3.76,69.18,61.65,70,64.19,70h925.62c2.53,0,60.41-1.08,64.19-70Z" transform="translate(-149.27 -55)"/><path class="cls-2" d="M359.55,162.17a19,19,0,1,1-19-19A19,19,0,0,1,359.55,162.17Z" transform="translate(-149.27 -55)"/><path class="cls-4" d="M426.8,162.17a19,19,0,1,1-19-19A19,19,0,0,1,426.8,162.17Z" transform="translate(-149.27 -55)"/><path class="cls-1" d="M494,162.17a19,19,0,1,1-19-19A19,19,0,0,1,494,162.17Z" transform="translate(-149.27 -55)"/><path class="cls-2" d="M306.3,678.46H243.85c-3.3,0-6-1.42-6-3.16s2.67-3.16,6-3.16H306.3c3.3,0,6,1.41,6,3.16S309.6,678.46,306.3,678.46Z" transform="translate(-149.27 -55)"/><path class="cls-2" d="M1109.61,678.46h-711c-3.3,0-6-1.45-6-3.23s2.67-3.23,6-3.23h711.05c3.3,0,6,1.44,6,3.23S1112.91,678.46,1109.61,678.46Z" transform="translate(-149.27 -55)"/><path class="cls-5" d="M610.06,341.42H500.92a6.64,6.64,0,0,1,0-13.28H610.06a6.64,6.64,0,1,1,0,13.28Z" transform="translate(-149.27 -55)"/><path class="cls-2" d="M552.65,373.28H500.92a6.64,6.64,0,0,1,0-13.28h51.73a6.64,6.64,0,0,1,0,13.28Z" transform="translate(-149.27 -55)"/><path class="cls-4" d="M532.93,402.45h-32a6.65,6.65,0,0,1,0-13.29h32a6.65,6.65,0,0,1,0,13.29Z" transform="translate(-149.27 -55)"/><path class="cls-2" d="M610.06,373.28H584.74a6.64,6.64,0,0,1,0-13.28h25.32a6.64,6.64,0,1,1,0,13.28Z" transform="translate(-149.27 -55)"/><path class="cls-4" d="M611.06,473.91H501.92a6.64,6.64,0,0,1,0-13.28H611.06a6.64,6.64,0,1,1,0,13.28Z" transform="translate(-149.27 -55)"/><path class="cls-2" d="M553.65,505.77H501.92a6.64,6.64,0,0,1,0-13.28h51.73a6.64,6.64,0,0,1,0,13.28Z" transform="translate(-149.27 -55)"/><path class="cls-5" d="M533.93,534.94h-32a6.64,6.64,0,1,1,0-13.28h32a6.64,6.64,0,0,1,0,13.28Z" transform="translate(-149.27 -55)"/><path class="cls-6" d="M611.06,505.77H585.74a6.64,6.64,0,0,1,0-13.28h25.32a6.64,6.64,0,1,1,0,13.28Z" transform="translate(-149.27 -55)"/><path class="cls-2" d="M467.91,366.64A48.59,48.59,0,1,1,419.32,318,48.59,48.59,0,0,1,467.91,366.64Z" transform="translate(-149.27 -55)"/><path class="cls-2" d="M468.91,507.58A48.59,48.59,0,1,1,420.32,459,48.59,48.59,0,0,1,468.91,507.58Z" transform="translate(-149.27 -55)"/><path class="cls-7" d="M388.58,393.28a5.9,5.9,0,0,0,5.92,5.87l49.52-.24a5.9,5.9,0,0,0,5.87-5.93L442,341.14l-7.41,0c0-.21,0-.42,0-.63a15.6,15.6,0,1,0-31.19.16c0,.21,0,.41,0,.63l-8.2,0Zm18.28-52c0-.21,0-.42,0-.63a12.13,12.13,0,0,1,24.26-.12c0,.21,0,.42,0,.63Z" transform="translate(-149.27 -55)"/><path class="cls-7" d="M389.58,535.53a5.9,5.9,0,0,0,5.92,5.87l49.52-.24a5.9,5.9,0,0,0,5.87-5.93L443,483.39l-7.41,0c0-.21,0-.42,0-.62a15.6,15.6,0,1,0-31.19.15c0,.21,0,.42,0,.63l-8.2,0Zm18.28-52c0-.21,0-.42,0-.63a12.13,12.13,0,0,1,24.26-.12c0,.21,0,.42,0,.63Z" transform="translate(-149.27 -55)"/><path class="cls-5" d="M975.44,342.33H866.31a6.64,6.64,0,0,1,0-13.28H975.44a6.64,6.64,0,0,1,0,13.28Z" transform="translate(-149.27 -55)"/><path class="cls-2" d="M918,374.19H866.31a6.64,6.64,0,0,1,0-13.28H918a6.64,6.64,0,0,1,0,13.28Z" transform="translate(-149.27 -55)"/><path class="cls-4" d="M898.31,403.35h-32a6.64,6.64,0,1,1,0-13.28h32a6.64,6.64,0,1,1,0,13.28Z" transform="translate(-149.27 -55)"/><path class="cls-2" d="M975.44,374.19H950.12a6.64,6.64,0,0,1,0-13.28h25.32a6.64,6.64,0,0,1,0,13.28Z" transform="translate(-149.27 -55)"/><path class="cls-4" d="M976.44,474.82H867.31a6.64,6.64,0,0,1,0-13.28H976.44a6.64,6.64,0,0,1,0,13.28Z" transform="translate(-149.27 -55)"/><path class="cls-4" d="M919,506.68H867.31a6.64,6.64,0,1,1,0-13.28H919a6.64,6.64,0,0,1,0,13.28Z" transform="translate(-149.27 -55)"/><path class="cls-5" d="M899.31,535.84h-32a6.64,6.64,0,1,1,0-13.28h32a6.64,6.64,0,1,1,0,13.28Z" transform="translate(-149.27 -55)"/><path class="cls-6" d="M976.44,506.68H951.12a6.64,6.64,0,0,1,0-13.28h25.32a6.64,6.64,0,0,1,0,13.28Z" transform="translate(-149.27 -55)"/><path class="cls-2" d="M833.3,367.55a48.6,48.6,0,1,1-48.59-48.61A48.61,48.61,0,0,1,833.3,367.55Z" transform="translate(-149.27 -55)"/><path class="cls-2" d="M834.3,508.49a48.6,48.6,0,1,1-48.59-48.61A48.61,48.61,0,0,1,834.3,508.49Z" transform="translate(-149.27 -55)"/><path class="cls-7" d="M754,394.19a5.9,5.9,0,0,0,5.92,5.87l49.51-.25a5.9,5.9,0,0,0,5.87-5.92L807.35,342l-7.41,0c0-.21,0-.42,0-.63a15.6,15.6,0,1,0-31.19.16c0,.2,0,.41,0,.62l-8.19,0Zm18.28-52c0-.2,0-.41,0-.62a12.13,12.13,0,1,1,24.26-.12c0,.21,0,.42,0,.63Z" transform="translate(-149.27 -55)"/><path class="cls-7" d="M755,536.44a5.9,5.9,0,0,0,5.92,5.87l49.51-.25a5.88,5.88,0,0,0,5.87-5.92l-7.92-51.84-7.41,0c0-.21,0-.42,0-.63a15.6,15.6,0,1,0-31.19.16c0,.2,0,.41,0,.62l-8.19,0Zm18.28-52c0-.2,0-.41,0-.62a12.13,12.13,0,1,1,24.26-.12c0,.21,0,.42,0,.63Z" transform="translate(-149.27 -55)"/></svg>