<svg id="Layer_1" data-name="Layer 1" xmlns="http://www.w3.org/2000/svg" viewBox="0 0 1340 648.78"><defs><style>.cls-1{fill:#f3f3ff;}.cls-2{fill:#e89c35;}.cls-3{fill:#01203a;}.cls-4{fill:none;stroke:#c6e100;stroke-miterlimit:10;}.cls-5{fill:#445bc5;}</style></defs><path class="cls-1" d="M1177.57,256.29a48.18,48.18,0,0,0-4.18,11.14c-6.31,26.44,12.11,50.11,16.72,55.74,15.17,35,27.25,62.62,34.66,79.52,28.89,65.89,37.39,84.29,57.13,92,9.13,3.56,30.22,8.53,65.49-11.14-60-115-80.83-158.16-83.43-167.31a153.38,153.38,0,0,0-8.55-22.85c-1.16-2.48-2.46-5-4-7.8-7.77-14-16.91-29.51-34.19-34.92S1183.78,252.9,1177.57,256.29Z" transform="translate(-13 -59.93)"/><path class="cls-1" d="M1071.36,378.94a48.18,48.18,0,0,0-4.18,11.14c-6.31,26.44,12.11,50.11,16.72,55.74.64,3.45,7,35,37.62,50.16,28.16,13.92,54.72,3,58.52,1.39-10.29-24.59-17.55-44.66-22.29-58.52-4.08-11.91-6.47-19.75-12.54-30.65-7.77-14-16.91-29.52-34.19-34.92S1077.57,375.55,1071.36,378.94Z" transform="translate(-13 -59.93)"/><path class="cls-1" d="M941.54,538.33a52.13,52.13,0,0,0-3.83,11.16c-5.83,26.46,10.75,50,14.9,55.66.56,3.45,6.18,35,33.86,50,25.44,13.8,49.53,2.8,53,1.14-9.22-24.54-15.71-44.58-19.94-58.41-3.64-11.89-5.78-19.72-11.23-30.6-7-13.94-15.19-29.43-30.82-34.77S947.18,534.92,941.54,538.33Z" transform="translate(-13 -59.93)"/><path class="cls-1" d="M829,586.49l-25,71.19,71.47,3.76a48,48,0,0,0,1.3-12.55,50,50,0,0,0-4.83-19.47c-14.16-32.18-12.15-40.06-20.72-44.46C848.11,583.39,841.05,580.92,829,586.49Z" transform="translate(-13 -59.93)"/><path class="cls-1" d="M75.26,550.39Q47.39,606.12,19.53,661.86c-.13,13.35,2,30.79,13.93,40.4,16.17,13,39.94,3.3,82.21-2.78,27.15-3.91,54.81-2.62,82.2-4.18,40.4-2.31,106.21-2.76,217.37,5.57,93.07,4.5,118.91-12,125.4-27.87,10-24.53-1.39-108.44,2-112.69a5.93,5.93,0,0,0,1.52-4.29,4.76,4.76,0,0,0-.76-1.89C522.94,524.92,405.48,542,405.48,542,340.57,551.48,239.94,558,75.26,550.39Z" transform="translate(-13 -59.93)"/><path class="cls-1" d="M521.13,66.89Q401.51,308.36,281.87,549.81l792.19,6.55c21.33-60,42.63-108.87,59.59-144.9,19.75-41.94,40.79-81.77,51.09-101.28,31.15-59,38.06-67.24,51.1-99.87,15.55-38.93,13-45.37,27-66.12,10.55-15.7,22-26.84,19.86-42.2-1.91-13.86-13.73-22.81-17.05-25.33-21.13-16-44.14-2.22-96.59-4.26-15.48-.6-15.81-1.83-39-4.11-47.09-4.63-81.92-3.12-128.19-1.4-42.26,1.58-84.57,2-126.8,4.18C812.86,74.32,707.86,75.73,521.13,66.89Z" transform="translate(-13 -59.93)"/><path class="cls-1" d="M510,235.49,285.66,707.84l494.63-7Q879.92,486.3,979.54,271.72c1.72-4.22,3.44-10.46,1.4-16.72C970.64,223.36,876.8,228.37,797,231.31,731.38,233.73,633.84,236.27,510,235.49Z" transform="translate(-13 -59.93)"/><path class="cls-2" d="M311.74,457l-48,98.93h89.77q19.62-47.48,39.23-95Z" transform="translate(-13 -59.93)"/><path class="cls-2" d="M215.6,457l-48,98.93h89.76l39.24-95Z" transform="translate(-13 -59.93)"/><path class="cls-2" d="M123.93,457Q99.95,506.5,76,556h89.77L205,461Z" transform="translate(-13 -59.93)"/><path class="cls-2" d="M365.47,333.14,312.35,450.41l93.47,2.49,43.89-112.77Z" transform="translate(-13 -59.93)"/><path class="cls-2" d="M271.12,335.16,218,452.43l93.47,2.5,43.89-112.77Z" transform="translate(-13 -59.93)"/><path class="cls-2" d="M182.67,337.2Q156.74,395,130.78,452.85h97.1l42.45-111Z" transform="translate(-13 -59.93)"/><path class="cls-2" d="M417.6,227.48,362.14,334.26l94.62,4.25q23-51.42,46.06-102.83Z" transform="translate(-13 -59.93)"/><path class="cls-2" d="M320.15,232.7,269.63,337.2h94.53q20.67-50.15,41.32-100.31Z" transform="translate(-13 -59.93)"/><path class="cls-2" d="M230.57,231.31q-23.31,50.16-46.63,100.32H271.2l38.14-96.3Z" transform="translate(-13 -59.93)"/><path class="cls-3" d="M27.3,706.85q-6.19-16.33-12.37-32.67l-.33-.86L14,671.61a9.46,9.46,0,0,1,8.38-4.06l13.79,35.91c.17.43-1.68,1.53-4.11,2.47S27.46,707.28,27.3,706.85Z" transform="translate(-13 -59.93)"/><path class="cls-3" d="M951.68,237.28H243.85c-8.46,0-15.32-2.89-15.32-6.47s6.86-6.47,15.32-6.47H951.68c8.46,0,15.32,2.9,15.32,6.47S960.14,237.28,951.68,237.28Z" transform="translate(-13 -59.93)"/><path class="cls-3" d="M237.16,238.75,25.68,667.27c-2.53,5.13-7,8.06-10.09,6.56s-3.47-6.88-.94-12L226.13,233.31c2.53-5.13,7.05-8.06,10.09-6.56S239.69,233.63,237.16,238.75Z" transform="translate(-13 -59.93)"/><path class="cls-3" d="M957.54,237.76,762.18,669c-2.34,5.15-6.92,8.11-10.24,6.61s-4.11-6.9-1.78-12.06l195.36-431.2c2.34-5.15,6.92-8.11,10.24-6.61S959.87,232.6,957.54,237.76Z" transform="translate(-13 -59.93)"/><path class="cls-3" d="M762.18,677.18H29.81c-8.76,0-15.86-2.8-15.86-6.27s7.1-6.27,15.86-6.27H762.18" transform="translate(-13 -59.93)"/><path class="cls-3" d="M318.63,238.25,121.31,665.67c-2.36,5.11-6.82,8.08-10,6.63s-3.78-6.77-1.42-11.88L307.24,233c2.36-5.11,6.83-8.08,10-6.62S321,233.14,318.63,238.25Z" transform="translate(-13 -59.93)"/><path class="cls-3" d="M411.78,241.25,215.37,666.69c-2.35,5.09-6.8,8-9.94,6.58s-3.79-6.75-1.45-11.84L400.39,236c2.35-5.08,6.8-8,9.95-6.58S414.12,236.16,411.78,241.25Z" transform="translate(-13 -59.93)"/><path class="cls-3" d="M508,238.69,310.88,665.61c-2.36,5.1-6.82,8.06-10,6.61s-3.78-6.76-1.43-11.87L496.58,233.44c2.35-5.1,6.81-8.07,10-6.62S510.32,233.59,508,238.69Z" transform="translate(-13 -59.93)"/><path class="cls-3" d="M598.18,239.34l-198.06,429c-2.37,5.13-6.84,8.11-10,6.66s-3.77-6.79-1.4-11.92l198.06-429c2.37-5.13,6.84-8.11,10-6.66S600.55,234.21,598.18,239.34Z" transform="translate(-13 -59.93)"/><path class="cls-3" d="M696.09,241.21,500.41,665.06c-2.33,5.07-6.78,8-9.92,6.55s-3.8-6.73-1.46-11.8L684.7,236c2.34-5.07,6.79-8,9.93-6.55S698.43,236.15,696.09,241.21Z" transform="translate(-13 -59.93)"/><path class="cls-3" d="M782.91,241.31,585.16,669.66c-2.36,5.12-6.83,8.09-10,6.64s-3.78-6.78-1.41-11.9L771.52,236.06c2.37-5.13,6.83-8.1,10-6.65S785.27,236.19,782.91,241.31Z" transform="translate(-13 -59.93)"/><path class="cls-3" d="M876.14,242.8,680.24,667.13c-2.34,5.07-6.79,8-9.93,6.56s-3.79-6.74-1.45-11.82L864.75,237.55c2.34-5.07,6.79-8,9.93-6.56S878.48,237.73,876.14,242.8Z" transform="translate(-13 -59.93)"/><path class="cls-3" d="M890.42,341.4h-697c-8.34,0-15.09-2.81-15.09-6.27s6.75-6.27,15.09-6.27h697c8.33,0,15.08,2.81,15.08,6.27S898.75,341.4,890.42,341.4Z" transform="translate(-13 -59.93)"/><path class="cls-3" d="M121.24,450.47H840.48c8.59,0,15.57,2.81,15.57,6.27s-7,6.27-15.57,6.27H121.24" transform="translate(-13 -59.93)"/><path class="cls-3" d="M73.87,550H794c8.6,0,15.59,2.81,15.59,6.27s-7,6.27-15.59,6.27H73.87" transform="translate(-13 -59.93)"/><path class="cls-3" d="M1199.4,180.16H475.5c-8.66,0-15.68-2.81-15.68-6.27s7-6.27,15.68-6.27h723.9c8.65,0,15.67,2.81,15.67,6.27S1208.05,180.16,1199.4,180.16Z" transform="translate(-13 -59.93)"/><path class="cls-3" d="M1156,300.45H971.1c-2.21,0-4-2.81-4-6.27s1.79-6.27,4-6.27H1156c2.21,0,4,2.8,4,6.27S1158.17,300.45,1156,300.45Z" transform="translate(-13 -59.93)"/><path class="cls-3" d="M772.34,702.08l199.6-440.56c2.38-5.26,7.16-8.24,10.67-6.65s4.43,7.15,2,12.41L785.05,707.84" transform="translate(-13 -59.93)"/><path class="cls-3" d="M784.47,708.54,27.88,707.13q0-5.76,0-11.52L784.49,697" transform="translate(-13 -59.93)"/><path class="cls-3" d="M975.45,264.05l-19.18-27.46c-.23-.33,1.89-2.2,4.73-4.18s5.33-3.33,5.55-3l19.18,27.46c.23.33-1.89,2.2-4.73,4.18S975.68,264.38,975.45,264.05Z" transform="translate(-13 -59.93)"/><path class="cls-3" d="M776.73,708.36l-24.47-35.05c-.29-.42,1.77-2.36,4.61-4.34s5.38-3.25,5.67-2.84l24.47,35c.29.42-1.77,2.36-4.61,4.34S777,708.77,776.73,708.36Z" transform="translate(-13 -59.93)"/><path class="cls-3" d="M1046.32,666H977.14c-.82,0-1.49-2.85-1.49-6.35s.67-6.35,1.49-6.35h69.18c.83,0,1.5,2.85,1.5,6.35S1047.15,666,1046.32,666Z" transform="translate(-13 -59.93)"/><path class="cls-3" d="M932,394.26l120.65,262.67a6.58,6.58,0,0,1-11.94,5.48L920.06,399.74A6.58,6.58,0,0,1,932,394.26Z" transform="translate(-13 -59.93)"/><path class="cls-3" d="M896.73,463.87,986.1,658.44c1.07,2.32-.78,5.45-4.12,7s-6.91.89-8-1.44L884.63,469.43c-1.07-2.33.77-5.46,4.11-7S895.66,461.54,896.73,463.87Z" transform="translate(-13 -59.93)"/><path class="cls-3" d="M881.91,670,835.83,569.72c-.55-1.2,1.52-3.33,4.63-4.76s6.08-1.62,6.63-.42l45.85,99.64" transform="translate(-13 -59.93)"/><path class="cls-3" d="M884.23,670.35l-86.62-.52c-1.1,0-2-2.72-2-6.08s.89-6.07,2-6.07l91.24.77,1.34.62A18.63,18.63,0,0,1,892,662a6.21,6.21,0,0,1,1,3c-.1,1.94-2,3.26-2.81,3.82A9.45,9.45,0,0,1,884.23,670.35Z" transform="translate(-13 -59.93)"/><path class="cls-3" d="M517,59.93h733.74c8.77,0,15.88,3.12,15.88,7s-7.11,7-15.88,7H517" transform="translate(-13 -59.93)"/><path class="cls-3" d="M527,68,445.86,232.44c-1,2-4.64,2.14-8.18.39S432,228.06,433,226.1L514.18,61.63c1-2,4.63-2.14,8.18-.39S528,66,527,68Z" transform="translate(-13 -59.93)"/><path class="cls-3" d="M1261.56,74.41,1062.8,513.12c-2.38,5.25-7.36,8.11-11.13,6.41s-4.9-7.35-2.52-12.59L1247.91,68.23c2.37-5.25,7.36-8.11,11.13-6.41S1263.93,69.17,1261.56,74.41Z" transform="translate(-13 -59.93)"/><path class="cls-3" d="M1285.27,107.22,1084.48,550.41c-2.4,5.3-7.31,8.25-11,6.59s-4.68-7.29-2.28-12.59L1272,101.22c2.41-5.29,7.32-8.25,11-6.59S1287.68,101.92,1285.27,107.22Z" transform="translate(-13 -59.93)"/><path class="cls-3" d="M1275.42,100.55,1255.88,69.3c-.23-.37,1.57-1.92,4-3.45s4.64-2.48,4.87-2.1L1284.31,95c.23.38-1.57,1.92-4,3.46S1275.65,100.92,1275.42,100.55Z" transform="translate(-13 -59.93)"/><path class="cls-3" d="M1072.4,556.54l-20.77-38.79c-.25-.47,2-2.17,5.08-3.8s5.73-2.58,6-2.12l20.76,38.79c.25.47-2,2.17-5.08,3.8S1072.65,557,1072.4,556.54Z" transform="translate(-13 -59.93)"/><path class="cls-3" d="M1061.75,519.73H983.23c-.94,0-1.7-3.2-1.7-7.14s.76-7.15,1.7-7.15h78.52c.93,0,1.7,3.2,1.7,7.15S1062.68,519.73,1061.75,519.73Z" transform="translate(-13 -59.93)"/><path class="cls-3" d="M1072.93,557.35H994.42c-.94,0-1.7-2.8-1.7-6.27s.76-6.27,1.7-6.27h78.51c.94,0,1.7,2.81,1.7,6.27S1073.87,557.35,1072.93,557.35Z" transform="translate(-13 -59.93)"/><path class="cls-3" d="M927.68,562.5H849c-.94,0-1.7-2.71-1.7-6.06s.76-6.05,1.7-6.05h78.72c.94,0,1.7,2.71,1.7,6.05S928.62,562.5,927.68,562.5Z" transform="translate(-13 -59.93)"/><path class="cls-3" d="M913.88,518.34H863.22c-.6,0-1.09-2.48-1.09-5.53s.49-5.54,1.09-5.54h50.66c.61,0,1.1,2.48,1.1,5.54S914.49,518.34,913.88,518.34Z" transform="translate(-13 -59.93)"/><path class="cls-3" d="M1169.07,79.93,979.21,491.2c-2.27,4.92-6.66,7.73-9.81,6.27s-3.85-6.61-1.58-11.53L1157.69,74.67c2.27-4.92,6.65-7.73,9.8-6.27S1171.34,75,1169.07,79.93Z" transform="translate(-13 -59.93)"/><path class="cls-3" d="M1073.11,78.53l-98,212.35c-1.17,2.53-4.67,3.42-7.82,2s-4.74-4.68-3.57-7.22l98-212.35c1.17-2.53,4.67-3.42,7.82-2S1074.28,76,1073.11,78.53Z" transform="translate(-13 -59.93)"/><path class="cls-3" d="M987.86,67.16,911.4,232.8c-.92,2-4.21,2.41-7.35.95s-4.95-4.23-4-6.21L976.48,61.91c.91-2,4.2-2.41,7.35-1S988.78,65.18,987.86,67.16Z" transform="translate(-13 -59.93)"/><path class="cls-3" d="M896.86,70.32,820.4,236c-.92,2-4.21,2.41-7.35,1s-4.95-4.23-4-6.21L885.48,65.06c.91-2,4.2-2.41,7.35-1S897.78,68.34,896.86,70.32Z" transform="translate(-13 -59.93)"/><path class="cls-3" d="M802.17,74.9,729.05,233.29c-.88,1.9-4.13,2.26-7.28.81s-5-4.17-4.11-6.06L790.79,69.65c.87-1.9,4.13-2.26,7.27-.81S803,73,802.17,74.9Z" transform="translate(-13 -59.93)"/><path class="cls-3" d="M710.53,70.25,635.61,232.51c-.89,1.94-4.17,2.34-7.31.89s-5-4.2-4.07-6.14L699.14,65c.9-1.94,4.17-2.34,7.31-.88S711.42,68.31,710.53,70.25Z" transform="translate(-13 -59.93)"/><path class="cls-3" d="M620.46,67.16,544,232.8c-.91,2-4.2,2.4-7.35.95s-4.95-4.23-4-6.21L609.08,61.91c.91-2,4.2-2.41,7.35-1S621.38,65.18,620.46,67.16Z" transform="translate(-13 -59.93)"/><path class="cls-3" d="M1106,401H921.09c-2.21,0-4-2.81-4-6.27s1.79-6.27,4-6.27H1106c2.21,0,4,2.81,4,6.27S1108.16,401,1106,401Z" transform="translate(-13 -59.93)"/><path class="cls-3" d="M1233.8,233.38l118.73,258.46c1.42,3.09-.47,7-4.21,8.71s-7.93.61-9.35-2.48L1220.25,239.61c-3.51-6.58-3.16-13.32-.52-15.39C1222.8,221.81,1230,225,1233.8,233.38Z" transform="translate(-13 -59.93)"/><path class="cls-3" d="M1196.16,307.44l86.18,187.62c1,2.24-1.4,5.57-5.44,7.42s-8.14,1.54-9.17-.7l-86.18-187.62c-1-2.24,1.4-5.57,5.44-7.42S1195.13,305.2,1196.16,307.44Z" transform="translate(-13 -59.93)"/><path class="cls-3" d="M1151.62,395.83l46.52,101.29c.56,1.21-1.78,3.47-5.22,5.05s-6.69,1.88-7.24.67l-46.53-101.28c-.55-1.21,1.79-3.48,5.23-5.06S1151.06,394.62,1151.62,395.83Z" transform="translate(-13 -59.93)"/><path class="cls-3" d="M1343,502.28l-73.62,1.13c-.94,0-1.76-3-1.85-6.66s.61-6.72,1.54-6.74l77.56-.94c.28.2,4.19,3,3.57,7a7.12,7.12,0,0,1-2.35,4.09A9.76,9.76,0,0,1,1343,502.28Z" transform="translate(-13 -59.93)"/><path class="cls-3" d="M1186.78,503.45,1098.63,505c-1.12,0-2.09-2.61-2.16-5.89s.76-6,1.88-6l92.87-1.39" transform="translate(-13 -59.93)"/><path class="cls-4" d="M384.58,239" transform="translate(-13 -59.93)"/><path class="cls-4" d="M237.58,239" transform="translate(-13 -59.93)"/><path class="cls-5" d="M256.39,270.32" transform="translate(-13 -59.93)"/><path class="cls-1" d="M388.76,586.61" transform="translate(-13 -59.93)"/><path class="cls-1" d="M958.64,574.07" transform="translate(-13 -59.93)"/><path class="cls-1" d="M1099.37,656.28" transform="translate(-13 -59.93)"/><path class="cls-1" d="M1152.32,681.36" transform="translate(-13 -59.93)"/></svg>