<?xml version="1.0" encoding="UTF-8" standalone="no"?><!-- Generator: Gravit.io --><svg xmlns="http://www.w3.org/2000/svg" xmlns:xlink="http://www.w3.org/1999/xlink" style="isolation:isolate" viewBox="203.808 202.784 2629 1647" width="2629pt" height="1647pt"><defs><clipPath id="_clipPath_FF7LcRA2kHDz6003TXrhMery6DvYDU6T"><rect width="3000" height="2000"/></clipPath></defs><g clip-path="url(#_clipPath_FF7LcRA2kHDz6003TXrhMery6DvYDU6T)"><path d=" M -4.691 28.145 L -4.691 2028.145 L 2995.309 2028.145 L 2995.309 28.145 L -4.691 28.145 Z " fill="none"/><path d=" M 415.768 1842.625 C 415.768 1842.625 87.43 1400.735 247.896 945.801 C 352.491 649.268 744.845 486.783 966.271 649.268 C 1060.579 718.473 1324.499 626.343 1524.699 365.088 C 1856.699 -68.178 2895.579 413.215 2575.149 1279.585 C 2428.749 1675.445 2679.129 1624.755 2616.349 1849.405 L 415.768 1842.625 Z " fill="rgb(225,234,242)"/><path d=" M 1976.389 1845.175 L 1931.359 1845.175 L 1931.359 636.305 L 1976.389 636.305 L 1976.389 1845.175 Z " fill="rgb(204,221,252)"/><path d=" M 2245.349 698.926 L 1656.189 698.926 L 1656.189 669.208 L 2245.349 669.208 L 2245.349 698.926 Z " fill="rgb(204,221,252)"/><path d=" M 1688.109 603.402 L 1678.399 603.402 L 1678.399 669.208 L 1688.109 669.208 L 1688.109 603.402 Z " fill="rgb(204,221,252)"/><path d=" M 1656.989 616.83 C 1656.989 613.499 1668.909 610.799 1683.609 610.799 C 1698.309 610.799 1710.229 613.499 1710.229 616.83 C 1710.229 620.161 1698.309 622.861 1683.609 622.861 C 1668.909 622.861 1656.989 620.161 1656.989 616.83 Z " fill="rgb(204,221,252)"/><path d=" M 1656.989 604.769 C 1656.989 601.438 1668.909 598.738 1683.609 598.738 C 1698.309 598.738 1710.229 601.438 1710.229 604.769 C 1710.229 608.1 1698.309 610.799 1683.609 610.799 C 1668.909 610.799 1656.989 608.1 1656.989 604.769 Z " fill="rgb(204,221,252)"/><path d=" M 1656.989 592.708 C 1656.989 589.376 1668.909 586.677 1683.609 586.677 C 1698.309 586.677 1710.229 589.376 1710.229 592.708 C 1710.229 596.038 1698.309 598.738 1683.609 598.738 C 1668.909 598.738 1656.989 596.038 1656.989 592.708 Z " fill="rgb(204,221,252)"/><path d=" M 1656.989 580.646 C 1656.989 577.315 1668.909 574.615 1683.609 574.615 C 1698.309 574.615 1710.229 577.315 1710.229 580.646 C 1710.229 583.977 1698.309 586.677 1683.609 586.677 C 1668.909 586.677 1656.989 583.977 1656.989 580.646 Z " fill="rgb(204,221,252)"/><path d=" M 1699.409 618.969 L 1667.109 618.969 L 1667.109 577.929 L 1699.409 577.929 L 1699.409 618.969 Z " fill="rgb(204,221,252)"/><path d=" M 1955.269 603.402 L 1945.559 603.402 L 1945.559 669.208 L 1955.269 669.208 L 1955.269 603.402 Z " fill="rgb(204,221,252)"/><path d=" M 1924.149 616.83 C 1924.149 613.499 1936.069 610.799 1950.769 610.799 C 1965.469 610.799 1977.389 613.499 1977.389 616.83 C 1977.389 620.161 1965.469 622.861 1950.769 622.861 C 1936.069 622.861 1924.149 620.161 1924.149 616.83 Z " fill="rgb(204,221,252)"/><path d=" M 1924.149 604.769 C 1924.149 601.438 1936.069 598.738 1950.769 598.738 C 1965.469 598.738 1977.389 601.438 1977.389 604.769 C 1977.389 608.1 1965.469 610.799 1950.769 610.799 C 1936.069 610.799 1924.149 608.1 1924.149 604.769 Z " fill="rgb(204,221,252)"/><path d=" M 1924.149 592.708 C 1924.149 589.376 1936.069 586.677 1950.769 586.677 C 1965.469 586.677 1977.389 589.376 1977.389 592.708 C 1977.389 596.038 1965.469 598.738 1950.769 598.738 C 1936.069 598.738 1924.149 596.038 1924.149 592.708 Z " fill="rgb(204,221,252)"/><path d=" M 1924.149 580.646 C 1924.149 577.315 1936.069 574.615 1950.769 574.615 C 1965.469 574.615 1977.389 577.315 1977.389 580.646 C 1977.389 583.977 1965.469 586.677 1950.769 586.677 C 1936.069 586.677 1924.149 583.977 1924.149 580.646 Z " fill="rgb(204,221,252)"/><path d=" M 1966.569 618.969 L 1934.259 618.969 L 1934.259 577.929 L 1966.569 577.929 L 1966.569 618.969 Z " fill="rgb(204,221,252)"/><path d=" M 2223.229 603.402 L 2213.519 603.402 L 2213.519 669.208 L 2223.229 669.208 L 2223.229 603.402 Z " fill="rgb(204,221,252)"/><path d=" M 2192.109 616.83 C 2192.109 613.499 2204.029 610.799 2218.729 610.799 C 2233.429 610.799 2245.349 613.499 2245.349 616.83 C 2245.349 620.161 2233.429 622.861 2218.729 622.861 C 2204.029 622.861 2192.109 620.161 2192.109 616.83 Z " fill="rgb(204,221,252)"/><path d=" M 2192.109 604.769 C 2192.109 601.438 2204.029 598.738 2218.729 598.738 C 2233.429 598.738 2245.349 601.438 2245.349 604.769 C 2245.349 608.1 2233.429 610.799 2218.729 610.799 C 2204.029 610.799 2192.109 608.1 2192.109 604.769 Z " fill="rgb(204,221,252)"/><path d=" M 2192.109 592.708 C 2192.109 589.376 2204.029 586.677 2218.729 586.677 C 2233.429 586.677 2245.349 589.376 2245.349 592.708 C 2245.349 596.038 2233.429 598.738 2218.729 598.738 C 2204.029 598.738 2192.109 596.038 2192.109 592.708 Z " fill="rgb(204,221,252)"/><path d=" M 2192.109 580.646 C 2192.109 577.315 2204.029 574.615 2218.729 574.615 C 2233.429 574.615 2245.349 577.315 2245.349 580.646 C 2245.349 583.977 2233.429 586.677 2218.729 586.677 C 2204.029 586.677 2192.109 583.977 2192.109 580.646 Z " fill="rgb(204,221,252)"/><path d=" M 2234.529 618.969 L 2202.229 618.969 L 2202.229 577.929 L 2234.529 577.929 L 2234.529 618.969 Z " fill="rgb(204,221,252)"/><path d=" M 1953.899 831.597 L 1786.989 692.23 L 1793.139 684.908 L 1953.849 819.092 L 2117.149 680.432 L 2123.369 687.703 L 1953.899 831.597 Z " fill="rgb(204,221,252)"/><path d=" M 459.425 1582.745 L 512.84 1582.745 L 512.84 1303.025 L 459.425 1303.025 L 459.425 1582.745 Z  M 513.364 1583.795 L 458.901 1583.795 C 458.611 1583.795 458.376 1583.565 458.376 1583.275 L 458.376 1302.495 C 458.376 1302.205 458.611 1301.975 458.901 1301.975 L 513.364 1301.975 C 513.654 1301.975 513.889 1302.205 513.889 1302.495 L 513.889 1583.275 C 513.889 1583.565 513.654 1583.795 513.364 1583.795 Z " fill="rgb(192,216,251)"/><path d=" M 434.687 1769.925 L 537.231 1769.925 L 512.904 1583.795 L 459.36 1583.795 L 434.687 1769.925 Z  M 537.829 1770.975 L 434.088 1770.975 C 433.937 1770.975 433.793 1770.915 433.694 1770.795 C 433.594 1770.685 433.549 1770.535 433.569 1770.385 L 458.381 1583.205 C 458.415 1582.935 458.638 1582.745 458.901 1582.745 L 513.364 1582.745 C 513.627 1582.745 513.85 1582.945 513.884 1583.205 L 538.348 1770.385 C 538.368 1770.535 538.322 1770.685 538.223 1770.795 C 538.123 1770.915 537.979 1770.975 537.829 1770.975 Z " fill="rgb(192,216,251)"/><path d=" M 424.812 1844.235 L 443.746 1844.235 L 474.426 1770.975 L 434.547 1770.975 L 424.812 1844.235 Z  M 444.095 1845.285 L 424.213 1845.285 C 424.062 1845.285 423.919 1845.215 423.819 1845.105 C 423.72 1844.985 423.674 1844.835 423.694 1844.685 L 433.569 1770.385 C 433.603 1770.125 433.826 1769.925 434.088 1769.925 L 475.214 1769.925 C 475.39 1769.925 475.554 1770.015 475.651 1770.165 C 475.747 1770.305 475.766 1770.495 475.698 1770.655 L 444.579 1844.965 C 444.497 1845.155 444.306 1845.285 444.095 1845.285 Z " fill="rgb(192,216,251)"/><path d=" M 528.005 1844.235 L 546.939 1844.235 L 537.204 1770.975 L 497.325 1770.975 L 528.005 1844.235 Z  M 547.538 1845.285 L 527.656 1845.285 C 527.445 1845.285 527.254 1845.155 527.172 1844.965 L 496.053 1770.655 C 495.986 1770.495 496.003 1770.305 496.101 1770.165 C 496.198 1770.015 496.361 1769.925 496.537 1769.925 L 537.663 1769.925 C 537.925 1769.925 538.147 1770.125 538.182 1770.385 L 548.057 1844.685 C 548.077 1844.835 548.032 1844.985 547.932 1845.105 C 547.832 1845.215 547.688 1845.285 547.538 1845.285 Z " fill="rgb(192,216,251)"/><path d=" M 339.663 1582.745 L 639.872 1582.745 L 513.272 1536.995 L 458.998 1536.995 L 339.663 1582.745 Z  M 642.866 1583.795 L 336.832 1583.795 C 336.579 1583.795 336.362 1583.615 336.316 1583.365 C 336.27 1583.115 336.408 1582.875 336.644 1582.785 L 458.713 1535.985 L 458.901 1535.945 L 513.364 1535.945 L 513.542 1535.985 L 643.044 1582.775 C 643.284 1582.865 643.426 1583.105 643.382 1583.365 C 643.338 1583.615 643.12 1583.795 642.866 1583.795 Z " fill="rgb(192,216,251)"/><path d=" M 357.427 1442.355 L 622.111 1442.355 L 513.259 1396.615 L 459.013 1396.615 L 357.427 1442.355 Z  M 624.711 1443.405 L 354.986 1443.405 C 354.739 1443.405 354.525 1443.235 354.474 1442.995 C 354.421 1442.755 354.545 1442.505 354.771 1442.405 L 458.685 1395.605 L 458.901 1395.565 L 513.364 1395.565 L 513.567 1395.605 L 624.914 1442.395 C 625.144 1442.495 625.274 1442.745 625.225 1442.985 C 625.175 1443.235 624.961 1443.405 624.711 1443.405 Z " fill="rgb(192,216,251)"/><path d=" M 386.226 1301.975 L 593.317 1301.975 L 506.094 1268.955 L 468.444 1268.955 L 386.226 1301.975 Z  M 596.183 1303.025 L 383.515 1303.025 C 383.263 1303.025 383.048 1302.845 383 1302.595 C 382.953 1302.345 383.086 1302.105 383.319 1302.005 L 468.147 1267.945 L 468.343 1267.905 L 506.19 1267.905 L 506.376 1267.945 L 596.368 1302.005 C 596.605 1302.095 596.744 1302.345 596.698 1302.595 C 596.652 1302.835 596.435 1303.025 596.183 1303.025 Z " fill="rgb(192,216,251)"/><path d=" M 469.029 1267.905 L 505.48 1267.905 L 486.163 1205.165 L 469.029 1267.905 Z  M 506.19 1268.955 L 468.343 1268.955 C 468.179 1268.955 468.025 1268.885 467.926 1268.755 C 467.827 1268.625 467.794 1268.455 467.837 1268.295 L 485.627 1203.145 C 485.688 1202.925 485.891 1202.765 486.124 1202.765 C 486.377 1202.765 486.565 1202.905 486.634 1203.135 L 506.691 1268.275 C 506.74 1268.435 506.711 1268.615 506.612 1268.745 C 506.513 1268.875 506.356 1268.955 506.19 1268.955 Z " fill="rgb(192,216,251)"/><path d=" M 460.315 1303.025 L 486.133 1325.205 L 511.95 1303.025 L 460.315 1303.025 Z  M 460.315 1348.765 L 511.95 1348.765 L 486.133 1326.585 L 460.315 1348.765 Z  M 513.364 1349.815 L 458.901 1349.815 C 458.682 1349.815 458.486 1349.675 458.409 1349.475 C 458.333 1349.265 458.393 1349.035 458.559 1348.895 L 485.328 1325.895 L 458.559 1302.895 C 458.393 1302.755 458.333 1302.515 458.409 1302.315 C 458.486 1302.105 458.682 1301.975 458.901 1301.975 L 513.364 1301.975 C 513.583 1301.975 513.779 1302.105 513.856 1302.315 C 513.932 1302.515 513.872 1302.755 513.705 1302.895 L 486.937 1325.895 L 513.705 1348.895 C 513.872 1349.035 513.932 1349.265 513.856 1349.475 C 513.779 1349.675 513.583 1349.815 513.364 1349.815 Z " fill="rgb(192,216,251)"/><path d=" M 460.315 1349.815 L 486.133 1371.995 L 511.95 1349.815 L 460.315 1349.815 Z  M 460.315 1395.565 L 511.95 1395.565 L 486.133 1373.385 L 460.315 1395.565 Z  M 513.364 1396.615 L 458.901 1396.615 C 458.682 1396.615 458.486 1396.475 458.409 1396.265 C 458.333 1396.065 458.393 1395.835 458.559 1395.685 L 485.328 1372.685 L 458.559 1349.685 C 458.393 1349.545 458.333 1349.315 458.409 1349.105 C 458.486 1348.905 458.682 1348.765 458.901 1348.765 L 513.364 1348.765 C 513.583 1348.765 513.779 1348.905 513.856 1349.105 C 513.932 1349.315 513.872 1349.545 513.705 1349.685 L 486.937 1372.685 L 513.705 1395.685 C 513.872 1395.835 513.932 1396.065 513.856 1396.265 C 513.779 1396.475 513.583 1396.615 513.364 1396.615 Z " fill="rgb(192,216,251)"/><path d=" M 460.315 1396.615 L 486.133 1418.795 L 511.95 1396.615 L 460.315 1396.615 Z  M 460.315 1442.355 L 511.95 1442.355 L 486.133 1420.175 L 460.315 1442.355 Z  M 513.364 1443.405 L 458.901 1443.405 C 458.682 1443.405 458.486 1443.275 458.409 1443.065 C 458.333 1442.855 458.393 1442.625 458.559 1442.485 L 485.328 1419.485 L 458.559 1396.485 C 458.393 1396.345 458.333 1396.115 458.409 1395.905 C 458.486 1395.695 458.682 1395.565 458.901 1395.565 L 513.364 1395.565 C 513.583 1395.565 513.779 1395.695 513.856 1395.905 C 513.932 1396.115 513.872 1396.345 513.705 1396.485 L 486.937 1419.485 L 513.705 1442.485 C 513.872 1442.625 513.932 1442.855 513.856 1443.065 C 513.779 1443.275 513.583 1443.405 513.364 1443.405 Z " fill="rgb(192,216,251)"/><path d=" M 460.315 1443.405 L 486.133 1465.585 L 511.95 1443.405 L 460.315 1443.405 Z  M 460.315 1489.155 L 511.95 1489.155 L 486.133 1466.975 L 460.315 1489.155 Z  M 513.364 1490.205 L 458.901 1490.205 C 458.682 1490.205 458.486 1490.065 458.409 1489.865 C 458.333 1489.655 458.393 1489.425 458.559 1489.285 L 485.328 1466.285 L 458.559 1443.275 C 458.393 1443.135 458.333 1442.905 458.409 1442.705 C 458.486 1442.495 458.682 1442.355 458.901 1442.355 L 513.364 1442.355 C 513.583 1442.355 513.779 1442.495 513.856 1442.705 C 513.932 1442.905 513.872 1443.135 513.705 1443.275 L 486.937 1466.285 L 513.705 1489.285 C 513.872 1489.425 513.932 1489.655 513.856 1489.865 C 513.779 1490.065 513.583 1490.205 513.364 1490.205 Z " fill="rgb(192,216,251)"/><path d=" M 460.315 1490.205 L 486.133 1512.385 L 511.95 1490.205 L 460.315 1490.205 Z  M 460.315 1535.945 L 511.95 1535.945 L 486.133 1513.765 L 460.315 1535.945 Z  M 513.364 1536.995 L 458.901 1536.995 C 458.682 1536.995 458.486 1536.865 458.409 1536.655 C 458.333 1536.455 458.393 1536.215 458.559 1536.075 L 485.328 1513.075 L 458.559 1490.075 C 458.393 1489.935 458.333 1489.705 458.409 1489.495 C 458.486 1489.295 458.682 1489.155 458.901 1489.155 L 513.364 1489.155 C 513.583 1489.155 513.779 1489.295 513.856 1489.495 C 513.932 1489.705 513.872 1489.935 513.705 1490.075 L 486.937 1513.075 L 513.705 1536.075 C 513.872 1536.215 513.932 1536.455 513.856 1536.655 C 513.779 1536.865 513.583 1536.995 513.364 1536.995 Z " fill="rgb(192,216,251)"/><path d=" M 460.439 1583.795 L 486.113 1603.585 L 511.824 1583.795 L 460.439 1583.795 Z  M 454.099 1629.545 L 518.08 1629.545 L 486.112 1604.905 L 454.099 1629.545 Z  M 519.618 1630.585 L 452.558 1630.585 C 452.334 1630.585 452.134 1630.445 452.062 1630.235 C 451.989 1630.025 452.06 1629.785 452.238 1629.645 L 485.253 1604.245 L 458.581 1583.685 C 458.403 1583.545 458.332 1583.315 458.405 1583.105 C 458.477 1582.885 458.677 1582.745 458.901 1582.745 L 513.364 1582.745 C 513.588 1582.745 513.788 1582.885 513.86 1583.105 C 513.933 1583.315 513.862 1583.545 513.684 1583.685 L 486.972 1604.245 L 519.938 1629.645 C 520.116 1629.785 520.187 1630.025 520.114 1630.235 C 520.042 1630.445 519.842 1630.585 519.618 1630.585 Z " fill="rgb(192,216,251)"/><path d=" M 454.351 1630.585 L 486.034 1650.855 L 517.821 1630.585 L 454.351 1630.585 Z  M 448.013 1676.335 L 523.931 1676.335 L 486.033 1652.095 L 448.013 1676.335 Z  M 525.723 1677.385 L 446.216 1677.385 C 445.983 1677.385 445.777 1677.235 445.712 1677.005 C 445.647 1676.785 445.738 1676.545 445.934 1676.415 L 485.06 1651.475 L 452.275 1630.505 C 452.08 1630.385 451.989 1630.145 452.055 1629.915 C 452.12 1629.695 452.325 1629.545 452.558 1629.545 L 519.618 1629.545 C 519.851 1629.545 520.056 1629.695 520.121 1629.915 C 520.186 1630.145 520.096 1630.385 519.9 1630.505 L 487.008 1651.475 L 526.005 1676.415 C 526.202 1676.545 526.291 1676.785 526.226 1677.005 C 526.161 1677.235 525.955 1677.385 525.723 1677.385 Z " fill="rgb(192,216,251)"/><path d=" M 448.274 1677.385 L 485.983 1697.925 L 523.666 1677.385 L 448.274 1677.385 Z  M 441.93 1723.135 L 530.067 1723.135 L 485.983 1699.115 L 441.93 1723.135 Z  M 532.125 1724.185 L 439.872 1724.185 C 439.633 1724.185 439.424 1724.015 439.365 1723.785 C 439.306 1723.555 439.412 1723.315 439.622 1723.195 L 484.887 1698.525 L 445.965 1677.325 C 445.754 1677.205 445.648 1676.965 445.708 1676.735 C 445.767 1676.505 445.976 1676.335 446.216 1676.335 L 525.723 1676.335 C 525.962 1676.335 526.172 1676.495 526.23 1676.735 C 526.29 1676.965 526.184 1677.205 525.974 1677.325 L 487.079 1698.525 L 532.376 1723.195 C 532.587 1723.315 532.693 1723.555 532.633 1723.785 C 532.575 1724.015 532.365 1724.185 532.125 1724.185 Z " fill="rgb(192,216,251)"/><path d=" M 442.192 1724.185 L 486.04 1745.075 L 529.811 1724.185 L 442.192 1724.185 Z  M 436.403 1769.925 L 535.769 1769.925 L 486.041 1746.235 L 436.403 1769.925 Z  M 538.088 1770.975 L 434.088 1770.975 C 433.844 1770.975 433.631 1770.805 433.577 1770.565 C 433.523 1770.335 433.642 1770.085 433.863 1769.975 L 484.823 1745.655 L 439.647 1724.125 C 439.426 1724.025 439.308 1723.775 439.361 1723.545 C 439.415 1723.305 439.627 1723.135 439.872 1723.135 L 532.125 1723.135 C 532.37 1723.135 532.582 1723.305 532.637 1723.545 C 532.691 1723.775 532.572 1724.025 532.351 1724.125 L 487.259 1745.655 L 538.313 1769.975 C 538.535 1770.085 538.653 1770.325 538.6 1770.565 C 538.545 1770.805 538.333 1770.975 538.088 1770.975 Z " fill="rgb(192,216,251)"/><path d=" M 423.52 1443.405 C 423.391 1443.405 423.265 1443.355 423.168 1443.275 L 400.463 1422.635 L 401.169 1421.855 L 423.448 1442.105 L 458.482 1395.775 L 459.319 1396.405 L 423.938 1443.195 C 423.85 1443.315 423.715 1443.395 423.569 1443.405 L 423.52 1443.405 Z " fill="rgb(192,216,251)"/><path d=" M 556.54 1443.405 C 556.399 1443.405 556.258 1443.355 556.155 1443.235 L 512.979 1396.445 L 513.749 1395.735 L 556.59 1442.165 L 579.344 1423.555 L 580.008 1424.365 L 556.872 1443.285 C 556.775 1443.365 556.658 1443.405 556.54 1443.405 Z " fill="rgb(192,216,251)"/><path d=" M 459.242 1583.665 L 458.559 1582.875 L 513.023 1536.075 L 513.705 1536.875 L 459.242 1583.665 Z " fill="rgb(192,216,251)"/><path d=" M 602.556 1584.105 L 562.895 1555.015 L 513.628 1583.725 C 513.435 1583.835 513.192 1583.815 513.023 1583.665 L 458.559 1536.875 L 459.242 1536.075 L 513.423 1582.625 L 562.664 1553.935 C 562.844 1553.825 563.07 1553.835 563.238 1553.965 L 603.176 1583.265 L 602.556 1584.105 Z " fill="rgb(192,216,251)"/><path d=" M 391.269 1584.025 L 390.461 1583.355 L 416.019 1552.425 C 416.117 1552.305 416.262 1552.235 416.416 1552.235 C 416.58 1552.235 416.717 1552.295 416.819 1552.415 L 443.364 1582.925 L 442.573 1583.615 L 416.434 1553.565 L 391.269 1584.025 Z " fill="rgb(192,216,251)"/><path d=" M 458.901 1303.025 L 458.66 1302.965 L 425.688 1285.935 L 426.169 1284.995 L 458.568 1301.735 L 467.837 1268.295 C 467.884 1268.125 468.01 1267.995 468.175 1267.935 C 468.338 1267.885 468.52 1267.905 468.659 1268.015 L 513.44 1301.895 L 552.63 1285.605 L 553.033 1286.575 L 513.565 1302.975 C 513.394 1303.055 513.196 1303.025 513.048 1302.915 L 468.642 1269.315 L 459.406 1302.635 C 459.364 1302.785 459.255 1302.915 459.111 1302.975 L 458.901 1303.025 Z " fill="rgb(192,216,251)"/><path d=" M 459.207 1302.925 L 458.595 1302.065 L 505.884 1268.005 C 506.027 1267.905 506.214 1267.885 506.379 1267.945 C 506.545 1268.005 506.667 1268.155 506.703 1268.325 L 513.877 1302.385 L 512.851 1302.605 L 505.843 1269.325 L 459.207 1302.925 Z " fill="rgb(192,216,251)"/><path d=" M 478.405 1236.385 L 486.881 1245.915 L 495.024 1236.385 L 478.405 1236.385 Z  M 505.798 1268.785 L 486.896 1247.515 L 468.741 1268.775 L 467.944 1268.095 L 486.193 1246.725 L 476.846 1236.205 C 476.709 1236.055 476.675 1235.835 476.76 1235.645 C 476.844 1235.455 477.031 1235.335 477.238 1235.335 L 496.161 1235.335 C 496.366 1235.335 496.552 1235.455 496.637 1235.645 C 496.723 1235.825 496.692 1236.045 496.56 1236.195 L 487.583 1246.715 L 506.581 1268.085 L 505.798 1268.785 Z " fill="rgb(192,216,251)"/><path d=" M 782.574 1372.795 L 878.44 1372.795 L 878.44 870.767 L 782.574 870.767 L 782.574 1372.795 Z  M 879.381 1374.685 L 781.633 1374.685 C 781.114 1374.685 780.693 1374.255 780.693 1373.735 L 780.693 869.826 C 780.693 869.306 781.114 868.885 781.633 868.885 L 879.381 868.885 C 879.901 868.885 880.321 869.306 880.321 869.826 L 880.321 1373.735 C 880.321 1374.255 879.901 1374.685 879.381 1374.685 Z " fill="rgb(192,216,251)"/><path d=" M 738.176 1708.745 L 922.215 1708.745 L 878.555 1374.685 L 782.457 1374.685 L 738.176 1708.745 Z  M 923.288 1710.625 L 737.102 1710.625 C 736.831 1710.625 736.573 1710.505 736.395 1710.305 C 736.216 1710.095 736.134 1709.825 736.169 1709.555 L 780.701 1373.615 C 780.763 1373.145 781.161 1372.795 781.633 1372.795 L 879.381 1372.795 C 879.853 1372.795 880.252 1373.145 880.313 1373.615 L 924.22 1709.555 C 924.256 1709.825 924.173 1710.095 923.995 1710.305 C 923.815 1710.505 923.558 1710.625 923.288 1710.625 Z " fill="rgb(192,216,251)"/><path d=" M 720.454 1842.095 L 754.435 1842.095 L 809.497 1710.625 L 737.926 1710.625 L 720.454 1842.095 Z  M 755.061 1843.975 L 719.379 1843.975 C 719.108 1843.975 718.85 1843.865 718.672 1843.655 C 718.493 1843.455 718.411 1843.185 718.447 1842.915 L 736.169 1709.555 C 736.232 1709.085 736.631 1708.745 737.102 1708.745 L 810.912 1708.745 C 811.226 1708.745 811.521 1708.895 811.695 1709.165 C 811.869 1709.425 811.901 1709.755 811.78 1710.045 L 755.929 1843.405 C 755.782 1843.755 755.44 1843.975 755.061 1843.975 Z " fill="rgb(192,216,251)"/><path d=" M 905.656 1842.095 L 939.638 1842.095 L 922.165 1710.625 L 850.594 1710.625 L 905.656 1842.095 Z  M 940.712 1843.975 L 905.031 1843.975 C 904.651 1843.975 904.309 1843.755 904.163 1843.405 L 848.312 1710.045 C 848.191 1709.755 848.223 1709.425 848.396 1709.165 C 848.571 1708.895 848.865 1708.745 849.18 1708.745 L 922.99 1708.745 C 923.461 1708.745 923.86 1709.085 923.922 1709.555 L 941.645 1842.915 C 941.681 1843.185 941.599 1843.455 941.42 1843.655 C 941.242 1843.865 940.983 1843.975 940.712 1843.975 Z " fill="rgb(192,216,251)"/><path d=" M 567.636 1372.795 L 1106.429 1372.795 L 879.216 1290.695 L 781.808 1290.695 L 567.636 1372.795 Z  M 1111.799 1374.685 L 562.553 1374.685 C 562.1 1374.685 561.711 1374.355 561.628 1373.915 C 561.545 1373.465 561.792 1373.025 562.216 1372.865 L 781.296 1288.875 C 781.404 1288.835 781.518 1288.815 781.633 1288.815 L 879.381 1288.815 C 879.49 1288.815 879.598 1288.835 879.7 1288.865 L 1112.119 1372.855 C 1112.549 1373.015 1112.809 1373.455 1112.729 1373.905 C 1112.649 1374.355 1112.259 1374.685 1111.799 1374.685 Z " fill="rgb(192,216,251)"/><path d=" M 599.516 1120.845 L 1074.549 1120.845 L 879.191 1038.735 L 781.835 1038.735 L 599.516 1120.845 Z  M 1079.219 1122.725 L 595.135 1122.725 C 594.691 1122.725 594.308 1122.415 594.215 1121.975 C 594.122 1121.545 594.344 1121.105 594.749 1120.925 L 781.247 1036.935 C 781.369 1036.885 781.5 1036.855 781.633 1036.855 L 879.381 1036.855 C 879.506 1036.855 879.629 1036.885 879.746 1036.925 L 1079.579 1120.915 C 1079.999 1121.085 1080.229 1121.525 1080.139 1121.965 C 1080.049 1122.405 1079.669 1122.725 1079.219 1122.725 Z " fill="rgb(192,216,251)"/><path d=" M 651.204 868.885 L 1022.869 868.885 L 866.333 809.633 L 798.761 809.633 L 651.204 868.885 Z  M 1028.019 870.767 L 646.336 870.767 C 645.885 870.767 645.498 870.447 645.413 870.004 C 645.328 869.562 645.567 869.121 645.985 868.953 L 798.228 807.819 C 798.34 807.775 798.458 807.752 798.579 807.752 L 866.505 807.752 C 866.619 807.752 866.732 807.772 866.838 807.813 L 1028.349 868.946 C 1028.779 869.107 1029.019 869.548 1028.939 869.995 C 1028.859 870.442 1028.469 870.767 1028.019 870.767 Z " fill="rgb(192,216,251)"/><path d=" M 799.811 807.752 L 865.231 807.752 L 830.562 695.144 L 799.811 807.752 Z  M 866.505 809.633 L 798.579 809.633 C 798.286 809.633 798.009 809.497 797.831 809.264 C 797.653 809.03 797.594 808.728 797.671 808.445 L 829.6 691.523 C 829.71 691.12 830.074 690.837 830.493 690.831 C 830.946 690.834 831.283 691.095 831.407 691.494 L 867.404 808.416 C 867.492 808.701 867.439 809.011 867.262 809.251 C 867.085 809.491 866.804 809.633 866.505 809.633 Z " fill="rgb(192,216,251)"/><path d=" M 784.172 870.767 L 830.507 910.578 L 876.842 870.767 L 784.172 870.767 Z  M 784.172 952.871 L 876.842 952.871 L 830.507 913.059 L 784.172 952.871 Z  M 879.381 954.752 L 781.633 954.752 C 781.24 954.752 780.889 954.507 780.751 954.138 C 780.615 953.769 780.722 953.354 781.021 953.098 L 829.063 911.818 L 781.021 870.539 C 780.722 870.283 780.615 869.868 780.751 869.499 C 780.889 869.13 781.24 868.885 781.633 868.885 L 879.381 868.885 C 879.774 868.885 880.125 869.13 880.263 869.499 C 880.399 869.868 880.292 870.283 879.994 870.539 L 831.951 911.818 L 879.994 953.098 C 880.292 953.354 880.399 953.769 880.263 954.138 C 880.125 954.507 879.774 954.752 879.381 954.752 Z " fill="rgb(192,216,251)"/><path d=" M 784.172 954.752 L 830.507 994.563 L 876.842 954.752 L 784.172 954.752 Z  M 784.172 1036.855 L 876.842 1036.855 L 830.507 997.044 L 784.172 1036.855 Z  M 879.381 1038.735 L 781.633 1038.735 C 781.24 1038.735 780.889 1038.495 780.751 1038.125 C 780.615 1037.755 780.722 1037.335 781.021 1037.085 L 829.063 995.804 L 781.021 954.525 C 780.722 954.269 780.615 953.853 780.751 953.484 C 780.889 953.115 781.24 952.871 781.633 952.871 L 879.381 952.871 C 879.774 952.871 880.125 953.115 880.263 953.484 C 880.399 953.853 880.292 954.269 879.994 954.525 L 831.951 995.804 L 879.994 1037.085 C 880.292 1037.335 880.399 1037.755 880.263 1038.125 C 880.125 1038.495 879.774 1038.735 879.381 1038.735 Z " fill="rgb(192,216,251)"/><path d=" M 784.172 1038.735 L 830.507 1078.545 L 876.842 1038.735 L 784.172 1038.735 Z  M 784.172 1120.845 L 876.842 1120.845 L 830.507 1081.025 L 784.172 1120.845 Z  M 879.381 1122.725 L 781.633 1122.725 C 781.24 1122.725 780.889 1122.475 780.751 1122.105 C 780.615 1121.735 780.722 1121.325 781.021 1121.065 L 829.063 1079.785 L 781.021 1038.515 C 780.722 1038.255 780.615 1037.835 780.751 1037.465 C 780.889 1037.105 781.24 1036.855 781.633 1036.855 L 879.381 1036.855 C 879.774 1036.855 880.125 1037.105 880.263 1037.465 C 880.399 1037.835 880.292 1038.255 879.994 1038.515 L 831.951 1079.785 L 879.994 1121.065 C 880.292 1121.325 880.399 1121.735 880.263 1122.105 C 880.125 1122.475 879.774 1122.725 879.381 1122.725 Z " fill="rgb(192,216,251)"/><path d=" M 784.172 1122.725 L 830.507 1162.535 L 876.842 1122.725 L 784.172 1122.725 Z  M 784.172 1204.825 L 876.842 1204.825 L 830.507 1165.015 L 784.172 1204.825 Z  M 879.381 1206.705 L 781.633 1206.705 C 781.24 1206.705 780.889 1206.465 780.751 1206.095 C 780.615 1205.725 780.722 1205.315 781.021 1205.055 L 829.063 1163.775 L 781.021 1122.495 C 780.722 1122.235 780.615 1121.825 780.751 1121.455 C 780.889 1121.085 781.24 1120.845 781.633 1120.845 L 879.381 1120.845 C 879.774 1120.845 880.125 1121.085 880.263 1121.455 C 880.399 1121.825 880.292 1122.235 879.994 1122.495 L 831.951 1163.775 L 879.994 1205.055 C 880.292 1205.315 880.399 1205.725 880.263 1206.095 C 880.125 1206.465 879.774 1206.705 879.381 1206.705 Z " fill="rgb(192,216,251)"/><path d=" M 784.172 1206.705 L 830.507 1246.525 L 876.842 1206.705 L 784.172 1206.705 Z  M 784.172 1288.815 L 876.842 1288.815 L 830.507 1249.005 L 784.172 1288.815 Z  M 879.381 1290.695 L 781.633 1290.695 C 781.24 1290.695 780.889 1290.445 780.751 1290.085 C 780.615 1289.715 780.722 1289.295 781.021 1289.035 L 829.063 1247.765 L 781.021 1206.485 C 780.722 1206.225 780.615 1205.815 780.751 1205.445 C 780.889 1205.075 781.24 1204.825 781.633 1204.825 L 879.381 1204.825 C 879.774 1204.825 880.125 1205.075 880.263 1205.445 C 880.399 1205.815 880.292 1206.225 879.994 1206.485 L 831.951 1247.765 L 879.994 1289.035 C 880.292 1289.295 880.399 1289.715 880.263 1290.085 C 880.125 1290.445 879.774 1290.695 879.381 1290.695 Z " fill="rgb(192,216,251)"/><path d=" M 784.395 1374.685 L 830.472 1410.195 L 876.615 1374.685 L 784.395 1374.685 Z  M 773.015 1456.785 L 887.843 1456.785 L 830.471 1412.565 L 773.015 1456.785 Z  M 890.604 1458.665 L 770.25 1458.665 C 769.848 1458.665 769.489 1458.405 769.36 1458.025 C 769.229 1457.645 769.357 1457.225 769.676 1456.975 L 828.929 1411.375 L 781.059 1374.485 C 780.741 1374.235 780.613 1373.815 780.743 1373.435 C 780.873 1373.055 781.231 1372.795 781.633 1372.795 L 879.381 1372.795 C 879.783 1372.795 880.141 1373.055 880.271 1373.435 C 880.401 1373.815 880.274 1374.235 879.955 1374.485 L 832.013 1411.375 L 891.179 1456.975 C 891.497 1457.225 891.625 1457.645 891.495 1458.025 C 891.365 1458.405 891.007 1458.665 890.604 1458.665 Z " fill="rgb(192,216,251)"/><path d=" M 773.467 1458.665 L 830.33 1495.035 L 887.379 1458.665 L 773.467 1458.665 Z  M 762.093 1540.765 L 898.345 1540.765 L 830.329 1497.265 L 762.093 1540.765 Z  M 901.561 1542.655 L 758.867 1542.655 C 758.449 1542.655 758.08 1542.375 757.964 1541.975 C 757.847 1541.575 758.009 1541.145 758.362 1540.915 L 828.582 1496.145 L 769.743 1458.515 C 769.391 1458.295 769.229 1457.865 769.347 1457.465 C 769.464 1457.055 769.832 1456.785 770.25 1456.785 L 890.604 1456.785 C 891.022 1456.785 891.391 1457.055 891.507 1457.465 C 891.624 1457.865 891.462 1458.295 891.11 1458.515 L 832.078 1496.155 L 902.068 1540.915 C 902.42 1541.145 902.58 1541.575 902.464 1541.975 C 902.346 1542.375 901.979 1542.655 901.561 1542.655 Z " fill="rgb(192,216,251)"/><path d=" M 762.561 1542.655 L 830.238 1579.515 L 897.87 1542.655 L 762.561 1542.655 Z  M 751.175 1624.755 L 909.358 1624.755 L 830.239 1581.655 L 751.175 1624.755 Z  M 913.052 1626.635 L 747.483 1626.635 C 747.054 1626.635 746.678 1626.345 746.572 1625.925 C 746.465 1625.515 746.656 1625.075 747.033 1624.865 L 828.272 1580.585 L 758.417 1542.535 C 758.039 1542.335 757.849 1541.895 757.955 1541.475 C 758.061 1541.065 758.437 1540.765 758.867 1540.765 L 901.561 1540.765 C 901.991 1540.765 902.367 1541.065 902.472 1541.475 C 902.579 1541.895 902.389 1542.335 902.011 1542.535 L 832.205 1580.585 L 913.502 1624.865 C 913.88 1625.075 914.07 1625.515 913.963 1625.925 C 913.858 1626.345 913.482 1626.635 913.052 1626.635 Z " fill="rgb(192,216,251)"/><path d=" M 751.645 1626.635 L 830.342 1664.135 L 908.897 1626.635 L 751.645 1626.635 Z  M 741.256 1708.745 L 919.591 1708.745 L 830.343 1666.215 L 741.256 1708.745 Z  M 923.753 1710.625 L 737.102 1710.625 C 736.663 1710.625 736.282 1710.315 736.184 1709.885 C 736.088 1709.465 736.3 1709.025 736.697 1708.835 L 828.158 1665.175 L 747.079 1626.545 C 746.682 1626.355 746.469 1625.915 746.566 1625.485 C 746.663 1625.055 747.043 1624.755 747.483 1624.755 L 913.052 1624.755 C 913.491 1624.755 913.872 1625.055 913.97 1625.485 C 914.066 1625.915 913.854 1626.355 913.457 1626.545 L 832.529 1665.175 L 924.157 1708.835 C 924.554 1709.025 924.767 1709.455 924.671 1709.885 C 924.574 1710.315 924.193 1710.625 923.753 1710.625 Z " fill="rgb(192,216,251)"/><path d=" M 718.136 1122.725 C 717.902 1122.725 717.677 1122.635 717.502 1122.475 L 676.754 1085.435 L 678.02 1084.045 L 718.006 1120.395 L 780.883 1037.225 L 782.384 1038.365 L 718.886 1122.355 C 718.726 1122.565 718.485 1122.695 718.223 1122.715 L 718.136 1122.725 Z " fill="rgb(192,216,251)"/><path d=" M 956.87 1122.725 C 956.616 1122.725 956.363 1122.625 956.178 1122.425 L 878.689 1038.435 L 880.072 1037.155 L 956.959 1120.495 L 997.799 1087.085 L 998.989 1088.545 L 957.465 1122.515 C 957.291 1122.655 957.08 1122.725 956.87 1122.725 Z " fill="rgb(192,216,251)"/><path d=" M 782.246 1374.455 L 781.021 1373.025 L 878.768 1289.035 L 879.994 1290.465 L 782.246 1374.455 Z " fill="rgb(192,216,251)"/><path d=" M 1039.459 1375.245 L 968.275 1323.025 L 879.855 1374.555 C 879.507 1374.755 879.072 1374.715 878.768 1374.455 L 781.021 1290.465 L 782.246 1289.035 L 879.485 1372.585 L 967.86 1321.085 C 968.183 1320.895 968.588 1320.915 968.891 1321.135 L 1040.569 1373.725 L 1039.459 1375.245 Z " fill="rgb(192,216,251)"/><path d=" M 660.253 1375.085 L 658.804 1373.885 L 704.673 1318.385 C 704.848 1318.165 705.109 1318.045 705.386 1318.035 C 705.68 1318.035 705.926 1318.155 706.108 1318.365 L 753.75 1373.125 L 752.33 1374.355 L 705.416 1320.435 L 660.253 1375.085 Z " fill="rgb(192,216,251)"/><path d=" M 781.633 870.767 C 781.485 870.767 781.337 870.732 781.202 870.662 L 722.026 840.095 L 722.89 838.423 L 781.037 868.458 L 797.672 808.441 C 797.756 808.141 797.982 807.902 798.278 807.801 C 798.572 807.701 798.898 807.754 799.147 807.942 L 879.517 868.75 L 949.852 839.508 L 950.575 841.246 L 879.742 870.694 C 879.434 870.822 879.08 870.778 878.813 870.576 L 799.116 810.278 L 782.54 870.077 C 782.464 870.35 782.269 870.575 782.01 870.688 C 781.89 870.74 781.761 870.767 781.633 870.767 Z " fill="rgb(192,216,251)"/><path d=" M 782.183 870.589 L 781.084 869.062 L 865.955 807.929 C 866.213 807.743 866.548 807.701 866.845 807.815 C 867.142 807.93 867.36 808.187 867.426 808.499 L 880.301 869.632 L 878.46 870.02 L 865.882 810.3 L 782.183 870.589 Z " fill="rgb(192,216,251)"/><path d=" M 816.638 751.172 L 831.85 768.287 L 846.465 751.172 L 816.638 751.172 Z  M 865.802 809.318 L 831.878 771.151 L 799.294 809.304 L 797.863 808.082 L 830.616 769.731 L 813.84 750.857 C 813.594 750.58 813.534 750.185 813.685 749.847 C 813.837 749.508 814.173 749.291 814.543 749.291 L 848.506 749.291 C 848.873 749.291 849.207 749.505 849.36 749.838 C 849.514 750.171 849.459 750.563 849.222 750.843 L 833.111 769.706 L 867.208 808.067 L 865.802 809.318 Z " fill="rgb(192,216,251)"/><path d=" M 1385.139 685.798 C 1383.339 678.715 1382.319 678.038 1382.319 678.038 C 1382.319 678.038 1311.839 681.974 1305.209 682.055 C 1298.579 682.135 1208.139 657.703 1208.139 657.703 L 1161.639 707.372 C 1161.639 707.372 1288.879 719.999 1305.669 719.467 C 1333.409 718.587 1385.009 696.08 1385.009 696.08 C 1385.009 696.08 1386.549 691.361 1385.139 685.798 Z " fill="rgb(119,164,229)"/><path d=" M 1364.319 1099.445 C 1364.319 1099.445 1363.039 1127.885 1368.749 1130.345 C 1374.459 1132.805 1440.789 1128.205 1440.789 1128.205 C 1440.789 1128.205 1440.319 1119.905 1428.799 1118.695 C 1417.269 1117.485 1401.299 1109.745 1392.589 1096.945 C 1380.429 1079.075 1364.319 1099.445 1364.319 1099.445 Z " fill="rgb(44,58,100)"/><path d=" M 1254.749 850.737 C 1254.749 850.737 1347.439 930.527 1359.369 956.274 C 1371.289 982.021 1408.099 1098.075 1408.099 1098.075 C 1408.099 1098.075 1397.949 1104.185 1377.259 1105.325 C 1368.109 1105.835 1361.519 1102.065 1361.519 1102.065 C 1361.519 1102.065 1307.839 996.773 1303.139 986.619 C 1298.449 976.464 1179.109 936.878 1146.329 876.891 L 1254.749 850.737 Z " fill="rgb(29,63,119)"/><path d=" M 1429.809 1843.505 L 1375.169 1843.505 L 1375.169 377.17 L 1429.809 377.17 L 1429.809 1843.505 Z " fill="rgb(173,200,254)"/><path d=" M 1756.229 453.129 L 1041.219 453.129 L 1041.219 417.081 L 1756.229 417.081 L 1756.229 453.129 Z " fill="rgb(173,200,254)"/><path d=" M 1079.969 337.26 L 1068.179 337.26 L 1068.179 417.081 L 1079.969 417.081 L 1079.969 337.26 Z " fill="rgb(173,200,254)"/><path d=" M 1042.199 353.548 C 1042.199 349.508 1056.659 346.233 1074.509 346.233 C 1092.349 346.233 1106.819 349.508 1106.819 353.548 C 1106.819 357.588 1092.349 360.863 1074.509 360.863 C 1056.659 360.863 1042.199 357.588 1042.199 353.548 Z " fill="rgb(173,200,254)"/><path d=" M 1042.199 338.917 C 1042.199 334.877 1056.659 331.603 1074.509 331.603 C 1092.349 331.603 1106.819 334.877 1106.819 338.917 C 1106.819 342.958 1092.349 346.233 1074.509 346.233 C 1056.659 346.233 1042.199 342.958 1042.199 338.917 Z " fill="rgb(173,200,254)"/><path d=" M 1042.199 324.288 C 1042.199 320.248 1056.659 316.972 1074.509 316.972 C 1092.349 316.972 1106.819 320.248 1106.819 324.288 C 1106.819 328.328 1092.349 331.603 1074.509 331.603 C 1056.659 331.603 1042.199 328.328 1042.199 324.288 Z " fill="rgb(173,200,254)"/><path d=" M 1042.199 309.657 C 1042.199 305.617 1056.659 302.342 1074.509 302.342 C 1092.349 302.342 1106.819 305.617 1106.819 309.657 C 1106.819 313.697 1092.349 316.972 1074.509 316.972 C 1056.659 316.972 1042.199 313.697 1042.199 309.657 Z " fill="rgb(173,200,254)"/><path d=" M 1093.679 356.143 L 1054.469 356.143 L 1054.469 306.361 L 1093.679 306.361 L 1093.679 356.143 Z " fill="rgb(173,200,254)"/><path d=" M 1404.189 337.26 L 1392.399 337.26 L 1392.399 417.081 L 1404.189 417.081 L 1404.189 337.26 Z " fill="rgb(173,200,254)"/><path d=" M 1366.419 353.548 C 1366.419 349.508 1380.879 346.233 1398.729 346.233 C 1416.569 346.233 1431.029 349.508 1431.029 353.548 C 1431.029 357.588 1416.569 360.863 1398.729 360.863 C 1380.879 360.863 1366.419 357.588 1366.419 353.548 Z " fill="rgb(173,200,254)"/><path d=" M 1366.419 338.917 C 1366.419 334.877 1380.879 331.603 1398.729 331.603 C 1416.569 331.603 1431.029 334.877 1431.029 338.917 C 1431.029 342.958 1416.569 346.233 1398.729 346.233 C 1380.879 346.233 1366.419 342.958 1366.419 338.917 Z " fill="rgb(173,200,254)"/><path d=" M 1366.419 324.288 C 1366.419 320.248 1380.879 316.972 1398.729 316.972 C 1416.569 316.972 1431.029 320.248 1431.029 324.288 C 1431.029 328.328 1416.569 331.603 1398.729 331.603 C 1380.879 331.603 1366.419 328.328 1366.419 324.288 Z " fill="rgb(173,200,254)"/><path d=" M 1366.419 309.657 C 1366.419 305.617 1380.879 302.342 1398.729 302.342 C 1416.569 302.342 1431.029 305.617 1431.029 309.657 C 1431.029 313.697 1416.569 316.972 1398.729 316.972 C 1380.879 316.972 1366.419 313.697 1366.419 309.657 Z " fill="rgb(173,200,254)"/><path d=" M 1417.889 356.143 L 1378.689 356.143 L 1378.689 306.361 L 1417.889 306.361 L 1417.889 356.143 Z " fill="rgb(173,200,254)"/><path d=" M 1729.379 337.26 L 1717.589 337.26 L 1717.589 417.081 L 1729.379 417.081 L 1729.379 337.26 Z " fill="rgb(173,200,254)"/><path d=" M 1691.609 353.548 C 1691.609 349.508 1706.069 346.233 1723.919 346.233 C 1741.759 346.233 1756.229 349.508 1756.229 353.548 C 1756.229 357.588 1741.759 360.863 1723.919 360.863 C 1706.069 360.863 1691.609 357.588 1691.609 353.548 Z " fill="rgb(173,200,254)"/><path d=" M 1691.609 338.917 C 1691.609 334.877 1706.069 331.603 1723.919 331.603 C 1741.759 331.603 1756.229 334.877 1756.229 338.917 C 1756.229 342.958 1741.759 346.233 1723.919 346.233 C 1706.069 346.233 1691.609 342.958 1691.609 338.917 Z " fill="rgb(173,200,254)"/><path d=" M 1691.609 324.288 C 1691.609 320.248 1706.069 316.972 1723.919 316.972 C 1741.759 316.972 1756.229 320.248 1756.229 324.288 C 1756.229 328.328 1741.759 331.603 1723.919 331.603 C 1706.069 331.603 1691.609 328.328 1691.609 324.288 Z " fill="rgb(173,200,254)"/><path d=" M 1691.609 309.657 C 1691.609 305.617 1706.069 302.342 1723.919 302.342 C 1741.759 302.342 1756.229 305.617 1756.229 309.657 C 1756.229 313.697 1741.759 316.972 1723.919 316.972 C 1706.069 316.972 1691.609 313.697 1691.609 309.657 Z " fill="rgb(173,200,254)"/><path d=" M 1743.089 356.143 L 1703.889 356.143 L 1703.889 306.361 L 1743.089 306.361 L 1743.089 356.143 Z " fill="rgb(173,200,254)"/><path d=" M 1402.519 614.056 L 1199.959 445.007 L 1207.429 436.125 L 1402.459 598.888 L 1600.639 430.695 L 1608.189 439.515 L 1402.519 614.056 Z " fill="rgb(173,200,254)"/><path d=" M 1475.969 708.818 L 1329.829 708.818 L 1329.829 529.801 L 1475.969 529.801 L 1475.969 708.818 Z " fill="rgb(42,78,150)"/><path d=" M 1262.169 844.537 L 1255.079 849.051 L 1249.679 841.541 L 1254.099 836.292 C 1254.839 835.435 1255.949 834.987 1257.069 835.111 L 1260.869 835.521 C 1262.399 835.683 1263.559 836.977 1263.559 838.519 L 1263.559 842 C 1263.559 842.436 1263.479 842.858 1263.289 843.231 C 1263.069 843.766 1262.679 844.214 1262.169 844.537 Z  M 1262.769 833.482 C 1262.249 833.258 1261.709 833.109 1261.129 833.047 L 1257.349 832.637 C 1255.389 832.425 1253.469 833.196 1252.189 834.701 L 1246.529 841.416 L 1254.419 852.421 L 1263.519 846.639 C 1264.929 845.731 1265.839 844.276 1266.009 842.634 C 1266.049 842.423 1266.059 842.211 1266.059 842 L 1266.059 838.519 C 1266.059 836.28 1264.729 834.328 1262.769 833.482 Z " fill="rgb(29,63,119)"/><path d=" M 1429.809 779.726 L 1429.809 792.981 C 1429.809 792.981 1290.609 836.517 1266.009 842.634 C 1264.839 842.92 1263.929 843.132 1263.299 843.244 L 1263.289 843.231 C 1263.479 842.858 1263.559 842.436 1263.559 842 L 1263.559 838.519 C 1263.559 836.977 1262.399 835.683 1260.869 835.521 L 1257.069 835.111 C 1257.069 835.111 1259.119 834.527 1262.769 833.482 C 1289.089 825.897 1399.079 793.926 1429.809 779.726 Z " fill="rgb(249,151,70)"/><path d=" M 1322.649 1121.865 C 1322.649 1121.865 1316.659 1149.705 1321.889 1153.075 C 1327.109 1156.445 1393.289 1162.825 1393.289 1162.825 C 1393.289 1162.825 1394.209 1154.565 1383.039 1151.465 C 1371.879 1148.375 1357.409 1138.115 1350.939 1124.055 C 1341.909 1104.435 1322.649 1121.865 1322.649 1121.865 Z " fill="rgb(44,58,100)"/><path d=" M 1165.039 638.307 C 1165.039 638.307 1196.529 673.712 1220.249 669.25 C 1220.249 669.25 1213.769 661.692 1206.539 654.93 C 1204.379 652.911 1205.029 648.148 1205.809 645.303 C 1206.249 643.703 1206.649 642.189 1207.009 640.768 C 1209.339 631.475 1210.029 626.113 1210.029 626.113 L 1194.049 609.807 L 1183.199 598.744 C 1182.739 604.093 1182.189 609.073 1180.409 613.255 C 1173.669 629.171 1165.039 638.307 1165.039 638.307 Z " fill="rgb(255,178,125)"/><path d=" M 1180.409 613.255 C 1180.409 613.255 1186.379 633.72 1207.009 640.768 C 1209.339 631.475 1210.029 626.113 1210.029 626.113 L 1194.049 609.807 C 1185.169 610.888 1180.409 613.255 1180.409 613.255 Z " fill="rgb(237,151,93)"/><path d=" M 1217.089 626.401 C 1217.089 626.401 1178.569 628.155 1177.849 604.243 C 1177.119 580.33 1171.659 564.451 1196.219 562.32 C 1220.779 560.189 1225.839 569.17 1228.029 577.093 C 1230.219 585.016 1227.089 625.329 1217.089 626.401 Z " fill="rgb(255,178,125)"/><path d=" M 1245.859 761.325 C 1245.709 758.956 1245.599 756.556 1245.509 754.11 C 1245.099 741.696 1243.589 729.215 1241.159 717.559 C 1239.289 708.5 1236.859 699.946 1233.959 692.327 C 1229.689 681.108 1224.659 673.294 1218.309 666.161 L 1207.899 655.558 C 1183.079 658.13 1165.039 638.307 1165.039 638.307 C 1165.039 638.307 1105.729 689.543 1121.199 799.767 C 1121.199 799.767 1122.689 807.732 1125.309 819.202 C 1125.879 821.689 1126.499 824.344 1127.179 827.124 C 1131.739 846.001 1247.749 792.909 1245.859 761.325 Z " fill="rgb(175,205,251)"/><path d=" M 1156.389 568.706 C 1155.949 568.355 1155.069 568.166 1153.219 568.39 C 1153.219 568.39 1154.519 567.204 1156.469 566.807 C 1156.389 564.159 1156.939 559.352 1161.129 557.465 C 1161.129 557.465 1158.999 559.155 1159.179 561.953 C 1163.319 555.77 1173.529 549.997 1204.119 547.066 C 1244.439 543.203 1235.929 571.273 1231.329 575.253 C 1226.729 579.234 1212.279 573.112 1202.829 575.58 C 1193.369 578.047 1194.049 592.388 1191.139 594.887 C 1188.229 597.387 1188.899 593.759 1184.139 592.525 C 1179.379 591.291 1180.279 598.744 1182.409 603.316 C 1184.539 607.889 1179.619 615.287 1179.619 615.287 C 1179.619 615.287 1179.619 615.287 1172.319 609.71 C 1165.019 604.134 1154.229 576.951 1155.929 570.447 C 1156.089 569.872 1156.229 569.291 1156.389 568.706 Z " fill="rgb(43,71,139)"/><path d=" M 1143.309 734.455 C 1143.309 734.455 1159.949 790.448 1178.809 799.524 C 1197.659 808.6 1196.569 760.654 1196.569 760.654 L 1143.309 734.455 Z " fill="rgb(119,164,229)"/><path d=" M 1267.769 869.813 C 1237.859 856.551 1247.749 792.909 1245.859 761.325 C 1245.709 758.956 1245.599 756.556 1245.509 754.11 C 1245.099 741.696 1243.589 729.215 1241.159 717.559 C 1239.289 708.5 1236.859 699.946 1233.959 692.327 L 1192.609 699.044 C 1184.679 700.333 1178.959 707.301 1179.249 715.306 C 1179.999 735.865 1178.119 774.014 1156.379 793.475 C 1140.719 807.495 1131.039 815.11 1125.309 819.202 C 1125.879 821.689 1126.499 824.344 1127.179 827.124 C 1131.739 846.001 1136.829 870.02 1147.679 883.764 C 1156.049 894.362 1270.959 871.228 1267.769 869.813 Z " fill="rgb(42,78,150)"/><path d=" M 1160.979 642.332 C 1160.979 642.332 1172.389 646.605 1187.309 666.288 C 1199.969 682.993 1204.649 699.025 1204.649 699.025 L 1197.789 700.548 C 1197.789 700.548 1187.619 665.596 1156.839 647.031 C 1156.839 647.031 1156.919 646.356 1160.979 642.332 Z " fill="rgb(42,78,150)"/><path d=" M 1340.669 671.121 C 1340.669 671.121 1347.789 654.909 1349.689 652.694 C 1351.579 650.478 1361.629 642.834 1362.369 643.215 C 1363.109 643.597 1363.399 646.54 1361.589 648.253 C 1360.309 649.465 1358.819 650.571 1359.599 650.693 C 1360.379 650.815 1363.939 645.204 1366.749 647.049 C 1369.559 648.894 1376.209 657.095 1371.939 663.533 C 1367.679 669.972 1351.409 676.816 1350.539 677.792 C 1343.189 686.068 1340.669 671.121 1340.669 671.121 Z " fill="rgb(255,178,125)"/><path d=" M 1340.669 671.121 C 1340.669 671.121 1266.289 736.864 1259.249 737.64 C 1248.029 738.879 1185.319 681.835 1185.319 681.835 C 1185.319 681.835 1177.009 667.605 1158.619 674.588 C 1142.639 680.655 1135.679 699.834 1135.679 699.834 C 1135.679 699.834 1130.269 718.744 1139.659 730.038 C 1160.459 755.073 1239.879 780.253 1263.559 777.234 C 1294.109 773.341 1350.709 690.189 1350.709 690.189 C 1350.709 690.189 1354.129 682.74 1350.539 677.792 C 1347.379 673.428 1340.669 671.121 1340.669 671.121 Z " fill="rgb(175,205,251)"/><path d=" M 1358.699 1124.995 C 1358.699 1124.995 1347.669 1129.355 1327.079 1127.075 C 1317.979 1126.065 1312.099 1121.265 1312.099 1121.265 C 1312.099 1121.265 1308.889 1111.075 1304.319 1096.525 C 1303.619 1094.275 1302.889 1091.935 1302.109 1089.495 C 1301.109 1086.315 1300.079 1082.975 1298.999 1079.565 C 1298.279 1077.245 1297.539 1074.895 1296.809 1072.525 C 1286.809 1040.605 1275.309 1003.743 1273.689 997.799 C 1270.739 987.005 1159.619 928.312 1137.249 863.749 L 1248.099 841.478 C 1248.099 841.478 1326.689 949.775 1334.179 977.132 C 1338.169 991.731 1344.889 1032.875 1350.279 1068.055 C 1350.639 1070.385 1350.989 1072.675 1351.329 1074.935 C 1351.849 1078.375 1352.349 1081.735 1352.849 1084.965 C 1353.199 1087.335 1353.539 1089.615 1353.879 1091.835 C 1356.749 1111.185 1358.699 1124.995 1358.699 1124.995 Z " fill="rgb(42,78,150)"/><path d=" M 1248.099 841.482 C 1248.099 841.482 1205.439 875.064 1143.309 880.863 C 1143.309 880.863 1148.649 894.895 1159.839 901.556 C 1159.839 901.556 1226.519 891.494 1254.749 850.737 L 1248.099 841.482 Z " fill="rgb(249,151,70)"/><path d=" M 1393.289 1165.935 C 1393.149 1165.935 1393.019 1165.935 1392.879 1165.915 L 1303.369 1154.195 C 1301.659 1153.975 1300.459 1152.415 1300.679 1150.715 C 1300.909 1149.005 1302.469 1147.805 1304.179 1148.035 L 1392.999 1159.655 L 1428.859 1148.155 C 1430.489 1147.625 1432.249 1148.525 1432.779 1150.165 C 1433.309 1151.795 1432.409 1153.545 1430.769 1154.075 L 1394.239 1165.785 C 1393.929 1165.885 1393.609 1165.935 1393.289 1165.935 Z " fill="rgb(25,36,63)"/><path d=" M 1351.329 1074.935 C 1336.949 1079.035 1322.379 1079.975 1311.599 1079.975 C 1306.359 1079.975 1301.999 1079.745 1298.999 1079.565 C 1298.279 1077.245 1297.539 1074.895 1296.809 1072.525 C 1297.069 1072.545 1297.369 1072.555 1297.719 1072.585 C 1305.419 1073.085 1328.339 1074.545 1350.279 1068.055 C 1350.639 1070.385 1350.989 1072.675 1351.329 1074.935 Z " fill="rgb(255,255,255)"/><path d=" M 1353.879 1091.835 C 1339.619 1095.865 1325.189 1096.785 1314.489 1096.785 C 1310.519 1096.785 1307.079 1096.655 1304.319 1096.525 C 1303.619 1094.275 1302.889 1091.935 1302.109 1089.495 C 1310.949 1090.025 1332.289 1090.975 1352.849 1084.965 C 1353.199 1087.335 1353.539 1089.615 1353.879 1091.835 Z " fill="rgb(255,255,255)"/><path d=" M 1475.969 708.818 L 1363.399 708.818 L 1363.399 529.801 L 1475.969 529.801 L 1475.969 708.818 Z " fill="rgb(35,56,98)"/><path d=" M 2353.199 1849.405 L 2321.769 1849.405 L 2321.769 1002.609 L 2353.199 1002.609 L 2353.199 1849.405 Z " fill="rgb(216,230,251)"/><path d=" M 2540.979 1046.475 L 2129.649 1046.475 L 2129.649 1025.657 L 2540.979 1025.657 L 2540.979 1046.475 Z " fill="rgb(216,230,251)"/><path d=" M 2151.939 979.561 L 2145.159 979.561 L 2145.159 1025.657 L 2151.939 1025.657 L 2151.939 979.561 Z " fill="rgb(216,230,251)"/><path d=" M 2130.209 988.967 C 2130.209 986.634 2138.529 984.743 2148.789 984.743 C 2159.059 984.743 2167.379 986.634 2167.379 988.967 C 2167.379 991.3 2159.059 993.192 2148.789 993.192 C 2138.529 993.192 2130.209 991.3 2130.209 988.967 Z " fill="rgb(216,230,251)"/><path d=" M 2130.209 980.519 C 2130.209 978.186 2138.529 976.294 2148.789 976.294 C 2159.059 976.294 2167.379 978.186 2167.379 980.519 C 2167.379 982.852 2159.059 984.743 2148.789 984.743 C 2138.529 984.743 2130.209 982.852 2130.209 980.519 Z " fill="rgb(216,230,251)"/><path d=" M 2130.209 972.07 C 2130.209 969.737 2138.529 967.845 2148.789 967.845 C 2159.059 967.845 2167.379 969.737 2167.379 972.07 C 2167.379 974.403 2159.059 976.294 2148.789 976.294 C 2138.529 976.294 2130.209 974.403 2130.209 972.07 Z " fill="rgb(216,230,251)"/><path d=" M 2130.209 963.621 C 2130.209 961.288 2138.529 959.396 2148.789 959.396 C 2159.059 959.396 2167.379 961.288 2167.379 963.621 C 2167.379 965.954 2159.059 967.845 2148.789 967.845 C 2138.529 967.845 2130.209 965.954 2130.209 963.621 Z " fill="rgb(216,230,251)"/><path d=" M 2159.819 990.465 L 2137.269 990.465 L 2137.269 961.718 L 2159.819 961.718 L 2159.819 990.465 Z " fill="rgb(216,230,251)"/><path d=" M 2338.459 979.561 L 2331.679 979.561 L 2331.679 1025.657 L 2338.459 1025.657 L 2338.459 979.561 Z " fill="rgb(216,230,251)"/><path d=" M 2316.729 988.967 C 2316.729 986.634 2325.049 984.743 2335.309 984.743 C 2345.579 984.743 2353.899 986.634 2353.899 988.967 C 2353.899 991.3 2345.579 993.192 2335.309 993.192 C 2325.049 993.192 2316.729 991.3 2316.729 988.967 Z " fill="rgb(216,230,251)"/><path d=" M 2316.729 980.519 C 2316.729 978.186 2325.049 976.294 2335.309 976.294 C 2345.579 976.294 2353.899 978.186 2353.899 980.519 C 2353.899 982.852 2345.579 984.743 2335.309 984.743 C 2325.049 984.743 2316.729 982.852 2316.729 980.519 Z " fill="rgb(216,230,251)"/><path d=" M 2316.729 972.07 C 2316.729 969.737 2325.049 967.845 2335.309 967.845 C 2345.579 967.845 2353.899 969.737 2353.899 972.07 C 2353.899 974.403 2345.579 976.294 2335.309 976.294 C 2325.049 976.294 2316.729 974.403 2316.729 972.07 Z " fill="rgb(216,230,251)"/><path d=" M 2316.729 963.621 C 2316.729 961.288 2325.049 959.396 2335.309 959.396 C 2345.579 959.396 2353.899 961.288 2353.899 963.621 C 2353.899 965.954 2345.579 967.845 2335.309 967.845 C 2325.049 967.845 2316.729 965.954 2316.729 963.621 Z " fill="rgb(216,230,251)"/><path d=" M 2346.339 990.465 L 2323.789 990.465 L 2323.789 961.718 L 2346.339 961.718 L 2346.339 990.465 Z " fill="rgb(216,230,251)"/><path d=" M 2525.539 979.561 L 2518.759 979.561 L 2518.759 1025.657 L 2525.539 1025.657 L 2525.539 979.561 Z " fill="rgb(216,230,251)"/><path d=" M 2503.809 988.967 C 2503.809 986.634 2512.129 984.743 2522.389 984.743 C 2532.659 984.743 2540.979 986.634 2540.979 988.967 C 2540.979 991.3 2532.659 993.192 2522.389 993.192 C 2512.129 993.192 2503.809 991.3 2503.809 988.967 Z " fill="rgb(216,230,251)"/><path d=" M 2503.809 980.519 C 2503.809 978.186 2512.129 976.294 2522.389 976.294 C 2532.659 976.294 2540.979 978.186 2540.979 980.519 C 2540.979 982.852 2532.659 984.743 2522.389 984.743 C 2512.129 984.743 2503.809 982.852 2503.809 980.519 Z " fill="rgb(216,230,251)"/><path d=" M 2503.809 972.07 C 2503.809 969.737 2512.129 967.845 2522.389 967.845 C 2532.659 967.845 2540.979 969.737 2540.979 972.07 C 2540.979 974.403 2532.659 976.294 2522.389 976.294 C 2512.129 976.294 2503.809 974.403 2503.809 972.07 Z " fill="rgb(216,230,251)"/><path d=" M 2503.809 963.621 C 2503.809 961.288 2512.129 959.396 2522.389 959.396 C 2532.659 959.396 2540.979 961.288 2540.979 963.621 C 2540.979 965.954 2532.659 967.845 2522.389 967.845 C 2512.129 967.845 2503.809 965.954 2503.809 963.621 Z " fill="rgb(216,230,251)"/><path d=" M 2533.419 990.465 L 2510.869 990.465 L 2510.869 961.718 L 2533.419 961.718 L 2533.419 990.465 Z " fill="rgb(216,230,251)"/><path d=" M 2337.499 1139.405 L 2220.969 1041.785 L 2225.259 1036.655 L 2337.459 1130.645 L 2451.479 1033.515 L 2455.809 1038.615 L 2337.499 1139.405 Z " fill="rgb(216,230,251)"/><path d=" M 1481.909 1841.895 L 1236.329 1841.895 L 1236.329 1248.315 L 1481.909 1248.315 L 1481.909 1841.895 Z " fill="rgb(173,200,254)"/><path d=" M 1481.909 1841.895 L 1388.509 1841.895 L 1388.509 1248.315 L 1481.909 1248.315 L 1481.909 1841.895 Z " fill="rgb(140,180,244)"/><path d=" M 1365.419 1357.065 L 1315.699 1357.065 L 1315.699 1268.815 L 1365.419 1268.815 L 1365.419 1357.065 Z " fill="rgb(71,134,209)"/><path d=" M 1352.829 1357.065 L 1303.109 1357.065 L 1303.109 1268.815 L 1352.829 1268.815 L 1352.829 1357.065 Z " fill="rgb(105,154,226)"/><path d=" M 1252.889 1469.235 L 1252.589 1468.025 C 1252.739 1467.985 1268.239 1463.725 1270.659 1438.285 C 1272.669 1417.175 1276.099 1406.145 1282.119 1401.405 C 1284.829 1399.275 1288.139 1398.475 1291.969 1399.015 C 1296.769 1399.705 1301.039 1404.065 1305.979 1409.105 C 1314.849 1418.165 1325.879 1429.445 1345.389 1424.165 C 1375.319 1416.065 1387.809 1383.995 1387.929 1383.675 L 1389.099 1384.115 C 1388.969 1384.445 1376.249 1417.105 1345.719 1425.365 C 1325.499 1430.835 1314.179 1419.275 1305.089 1409.985 C 1300.299 1405.095 1296.169 1400.875 1291.789 1400.255 C 1288.269 1399.745 1285.359 1400.445 1282.899 1402.385 C 1277.239 1406.835 1273.849 1417.945 1271.899 1438.405 C 1270.589 1452.145 1265.529 1459.775 1261.509 1463.765 C 1257.119 1468.135 1253.059 1469.195 1252.889 1469.235 Z " fill="rgb(235,243,250)"/><path d=" M 1388.509 1487.995 L 1315.069 1487.995 L 1315.069 1357.065 L 1316.319 1357.065 L 1316.319 1486.745 L 1388.509 1486.745 L 1388.509 1487.995 Z " fill="rgb(235,243,250)"/><path d=" M 1388.509 1473.775 L 1327.349 1473.775 L 1327.349 1357.065 L 1328.599 1357.065 L 1328.599 1472.525 L 1388.509 1472.525 L 1388.509 1473.775 Z " fill="rgb(235,243,250)"/><path d=" M 1388.509 1457.395 L 1344.299 1457.395 L 1344.299 1357.065 L 1345.549 1357.065 L 1345.549 1456.145 L 1388.509 1456.145 L 1388.509 1457.395 Z " fill="rgb(235,243,250)"/><path d=" M 1388.509 1695.305 L 1279.389 1695.305 L 1279.389 1561.055 L 1388.509 1561.055 L 1388.509 1562.295 L 1280.639 1562.295 L 1280.639 1694.055 L 1388.509 1694.055 L 1388.509 1695.305 Z " fill="rgb(235,243,250)"/><path d=" M 1388.509 1680.315 L 1296.619 1680.315 L 1296.619 1572.295 L 1388.509 1572.295 L 1388.509 1573.535 L 1297.869 1573.535 L 1297.869 1679.065 L 1388.509 1679.065 L 1388.509 1680.315 Z " fill="rgb(235,243,250)"/><path d=" M 1388.509 1660.555 L 1315.069 1660.555 L 1315.069 1589.145 L 1388.509 1589.145 L 1388.509 1590.395 L 1316.319 1590.395 L 1316.319 1659.305 L 1388.509 1659.305 L 1388.509 1660.555 Z " fill="rgb(235,243,250)"/><path d=" M 1388.509 1808.845 L 1269.419 1808.845 L 1269.419 1735.065 L 1388.509 1735.065 L 1388.509 1808.845 Z " fill="rgb(105,154,226)"/><path d=" M 1287.509 1735.065 L 1286.259 1735.065 L 1286.259 1711.535 L 1388.509 1711.535 L 1388.509 1712.785 L 1287.509 1712.785 L 1287.509 1735.065 Z " fill="rgb(105,154,226)"/><path d=" M 1314.349 1735.065 L 1313.099 1735.065 L 1313.099 1722.985 L 1388.509 1722.985 L 1388.509 1724.235 L 1314.349 1724.235 L 1314.349 1735.065 Z " fill="rgb(105,154,226)"/><path d=" M 1333.849 1276.695 C 1333.849 1277.775 1332.979 1278.645 1331.899 1278.645 C 1330.819 1278.645 1329.949 1277.775 1329.949 1276.695 C 1329.949 1275.615 1330.819 1274.745 1331.899 1274.745 C 1332.979 1274.745 1333.849 1275.615 1333.849 1276.695 Z " fill="rgb(173,200,254)"/><path d=" M 1341.109 1276.695 C 1341.109 1277.775 1340.229 1278.645 1339.159 1278.645 C 1338.079 1278.645 1337.199 1277.775 1337.199 1276.695 C 1337.199 1275.615 1338.079 1274.745 1339.159 1274.745 C 1340.229 1274.745 1341.109 1275.615 1341.109 1276.695 Z " fill="rgb(249,151,70)"/><path d=" M 1347.659 1276.695 C 1347.659 1277.775 1346.789 1278.645 1345.709 1278.645 C 1344.629 1278.645 1343.759 1277.775 1343.759 1276.695 C 1343.759 1275.615 1344.629 1274.745 1345.709 1274.745 C 1346.789 1274.745 1347.659 1275.615 1347.659 1276.695 Z " fill="rgb(255,255,255)"/><path d=" M 1349.609 1302.325 L 1311.229 1302.325 L 1311.229 1281.305 L 1349.609 1281.305 L 1349.609 1302.325 Z " fill="rgb(71,134,209)"/><path d=" M 1288.669 1304.265 C 1288.669 1304.265 1295.349 1290.385 1300.769 1286.075 C 1306.189 1281.765 1320.669 1282.815 1321.229 1283.915 C 1322.949 1287.335 1309.609 1292.655 1308.069 1295.785 C 1306.529 1298.915 1312.919 1298.605 1308.019 1304.045 C 1303.869 1308.645 1293.949 1313.035 1293.949 1313.035 L 1288.669 1304.265 Z " fill="rgb(255,178,125)"/><path d=" M 1294.439 1302.685 C 1290.929 1297.215 1289.879 1296.935 1289.879 1296.935 C 1289.879 1296.935 1231.769 1320.125 1226.219 1322.055 C 1220.669 1323.995 1137.759 1328.865 1137.759 1328.865 L 1112.739 1383.895 C 1112.739 1383.895 1223.229 1358.685 1237.189 1353.495 C 1260.249 1344.935 1297.239 1311.395 1297.239 1311.395 C 1297.239 1311.395 1297.199 1306.985 1294.439 1302.685 Z " fill="rgb(229,134,56)"/><path d=" M 1150.079 1817.155 C 1150.079 1817.155 1151.339 1837.565 1155.129 1842.365 L 1213.419 1842.365 C 1213.049 1840.325 1211.399 1835.305 1204.109 1834.035 C 1194.899 1832.425 1179.489 1825.955 1173.909 1813.775 C 1168.039 1800.965 1150.079 1817.155 1150.079 1817.155 Z " fill="rgb(22,53,96)"/><path d=" M 1046.459 1808.765 C 1046.459 1808.765 1042.789 1839.715 1047.779 1840.175 C 1048.449 1840.235 1071.789 1840.195 1078.139 1841.145 C 1088.509 1842.695 1105.799 1841.345 1105.799 1841.345 C 1107.969 1841.435 1109.379 1839.085 1108.279 1837.215 C 1107.069 1835.175 1104.759 1832.985 1100.359 1832.135 C 1091.179 1830.365 1075.889 1823.625 1070.519 1811.345 C 1064.879 1798.435 1046.459 1808.765 1046.459 1808.765 Z " fill="rgb(22,53,96)"/><path d=" M 1177.479 1545.555 C 1177.479 1545.555 1162.829 1596.855 1120.819 1685.955 C 1107.069 1715.145 1097.869 1738.755 1091.709 1757.345 C 1090.909 1759.745 1090.169 1762.055 1089.479 1764.275 C 1088.359 1767.855 1087.359 1771.215 1086.469 1774.355 C 1085.799 1776.765 1085.189 1779.055 1084.619 1781.215 C 1079.119 1802.655 1079.229 1812.405 1079.229 1812.405 C 1079.229 1812.405 1069.689 1816.005 1058.299 1814.865 C 1052.489 1814.275 1039.759 1808.835 1039.759 1808.835 C 1039.759 1808.835 1041.129 1794.465 1043.899 1774.155 C 1044.219 1771.925 1044.539 1769.625 1044.879 1767.255 C 1045.329 1764.085 1045.809 1760.805 1046.329 1757.445 C 1046.679 1755.185 1047.039 1752.885 1047.409 1750.575 C 1052.289 1720.325 1059.529 1685.195 1069.189 1663.285 C 1089.039 1618.325 1093.089 1495.275 1093.089 1495.275 L 1177.479 1545.555 Z " fill="rgb(35,56,98)"/><path d=" M 1200.919 1519.375 C 1200.459 1548.215 1198.269 1608.685 1188.439 1678.405 C 1183.699 1712.095 1181.139 1739.095 1179.829 1760.005 C 1179.679 1762.465 1179.539 1764.835 1179.429 1767.115 C 1179.229 1770.805 1179.079 1774.275 1178.949 1777.515 C 1178.869 1779.975 1178.789 1782.315 1178.739 1784.535 C 1178.189 1807.035 1179.349 1817.375 1179.349 1817.375 C 1179.349 1817.375 1178.519 1817.885 1176.779 1818.535 L 1176.769 1818.535 C 1173.809 1819.645 1168.259 1821.145 1159.889 1821.145 C 1156.139 1821.145 1152.899 1820.645 1150.309 1820.005 C 1145.789 1818.905 1143.199 1817.395 1143.199 1817.395 C 1143.199 1817.395 1140.989 1804.405 1138.489 1785.555 C 1138.169 1783.295 1137.869 1780.965 1137.559 1778.545 C 1137.149 1775.345 1136.749 1772.025 1136.339 1768.595 C 1136.079 1766.295 1135.799 1763.975 1135.539 1761.605 C 1132.219 1731.655 1129.649 1696.085 1132.419 1672.055 C 1132.859 1668.215 1133.069 1663.965 1133.079 1659.345 L 1133.079 1659.335 C 1133.109 1637.695 1128.689 1608.565 1123.379 1581.405 C 1123.379 1581.405 1123.369 1581.325 1123.329 1581.175 C 1117.859 1553.225 1111.469 1527.415 1108.019 1514.045 C 1106.459 1507.995 1105.489 1504.495 1105.489 1504.495 L 1108.399 1504.395 L 1108.409 1504.395 L 1131.379 1503.655 L 1194.029 1501.625 L 1197.889 1501.505 L 1201.009 1501.405 C 1201.009 1501.405 1201.109 1507.865 1200.919 1519.375 Z " fill="rgb(42,78,150)"/><path d=" M 1136.079 1315.465 L 1151.599 1326.965 L 1174.029 1322.245 C 1173.719 1320.195 1172.239 1311.715 1170.889 1304.035 C 1170.809 1303.575 1170.729 1303.125 1170.649 1302.685 C 1169.499 1296.145 1168.499 1290.525 1168.499 1290.525 L 1147.549 1280.085 L 1139.739 1276.185 C 1139.759 1276.325 1140.339 1283.445 1140.429 1284.485 C 1141.889 1302.935 1136.079 1315.465 1136.079 1315.465 Z " fill="rgb(255,178,125)"/><path d=" M 1172.459 1309.665 C 1171.969 1309.455 1141.949 1300.595 1138.689 1301.675 C 1135.429 1302.745 1133.499 1309.065 1133.499 1309.065 L 1179.849 1322.275 C 1179.849 1322.275 1178.739 1312.305 1172.459 1309.665 Z " fill="rgb(229,134,56)"/><path d=" M 1091.619 1511.205 C 1096.699 1534.435 1202.799 1461.555 1201.389 1447.385 C 1201.229 1445.825 1201.079 1444.255 1200.919 1442.695 C 1198.959 1422.965 1197.079 1403.655 1196.959 1391.055 C 1196.849 1380.115 1195.349 1368.945 1193.339 1358.785 C 1191.499 1349.415 1189.229 1340.905 1187.259 1334.275 C 1185.869 1329.615 1183.279 1325.505 1179.849 1322.275 C 1177.409 1319.975 1174.549 1318.135 1171.379 1316.875 C 1170.529 1316.515 1169.649 1316.215 1168.749 1315.955 C 1155.969 1312.245 1138.289 1307.655 1133.499 1309.055 C 1120.509 1312.885 1110.869 1335.745 1104.039 1364.895 C 1091.259 1419.465 1088.299 1496.075 1091.619 1511.205 Z " fill="rgb(249,151,70)"/><path d=" M 1141.999 1284.805 C 1146.599 1293.615 1163.739 1301.235 1170.889 1304.035 C 1170.809 1303.575 1170.729 1303.125 1170.649 1302.685 C 1169.499 1296.145 1168.499 1290.525 1168.499 1290.525 L 1147.549 1280.085 C 1142.919 1280.015 1140.099 1281.185 1141.999 1284.805 Z " fill="rgb(252,165,107)"/><path d=" M 1178.679 1289.305 C 1178.679 1289.305 1140.879 1301.105 1133.899 1277.435 C 1126.919 1253.775 1117.339 1239.355 1141.179 1230.825 C 1165.019 1222.295 1172.389 1229.935 1176.639 1237.265 C 1180.889 1244.595 1188.339 1285.625 1178.679 1289.305 Z " fill="rgb(255,178,125)"/><path d=" M 1175.159 1234.985 C 1175.159 1234.985 1172.749 1262.525 1167.059 1261.325 C 1161.369 1260.135 1156.199 1259.245 1157.039 1267.545 C 1157.869 1275.845 1158.139 1285.825 1140.599 1287.295 C 1123.049 1288.765 1105.459 1243.105 1110.279 1234.535 C 1124.189 1209.815 1195.259 1204.825 1175.159 1234.985 Z " fill="rgb(22,53,96)"/><path d=" M 1198.189 1501.395 C 1187.679 1505.195 1198.369 1490.955 1198.189 1487.985 C 1197.369 1474.925 1202.489 1458.415 1200.919 1442.695 L 1136.749 1404.325 C 1136.749 1404.325 1121.519 1500.785 1198.189 1501.395 Z " fill="rgb(229,134,56)"/><path d=" M 1091.619 1511.205 C 1119.019 1562.005 1123.379 1581.405 1123.379 1581.405 C 1147.219 1578.685 1188.079 1531.785 1201.039 1519.265 C 1201.039 1519.265 1202.799 1461.555 1201.389 1447.385 L 1181.579 1446.815 C 1181.579 1446.815 1145.789 1455.885 1136.499 1443.565 C 1127.229 1431.245 1131.239 1370.785 1131.239 1370.785 L 1104.039 1364.895 C 1091.259 1419.465 1084.269 1497.575 1091.619 1511.205 Z " fill="rgb(42,78,150)"/><path d=" M 1254.169 1413.865 C 1254.169 1413.865 1267.209 1405.035 1269.689 1404.265 C 1272.159 1403.495 1280.269 1402.665 1280.649 1403.305 C 1281.019 1403.945 1282.129 1405.905 1280.719 1406.565 C 1279.299 1407.225 1277.539 1406.995 1278.069 1407.455 C 1278.599 1407.925 1283.929 1405.385 1285.159 1408.105 C 1286.389 1410.825 1287.469 1420.135 1281.209 1422.965 C 1274.959 1425.785 1259.519 1423.235 1258.409 1423.565 C 1248.959 1426.305 1254.169 1413.865 1254.169 1413.865 Z " fill="rgb(255,178,125)"/><path d=" M 1254.289 1411.475 C 1254.289 1411.475 1190.649 1422.305 1185.009 1419.555 C 1176.009 1415.175 1188.499 1350.565 1188.499 1350.565 C 1188.499 1350.565 1189.039 1335.925 1171.939 1332.465 C 1157.089 1329.465 1142.749 1340.595 1142.749 1340.595 C 1142.749 1340.595 1129.719 1352.265 1131.379 1365.215 C 1135.079 1393.905 1140.819 1452.255 1159.999 1461.195 C 1184.739 1472.735 1256.319 1429.205 1256.319 1429.205 C 1256.319 1429.205 1258.709 1426.285 1258.369 1420.865 C 1258.069 1416.085 1254.289 1411.475 1254.289 1411.475 Z " fill="rgb(249,151,70)"/><path d=" M 1125.969 1369.645 L 1131.239 1370.785 C 1131.239 1370.785 1142.389 1322.505 1179.849 1322.275 C 1177.409 1319.975 1174.549 1318.135 1171.379 1316.875 C 1157.659 1320.565 1133.819 1332.295 1125.969 1369.645 Z " fill="rgb(42,78,150)"/><path d=" M 1309.329 1302.325 L 1315.699 1294.105 C 1315.699 1294.105 1314.109 1292.075 1310.859 1294.495 C 1308.969 1295.905 1303.889 1299.175 1303.889 1299.175 L 1309.329 1302.325 Z " fill="rgb(255,178,125)"/><path d=" M 1089.379 1764.275 C 1075.349 1764.275 1062.029 1761.645 1052.179 1759.075 C 1050.059 1758.535 1048.089 1757.965 1046.329 1757.445 C 1046.679 1755.185 1047.039 1752.885 1047.409 1750.575 C 1056.959 1753.455 1072.699 1757.375 1089.349 1757.375 C 1090.139 1757.375 1090.919 1757.365 1091.709 1757.345 C 1090.909 1759.745 1090.169 1762.055 1089.479 1764.275 L 1089.479 1764.275 C 1089.449 1764.275 1089.409 1764.275 1089.379 1764.275 Z " fill="rgb(145,156,177)"/><path d=" M 1084.619 1781.215 C 1071.829 1780.845 1059.809 1778.435 1050.729 1776.085 C 1048.209 1775.415 1045.929 1774.755 1043.899 1774.155 C 1044.219 1771.925 1044.539 1769.625 1044.879 1767.255 C 1054.039 1770.055 1069.719 1774.145 1086.469 1774.355 C 1085.799 1776.765 1085.189 1779.055 1084.619 1781.215 L 1084.619 1781.215 Z " fill="rgb(145,156,177)"/><path d=" M 1179.829 1760.005 C 1179.679 1762.465 1179.539 1764.835 1179.429 1767.115 C 1166.449 1769.555 1153.789 1769.645 1144.179 1769.155 C 1141.259 1769.005 1138.619 1768.805 1136.339 1768.595 C 1136.079 1766.295 1135.799 1763.975 1135.539 1761.605 C 1145.079 1762.535 1162.369 1763.575 1179.829 1760.005 Z " fill="rgb(255,255,255)"/><path d=" M 1178.949 1777.515 C 1178.869 1779.975 1178.789 1782.315 1178.739 1784.535 C 1166.749 1786.495 1155.159 1786.555 1146.229 1786.095 C 1143.339 1785.945 1140.749 1785.755 1138.489 1785.555 C 1138.169 1783.295 1137.869 1780.965 1137.559 1778.545 C 1146.559 1779.415 1162.489 1780.395 1178.949 1777.515 Z " fill="rgb(255,255,255)"/><path d=" M 1863.459 1833.335 L 1906.169 1832.805 L 2005.909 1417.195 L 1963.199 1417.725 L 1863.459 1833.335 Z " fill="rgb(140,180,244)"/><path d=" M 1792.909 1842.585 L 1984.419 1842.585 C 1984.419 1831.375 1975.339 1822.295 1964.129 1822.295 L 1813.199 1822.295 C 1801.989 1822.295 1792.909 1831.375 1792.909 1842.585 Z " fill="rgb(140,180,244)"/><path d=" M 2235.309 1650.155 L 2216.909 1557.935 L 2216.879 1557.745 L 2155.659 1250.845 L 1560.669 1250.925 L 1640.319 1650.245 L 1753.329 1650.225 L 1754.399 1650.225 L 1880.879 1650.205 L 1881.259 1650.205 L 2007.189 1650.185 L 2008.049 1650.185 L 2133.709 1650.175 L 2134.839 1650.175 L 2235.309 1650.155 Z " fill="rgb(29,63,119)"/><path d=" M 2245.499 1642.265 L 1650.509 1642.345 L 1570.859 1250.925 L 2165.849 1250.845 L 2245.499 1642.265 Z " fill="rgb(42,78,150)"/><path d=" M 1764.659 1642.335 L 1763.519 1642.335 L 1684.089 1251.965 L 1685.229 1251.965 L 1764.659 1642.335 Z " fill="rgb(192,216,251)"/><path d=" M 1891.449 1642.315 L 1890.309 1642.315 L 1810.879 1251.945 L 1812.019 1251.945 L 1891.449 1642.315 Z " fill="rgb(192,216,251)"/><path d=" M 2018.239 1642.295 L 2017.109 1642.295 L 1937.669 1251.925 L 1938.809 1251.925 L 2018.239 1642.295 Z " fill="rgb(192,216,251)"/><path d=" M 2145.039 1642.275 L 2143.899 1642.275 L 2064.459 1251.905 L 2065.599 1251.905 L 2145.039 1642.275 Z " fill="rgb(192,216,251)"/><path d=" M 2184.749 1343.735 L 1589.759 1343.815 L 1589.539 1342.745 L 2184.539 1342.665 L 2184.749 1343.735 Z " fill="rgb(192,216,251)"/><path d=" M 2205.929 1447.795 L 1610.939 1447.885 L 1610.719 1446.815 L 2205.709 1446.735 L 2205.929 1447.795 Z " fill="rgb(192,216,251)"/><path d=" M 2227.109 1551.865 L 1632.109 1551.945 L 1631.889 1550.875 L 2226.889 1550.795 L 2227.109 1551.865 Z " fill="rgb(192,216,251)"/><path d=" M 1705.579 1354.775 L 1690.989 1343.275 L 1700.899 1331.765 L 1715.489 1343.265 L 1705.579 1354.775 Z " fill="rgb(192,216,251)"/><path d=" M 1726.859 1459.375 L 1712.269 1447.865 L 1722.179 1436.365 L 1736.769 1447.865 L 1726.859 1459.375 Z " fill="rgb(192,216,251)"/><path d=" M 1832.939 1354.755 L 1818.349 1343.255 L 1828.259 1331.745 L 1842.849 1343.245 L 1832.939 1354.755 Z " fill="rgb(192,216,251)"/><path d=" M 1854.219 1459.355 L 1839.629 1447.855 L 1849.539 1436.345 L 1864.129 1447.845 L 1854.219 1459.355 Z " fill="rgb(192,216,251)"/><path d=" M 1959.729 1354.735 L 1945.139 1343.235 L 1955.049 1331.725 L 1969.639 1343.225 L 1959.729 1354.735 Z " fill="rgb(192,216,251)"/><path d=" M 2085.379 1354.725 L 2070.789 1343.215 L 2080.699 1331.705 L 2095.289 1343.215 L 2085.379 1354.725 Z " fill="rgb(192,216,251)"/><path d=" M 1747.929 1562.905 L 1733.339 1551.395 L 1743.249 1539.895 L 1757.839 1551.395 L 1747.929 1562.905 Z " fill="rgb(192,216,251)"/><path d=" M 1875.289 1562.885 L 1860.699 1551.385 L 1870.609 1539.875 L 1885.199 1551.375 L 1875.289 1562.885 Z " fill="rgb(192,216,251)"/><path d=" M 2002.079 1562.865 L 1987.489 1551.365 L 1997.399 1539.855 L 2011.989 1551.355 L 2002.079 1562.865 Z " fill="rgb(192,216,251)"/><path d=" M 2127.729 1562.855 L 2113.139 1551.345 L 2123.049 1539.835 L 2137.639 1551.345 L 2127.729 1562.855 Z " fill="rgb(192,216,251)"/><path d=" M 2106.669 1459.325 L 2092.079 1447.815 L 2101.989 1436.305 L 2116.579 1447.815 L 2106.669 1459.325 Z " fill="rgb(192,216,251)"/><path d=" M 1981.019 1459.335 L 1966.429 1447.835 L 1976.329 1436.325 L 1990.919 1447.835 L 1981.019 1459.335 Z " fill="rgb(192,216,251)"/><path d=" M 2056.249 1402.255 L 2049.219 1404.015 L 2039.859 1366.745 L 2046.889 1364.975 L 2056.249 1402.255 Z " fill="rgb(173,200,254)"/><path d=" M 2045.829 1352.885 L 2045.839 1352.915 C 2046.189 1355.795 2045.359 1358.885 2042.639 1359.905 C 2039.009 1361.265 2036.549 1358.895 2035.629 1355.245 L 2035.389 1354.295 C 2035.079 1353.015 2032.119 1354.065 2031.689 1355.305 C 2030.919 1357.535 2030.899 1360.065 2031.839 1362.505 C 2033.559 1366.965 2038.209 1369.715 2042.949 1369.065 C 2049.239 1368.205 2053.219 1362.135 2051.719 1356.155 C 2051.299 1354.485 2050.499 1353.015 2049.429 1351.805 C 2048.399 1350.635 2045.619 1351.335 2045.829 1352.885 Z " fill="rgb(173,200,254)"/><path d=" M 2049.399 1416.875 L 2049.399 1416.835 C 2049.049 1413.965 2049.879 1410.865 2052.599 1409.855 C 2056.229 1408.495 2058.689 1410.855 2059.609 1414.505 L 2059.849 1415.455 C 2060.149 1416.735 2063.119 1415.695 2063.549 1414.445 C 2064.309 1412.215 2064.339 1409.695 2063.399 1407.245 C 2061.679 1402.785 2057.019 1400.035 2052.279 1400.685 C 2045.999 1401.545 2042.019 1407.615 2043.519 1413.595 C 2043.939 1415.265 2044.739 1416.745 2045.809 1417.945 C 2046.839 1419.125 2049.609 1418.425 2049.399 1416.875 Z " fill="rgb(173,200,254)"/><path d=" M 2032.669 1271.435 C 2032.669 1271.435 2025.539 1256.645 2019.769 1252.055 C 2013.989 1247.455 1998.559 1248.575 1997.969 1249.755 C 1996.129 1253.395 2010.349 1259.055 2011.989 1262.395 C 2013.629 1265.735 2006.809 1265.395 2012.049 1271.195 C 2016.459 1276.095 2027.039 1280.775 2027.039 1280.775 L 2032.669 1271.435 Z " fill="rgb(255,178,125)"/><path d=" M 2026.509 1269.745 C 2030.259 1263.915 2031.379 1263.615 2031.379 1263.615 C 2031.379 1263.615 2093.309 1288.315 2099.219 1290.375 C 2105.129 1292.445 2193.479 1297.635 2193.479 1297.635 L 2220.149 1356.245 C 2220.149 1356.245 2102.399 1329.395 2087.529 1323.875 C 2062.949 1314.755 2023.529 1279.025 2023.529 1279.025 C 2023.529 1279.025 2023.569 1274.325 2026.509 1269.745 Z " fill="rgb(119,164,229)"/><path d=" M 2017.239 1267.135 C 2017.169 1267.065 2019.519 1263.955 2016.509 1260.385 C 2014.289 1257.755 2013.789 1262.755 2009.999 1261.505 C 2006.859 1260.465 1998.399 1259.205 2003.869 1263.615 C 2008.899 1267.675 2013.869 1273.125 2015.729 1274.395 C 2017.589 1275.665 2017.239 1267.135 2017.239 1267.135 Z " fill="rgb(255,178,125)"/><path d=" M 2180.359 1817.755 C 2180.359 1817.755 2179.019 1839.495 2174.979 1844.605 L 2112.859 1844.605 C 2113.249 1842.435 2115.009 1837.085 2122.779 1835.725 C 2132.589 1834.025 2149.019 1827.125 2154.959 1814.155 C 2161.219 1800.505 2180.359 1817.755 2180.359 1817.755 Z " fill="rgb(22,53,96)"/><path d=" M 2290.599 1814.725 C 2290.599 1814.725 2294.699 1841.785 2289.379 1842.275 C 2288.669 1842.335 2263.789 1842.295 2257.019 1843.305 C 2245.979 1844.955 2227.549 1843.515 2227.549 1843.515 C 2225.239 1843.615 2223.729 1841.115 2224.899 1839.125 C 2226.189 1836.945 2228.649 1834.615 2233.339 1833.715 C 2243.129 1831.825 2259.429 1824.645 2265.139 1811.565 C 2271.159 1797.815 2290.599 1814.725 2290.599 1814.725 Z " fill="rgb(22,53,96)"/><path d=" M 2290.599 1814.725 C 2290.599 1814.725 2284.849 1816.915 2275.719 1817.685 C 2269.589 1818.205 2264.759 1817.435 2262.079 1816.825 C 2260.589 1816.465 2259.759 1816.165 2259.759 1816.165 C 2259.759 1816.165 2258.709 1802.965 2250.199 1775.115 C 2249.559 1773.005 2248.879 1770.815 2248.139 1768.535 C 2247.179 1765.545 2246.149 1762.425 2245.019 1759.155 C 2244.289 1757.015 2243.529 1754.815 2242.719 1752.555 C 2235.649 1732.665 2225.639 1707.905 2211.539 1678.015 C 2206.879 1668.115 2202.519 1658.665 2198.469 1649.665 C 2163.679 1572.295 2151.149 1528.435 2151.149 1528.435 L 2152.669 1527.535 L 2214.389 1490.785 L 2224.759 1484.615 L 2224.769 1484.615 L 2241.099 1474.885 C 2241.099 1474.885 2241.329 1481.865 2241.949 1493.185 C 2241.949 1493.345 2241.959 1493.505 2241.969 1493.675 C 2244.029 1531.665 2250.359 1617.155 2266.549 1653.855 C 2276.409 1676.165 2282.299 1712.635 2285.779 1745.195 C 2286.019 1747.485 2286.259 1749.775 2286.479 1752.015 C 2286.819 1755.425 2287.129 1758.755 2287.409 1762.015 C 2287.619 1764.315 2287.809 1766.595 2287.979 1768.825 C 2290.089 1795.125 2290.599 1814.725 2290.599 1814.725 Z " fill="rgb(229,134,56)"/><path d=" M 2227.879 1484.715 C 2227.879 1484.715 2226.859 1488.445 2225.189 1494.895 C 2221.499 1509.175 2214.649 1536.785 2208.809 1566.635 C 2203.159 1595.575 2198.439 1626.625 2198.469 1649.665 C 2198.489 1654.565 2198.699 1659.105 2199.169 1663.185 C 2202.009 1687.755 2198.839 1723.925 2194.699 1755.255 C 2194.379 1757.565 2194.069 1759.865 2193.749 1762.135 C 2193.269 1765.575 2192.789 1768.945 2192.289 1772.205 C 2191.939 1774.535 2191.599 1776.815 2191.259 1779.025 C 2187.599 1802.415 2184.229 1819.145 2184.229 1819.145 C 2184.229 1819.145 2182.769 1819.475 2180.199 1819.885 C 2176.529 1820.505 2170.599 1821.295 2163.449 1821.615 C 2159.299 1821.795 2154.749 1820.325 2151.919 1819.195 C 2150.229 1818.525 2149.159 1817.975 2149.159 1817.975 C 2149.159 1817.975 2150.599 1805.255 2149.649 1777.395 C 2149.619 1776.305 2149.569 1775.195 2149.519 1774.065 L 2149.379 1770.585 C 2149.239 1767.515 2149.089 1764.295 2148.879 1760.915 C 2148.759 1758.705 2148.619 1756.435 2148.469 1754.085 C 2147.019 1732.215 2144.329 1704.365 2139.479 1669.965 C 2129.009 1595.695 2126.659 1531.275 2126.169 1500.565 C 2125.979 1488.295 2126.079 1481.415 2126.079 1481.415 L 2129.399 1481.525 L 2133.529 1481.655 L 2200.279 1483.815 L 2224.759 1484.615 L 2224.769 1484.615 L 2227.879 1484.715 Z " fill="rgb(249,151,70)"/><path d=" M 2195.279 1283.365 L 2178.739 1295.615 L 2154.829 1290.575 C 2155.159 1288.395 2156.739 1279.365 2158.179 1271.185 C 2158.269 1270.695 2158.349 1270.215 2158.429 1269.745 C 2159.659 1262.775 2160.729 1256.795 2160.729 1256.795 L 2183.059 1245.665 L 2191.379 1241.525 C 2191.359 1241.665 2190.729 1249.245 2190.649 1250.355 C 2189.089 1270.005 2195.279 1283.365 2195.279 1283.365 Z " fill="rgb(255,178,125)"/><path d=" M 2156.509 1277.185 C 2157.029 1276.955 2189.019 1267.515 2192.499 1268.665 C 2195.979 1269.815 2198.029 1276.535 2198.029 1276.535 L 2148.639 1290.605 C 2148.639 1290.605 2149.819 1279.995 2156.509 1277.185 Z " fill="rgb(119,164,229)"/><path d=" M 2242.659 1491.855 C 2237.249 1516.595 2124.169 1438.975 2125.679 1423.875 C 2125.849 1422.215 2126.009 1420.545 2126.179 1418.885 C 2128.259 1397.865 2130.269 1377.295 2130.399 1363.875 C 2130.509 1352.225 2132.119 1340.325 2134.259 1329.505 C 2136.219 1319.515 2138.639 1310.455 2140.739 1303.395 C 2142.209 1298.425 2144.979 1294.045 2148.639 1290.605 C 2151.229 1288.165 2154.289 1286.205 2157.659 1284.865 C 2158.569 1284.475 2159.509 1284.155 2160.459 1283.885 C 2174.079 1279.935 2192.919 1275.045 2198.029 1276.535 C 2211.869 1280.605 2222.149 1304.965 2229.429 1336.015 C 2243.049 1394.135 2246.199 1475.745 2242.659 1491.855 Z " fill="rgb(173,200,254)"/><path d=" M 2188.969 1250.705 C 2184.069 1260.085 2165.799 1268.195 2158.179 1271.185 C 2158.269 1270.695 2158.349 1270.215 2158.429 1269.745 C 2159.659 1262.775 2160.729 1256.795 2160.729 1256.795 L 2183.059 1245.665 C 2187.989 1245.595 2190.989 1246.845 2188.969 1250.705 Z " fill="rgb(252,165,107)"/><path d=" M 2149.879 1255.495 C 2149.879 1255.495 2190.159 1268.055 2197.599 1242.855 C 2205.039 1217.645 2215.249 1202.295 2189.839 1193.205 C 2164.439 1184.115 2156.579 1192.255 2152.049 1200.065 C 2147.519 1207.865 2139.589 1251.575 2149.879 1255.495 Z " fill="rgb(255,178,125)"/><path d=" M 2153.629 1197.635 C 2153.629 1197.635 2156.199 1226.965 2162.269 1225.685 C 2168.329 1224.415 2173.829 1223.475 2172.949 1232.315 C 2172.059 1241.155 2163.649 1251.365 2182.339 1252.925 C 2201.029 1254.495 2227.909 1206.285 2222.769 1197.155 C 2207.959 1170.815 2132.219 1165.505 2153.629 1197.635 Z " fill="rgb(206,103,25)"/><path d=" M 2129.089 1481.415 C 2140.289 1485.455 2128.899 1470.285 2129.089 1467.125 C 2129.959 1453.215 2124.509 1435.625 2126.179 1418.885 L 2194.569 1378.005 C 2194.569 1378.005 2210.789 1480.765 2129.089 1481.415 Z " fill="rgb(119,164,229)"/><path d=" M 2242.659 1491.855 C 2213.459 1545.965 2208.809 1566.635 2208.809 1566.635 C 2183.399 1563.735 2139.859 1513.775 2126.049 1500.445 C 2126.049 1500.445 2124.169 1438.975 2125.679 1423.875 L 2146.789 1423.265 C 2146.789 1423.265 2184.939 1432.935 2194.829 1419.815 C 2204.719 1406.695 2200.429 1342.285 2200.429 1342.285 L 2229.429 1336.015 C 2243.049 1394.135 2250.499 1477.335 2242.659 1491.855 Z " fill="rgb(249,151,70)"/><path d=" M 2069.429 1388.175 C 2069.429 1388.175 2055.529 1378.775 2052.889 1377.955 C 2050.259 1377.135 2041.609 1376.245 2041.209 1376.925 C 2040.809 1377.605 2039.629 1379.685 2041.139 1380.395 C 2042.649 1381.105 2044.529 1380.855 2043.959 1381.345 C 2043.399 1381.845 2037.719 1379.135 2036.409 1382.035 C 2035.099 1384.935 2033.939 1394.855 2040.609 1397.865 C 2047.269 1400.875 2063.729 1398.155 2064.919 1398.505 C 2074.979 1401.425 2069.429 1388.175 2069.429 1388.175 Z " fill="rgb(255,178,125)"/><path d=" M 2069.299 1385.625 C 2069.299 1385.625 2137.129 1397.165 2143.139 1394.235 C 2152.729 1389.565 2139.409 1320.745 2139.409 1320.745 C 2139.409 1320.745 2138.839 1305.145 2157.059 1301.465 C 2172.889 1298.275 2188.169 1310.135 2188.169 1310.135 C 2188.169 1310.135 2202.059 1322.565 2200.279 1336.345 C 2196.349 1366.905 2190.229 1429.065 2169.789 1438.595 C 2143.419 1450.885 2067.129 1404.515 2067.129 1404.515 C 2067.129 1404.515 2064.589 1401.405 2064.959 1395.625 C 2065.269 1390.535 2069.299 1385.625 2069.299 1385.625 Z " fill="rgb(173,200,254)"/><path d=" M 2206.059 1341.065 L 2200.429 1342.285 C 2200.429 1342.285 2188.559 1290.855 2148.639 1290.605 C 2151.229 1288.165 2154.289 1286.205 2157.659 1284.865 C 2172.279 1288.785 2197.689 1301.285 2206.059 1341.065 Z " fill="rgb(249,151,70)"/><path d=" M 2194.699 1755.255 C 2194.379 1757.565 2194.069 1759.865 2193.749 1762.135 C 2180.059 1764.065 2166.709 1763.265 2156.779 1762.065 C 2153.809 1761.695 2151.149 1761.285 2148.879 1760.915 C 2148.759 1758.705 2148.619 1756.435 2148.469 1754.085 C 2157.999 1755.745 2176.299 1758.225 2194.699 1755.255 Z " fill="rgb(255,255,255)"/><path d=" M 2149.379 1770.585 L 2149.519 1774.065 L 2149.649 1777.395 C 2151.939 1777.765 2154.589 1778.165 2157.589 1778.535 C 2166.709 1779.645 2178.749 1780.425 2191.259 1779.025 C 2191.599 1776.815 2191.939 1774.535 2192.289 1772.205 C 2175.079 1774.415 2158.379 1772.145 2149.379 1770.585 Z " fill="rgb(255,255,255)"/><path d=" M 2245.019 1759.155 L 2245.019 1759.155 C 2244.289 1757.015 2243.529 1754.815 2242.719 1752.555 C 2252.439 1752.265 2269.439 1751.025 2285.779 1745.195 C 2286.019 1747.485 2286.259 1749.775 2286.479 1752.015 C 2273.719 1756.335 2260.829 1758.075 2251.069 1758.805 C 2248.889 1758.975 2246.859 1759.065 2245.019 1759.155 Z " fill="rgb(242,195,156)"/><path d=" M 2250.199 1775.115 L 2250.199 1775.115 C 2249.559 1773.005 2248.879 1770.815 2248.139 1768.535 C 2257.539 1768.165 2272.589 1766.905 2287.409 1762.015 C 2287.619 1764.315 2287.809 1766.595 2287.979 1768.825 C 2276.049 1772.565 2264.179 1774.135 2255.069 1774.805 C 2253.339 1774.945 2251.709 1775.035 2250.199 1775.115 Z " fill="rgb(242,195,156)"/><path d=" M 628.986 1515.625 C 628.986 1515.625 634.29 1507.555 638.018 1505.325 C 641.746 1503.095 650.658 1504.945 650.912 1505.685 C 651.699 1507.945 642.967 1510.145 641.751 1511.965 C 640.536 1513.785 644.535 1514.115 641.033 1517.095 C 638.075 1519.615 631.545 1521.515 631.545 1521.515 L 628.986 1515.625 Z " fill="rgb(255,178,125)"/><path d=" M 632.707 1515.125 C 630.976 1511.435 630.347 1511.165 630.347 1511.165 C 630.347 1511.165 592.301 1520.765 588.693 1521.515 C 585.085 1522.255 533.139 1518.415 533.139 1518.415 L 513.029 1550.535 C 513.029 1550.535 583.803 1544.025 592.908 1541.955 C 607.953 1538.545 633.726 1520.765 633.726 1520.765 C 633.726 1520.765 634.067 1518.025 632.707 1515.125 Z " fill="rgb(119,164,229)"/><path d=" M 638.316 1514.325 C 638.365 1514.285 640.437 1512.375 642.475 1510.525 C 643.975 1509.155 645.042 1507.275 645.686 1506.755 C 647.206 1505.535 647.919 1508.845 645.414 1512.575 C 643.293 1515.725 639.819 1518.075 638.636 1518.675 C 637.454 1519.265 638.316 1514.325 638.316 1514.325 Z " fill="rgb(255,178,125)"/><path d=" M 737.391 1837.975 L 762.523 1837.655 L 821.218 1593.085 L 796.086 1593.395 L 737.391 1837.975 Z " fill="rgb(140,180,244)"/><path d=" M 695.872 1843.415 L 808.575 1843.415 C 808.575 1836.825 803.229 1831.475 796.635 1831.475 L 707.811 1831.475 C 701.217 1831.475 695.872 1836.825 695.872 1843.415 Z " fill="rgb(140,180,244)"/><path d=" M 956.219 1730.175 L 945.393 1675.905 L 945.371 1675.785 L 909.347 1495.185 L 559.201 1495.235 L 606.073 1730.225 L 672.581 1730.215 L 673.207 1730.215 L 747.639 1730.205 L 747.867 1730.205 L 821.973 1730.195 L 822.481 1730.195 L 896.426 1730.185 L 897.096 1730.185 L 956.219 1730.175 Z " fill="rgb(29,63,119)"/><path d=" M 962.216 1725.525 L 612.07 1725.575 L 565.198 1495.235 L 915.344 1495.185 L 962.216 1725.525 Z " fill="rgb(42,78,150)"/><path d=" M 679.249 1725.565 L 678.579 1725.565 L 631.833 1495.845 L 632.503 1495.845 L 679.249 1725.565 Z " fill="rgb(192,216,251)"/><path d=" M 753.864 1725.555 L 753.194 1725.555 L 706.448 1495.835 L 707.118 1495.835 L 753.864 1725.555 Z " fill="rgb(192,216,251)"/><path d=" M 828.478 1725.545 L 827.809 1725.545 L 781.062 1495.825 L 781.733 1495.825 L 828.478 1725.545 Z " fill="rgb(192,216,251)"/><path d=" M 903.093 1725.535 L 902.423 1725.535 L 855.678 1495.815 L 856.348 1495.815 L 903.093 1725.535 Z " fill="rgb(192,216,251)"/><path d=" M 926.467 1549.845 L 576.322 1549.895 L 576.194 1549.265 L 926.339 1549.225 L 926.467 1549.845 Z " fill="rgb(192,216,251)"/><path d=" M 938.929 1611.095 L 588.784 1611.145 L 588.656 1610.515 L 938.801 1610.465 L 938.929 1611.095 Z " fill="rgb(192,216,251)"/><path d=" M 951.391 1672.335 L 601.245 1672.385 L 601.117 1671.755 L 951.263 1671.705 L 951.391 1672.335 Z " fill="rgb(192,216,251)"/><path d=" M 644.479 1556.345 L 635.893 1549.575 L 641.724 1542.805 L 650.309 1549.575 L 644.479 1556.345 Z " fill="rgb(192,216,251)"/><path d=" M 657.005 1617.905 L 648.419 1611.135 L 654.249 1604.355 L 662.835 1611.125 L 657.005 1617.905 Z " fill="rgb(192,216,251)"/><path d=" M 719.429 1556.335 L 710.843 1549.565 L 716.674 1542.795 L 725.26 1549.565 L 719.429 1556.335 Z " fill="rgb(192,216,251)"/><path d=" M 731.955 1617.895 L 723.369 1611.125 L 729.199 1604.345 L 737.785 1611.115 L 731.955 1617.895 Z " fill="rgb(192,216,251)"/><path d=" M 794.044 1556.325 L 785.458 1549.555 L 791.288 1542.785 L 799.874 1549.555 L 794.044 1556.325 Z " fill="rgb(192,216,251)"/><path d=" M 867.989 1556.315 L 859.403 1549.545 L 865.233 1542.775 L 873.819 1549.545 L 867.989 1556.315 Z " fill="rgb(192,216,251)"/><path d=" M 669.403 1678.825 L 660.817 1672.055 L 666.647 1665.285 L 675.233 1672.055 L 669.403 1678.825 Z " fill="rgb(192,216,251)"/><path d=" M 744.352 1678.815 L 735.767 1672.045 L 741.597 1665.275 L 750.183 1672.045 L 744.352 1678.815 Z " fill="rgb(192,216,251)"/><path d=" M 818.967 1678.805 L 810.381 1672.035 L 816.211 1665.265 L 824.797 1672.035 L 818.967 1678.805 Z " fill="rgb(192,216,251)"/><path d=" M 892.912 1678.795 L 884.327 1672.025 L 890.157 1665.255 L 898.743 1672.025 L 892.912 1678.795 Z " fill="rgb(192,216,251)"/><path d=" M 880.515 1617.865 L 871.929 1611.105 L 877.759 1604.325 L 886.345 1611.095 L 880.515 1617.865 Z " fill="rgb(192,216,251)"/><path d=" M 806.57 1617.885 L 797.984 1611.105 L 803.814 1604.335 L 812.4 1611.105 L 806.57 1617.885 Z " fill="rgb(192,216,251)"/><path d=" M 611.403 1584.285 L 615.541 1585.325 L 621.049 1563.385 L 616.911 1562.355 L 611.403 1584.285 Z " fill="rgb(173,200,254)"/><path d=" M 617.532 1555.235 L 617.53 1555.255 C 617.324 1556.945 617.813 1558.765 619.412 1559.365 C 621.55 1560.165 622.997 1558.775 623.537 1556.625 L 623.677 1556.065 C 623.86 1555.315 625.602 1555.925 625.855 1556.655 C 626.308 1557.975 626.323 1559.455 625.769 1560.895 C 624.758 1563.525 622.017 1565.135 619.228 1564.755 C 615.529 1564.255 613.187 1560.675 614.071 1557.165 C 614.318 1556.175 614.788 1555.305 615.415 1554.595 C 616.022 1553.905 617.657 1554.325 617.532 1555.235 Z " fill="rgb(173,200,254)"/><path d=" M 615.433 1592.895 L 615.435 1592.875 C 615.641 1591.175 615.151 1589.355 613.553 1588.755 C 611.415 1587.955 609.968 1589.345 609.428 1591.495 L 609.288 1592.055 C 609.105 1592.815 607.362 1592.195 607.11 1591.465 C 606.657 1590.145 606.642 1588.665 607.196 1587.225 C 608.207 1584.595 610.948 1582.985 613.737 1583.365 C 617.436 1583.865 619.777 1587.445 618.894 1590.965 C 618.647 1591.945 618.176 1592.815 617.549 1593.525 C 616.942 1594.215 615.308 1593.805 615.433 1592.895 Z " fill="rgb(173,200,254)"/><path d=" M 538.364 1828.805 C 538.364 1828.805 539.157 1841.595 541.533 1844.605 L 578.09 1844.605 C 577.859 1843.325 576.824 1840.185 572.253 1839.385 C 566.476 1838.375 556.808 1834.315 553.312 1826.685 C 549.63 1818.655 538.364 1828.805 538.364 1828.805 Z " fill="rgb(22,53,96)"/><path d=" M 473.491 1827.015 C 473.491 1827.015 471.08 1842.945 474.21 1843.235 C 474.626 1843.275 489.269 1843.245 493.25 1843.845 C 499.751 1844.815 510.596 1843.965 510.596 1843.965 C 511.954 1844.025 512.844 1842.555 512.152 1841.385 C 511.393 1840.095 509.946 1838.725 507.186 1838.195 C 501.429 1837.085 491.835 1832.855 488.472 1825.165 C 484.933 1817.065 473.491 1827.015 473.491 1827.015 Z " fill="rgb(22,53,96)"/><path d=" M 555.558 1658.545 C 555.558 1658.545 546.358 1690.715 520.02 1746.555 C 511.494 1764.645 505.502 1779.555 501.321 1791.425 C 500.822 1792.805 500.36 1794.145 499.923 1795.445 C 499.224 1797.505 498.588 1799.465 498 1801.325 C 497.563 1802.695 497.164 1804.015 496.777 1805.295 C 492.221 1820.595 491.634 1827.875 491.634 1827.875 C 491.634 1827.875 486.928 1829.615 482.085 1829.185 C 477.504 1828.755 473.485 1827.025 473.485 1827.025 C 473.485 1827.025 473.746 1816.655 474.845 1802.345 C 474.946 1801.045 475.045 1799.725 475.157 1798.365 C 475.307 1796.515 475.482 1794.615 475.657 1792.675 C 475.781 1791.355 475.919 1790.025 476.044 1788.685 C 478.066 1768.895 481.573 1746.085 487.64 1732.355 C 500.085 1704.165 502.619 1627.025 502.619 1627.025 L 555.558 1658.545 Z " fill="rgb(229,134,56)"/><path d=" M 562.423 1741.825 C 559.253 1764.385 557.642 1782.145 556.881 1795.595 C 556.794 1796.985 556.731 1798.335 556.669 1799.645 C 556.569 1801.745 556.494 1803.715 556.419 1805.565 C 556.382 1806.965 556.344 1808.295 556.319 1809.555 C 556.045 1822.825 556.731 1828.935 556.731 1828.935 C 556.731 1828.935 552.312 1830.605 546.945 1830.605 C 540.367 1830.605 536.085 1829.615 536.085 1829.615 C 536.085 1829.615 534.487 1821.685 532.602 1810.095 L 532.602 1810.085 C 532.39 1808.785 532.178 1807.445 531.966 1806.075 C 531.679 1804.225 531.392 1802.315 531.104 1800.355 C 530.905 1799.045 530.718 1797.715 530.518 1796.355 C 527.809 1777.015 525.487 1753.465 527.297 1737.845 C 530.83 1707.235 510.408 1632.815 510.408 1632.815 L 570.312 1630.875 C 570.312 1630.875 571.037 1680.675 562.423 1741.825 Z " fill="rgb(249,151,70)"/><path d=" M 529.586 1514.325 L 539.32 1521.525 L 553.389 1518.565 C 553.194 1517.285 552.265 1511.965 551.419 1507.155 C 551.368 1506.865 551.317 1506.585 551.269 1506.305 C 550.545 1502.205 549.919 1498.685 549.919 1498.685 L 536.78 1492.135 L 531.881 1489.695 C 531.893 1489.785 532.261 1494.245 532.311 1494.895 C 533.231 1506.465 529.586 1514.325 529.586 1514.325 Z " fill="rgb(255,178,125)"/><path d=" M 552.404 1510.685 C 552.096 1510.555 533.267 1504.995 531.221 1505.675 C 529.176 1506.345 527.965 1510.305 527.965 1510.305 L 557.035 1518.585 C 557.035 1518.585 556.338 1512.335 552.404 1510.685 Z " fill="rgb(119,164,229)"/><path d=" M 501.703 1637.015 C 504.89 1651.575 571.43 1605.895 570.544 1597.015 C 570.447 1596.035 570.349 1595.055 570.251 1594.075 C 569.024 1581.705 567.846 1569.605 567.764 1561.695 C 567.699 1554.845 566.756 1547.845 565.497 1541.475 C 564.342 1535.595 562.919 1530.265 561.684 1526.115 C 560.814 1523.185 559.188 1520.605 557.035 1518.585 C 555.506 1517.145 553.71 1515.995 551.726 1515.205 C 551.19 1514.975 550.637 1514.785 550.077 1514.625 C 542.061 1512.305 530.974 1509.425 527.967 1510.305 C 519.822 1512.695 513.774 1527.035 509.49 1545.305 C 501.476 1579.505 499.622 1627.535 501.703 1637.015 Z " fill="rgb(173,200,254)"/><path d=" M 533.298 1495.105 C 536.183 1500.625 546.935 1505.395 551.419 1507.155 C 551.368 1506.865 551.317 1506.585 551.269 1506.305 C 550.545 1502.205 549.919 1498.685 549.919 1498.685 L 536.78 1492.135 C 533.875 1492.095 532.107 1492.825 533.298 1495.105 Z " fill="rgb(252,165,107)"/><path d=" M 556.305 1497.915 C 556.305 1497.915 532.599 1505.315 528.222 1490.485 C 523.844 1475.645 517.835 1466.615 532.786 1461.265 C 547.736 1455.915 552.36 1460.705 555.026 1465.295 C 557.691 1469.895 562.358 1495.615 556.305 1497.915 Z " fill="rgb(255,178,125)"/><path d=" M 554.095 1463.865 C 554.095 1463.865 552.583 1481.135 549.014 1480.385 C 545.444 1479.635 542.95 1479.055 542.729 1484.275 C 542.499 1489.695 543.694 1495.935 532.693 1496.855 C 521.692 1497.775 510.384 1468.965 513.406 1463.585 C 522.126 1448.085 566.699 1444.965 554.095 1463.865 Z " fill="rgb(22,53,96)"/><path d=" M 568.537 1630.875 C 561.946 1633.255 568.65 1624.325 568.537 1622.465 C 568.024 1614.275 571.235 1603.925 570.251 1594.075 L 530.004 1570.015 C 530.004 1570.015 520.455 1630.485 568.537 1630.875 Z " fill="rgb(119,164,229)"/><path d=" M 501.703 1637.015 C 518.884 1668.865 521.621 1681.025 521.621 1681.025 C 536.574 1679.315 562.198 1649.915 570.326 1642.075 C 570.326 1642.075 571.43 1605.895 570.544 1597.015 L 558.123 1596.655 C 558.123 1596.655 535.672 1602.345 529.852 1594.625 C 524.032 1586.895 526.552 1548.995 526.552 1548.995 L 509.49 1545.305 C 501.476 1579.505 497.091 1628.475 501.703 1637.015 Z " fill="rgb(249,151,70)"/><path d=" M 603.649 1575.995 C 603.649 1575.995 611.828 1570.465 613.379 1569.985 C 614.931 1569.505 620.017 1568.985 620.252 1569.385 C 620.489 1569.785 621.185 1571.005 620.296 1571.425 C 619.408 1571.835 618.302 1571.695 618.634 1571.985 C 618.965 1572.275 622.309 1570.685 623.08 1572.385 C 623.851 1574.095 624.53 1579.935 620.607 1581.705 C 616.684 1583.475 607.001 1581.875 606.303 1582.075 C 600.381 1583.795 603.649 1575.995 603.649 1575.995 Z " fill="rgb(255,178,125)"/><path d=" M 603.725 1574.505 C 603.725 1574.505 563.808 1581.285 560.271 1579.565 C 554.625 1576.815 562.462 1536.315 562.462 1536.315 C 562.462 1536.315 562.798 1527.145 552.077 1524.975 C 542.761 1523.095 533.772 1530.075 533.772 1530.075 C 533.772 1530.075 525.597 1537.385 526.641 1545.505 C 528.956 1563.485 532.558 1600.065 544.587 1605.675 C 560.102 1612.905 604.997 1585.615 604.997 1585.615 C 604.997 1585.615 606.492 1583.785 606.28 1580.385 C 606.092 1577.395 603.725 1574.505 603.725 1574.505 Z " fill="rgb(173,200,254)"/><path d=" M 523.244 1548.275 L 526.552 1548.995 C 526.552 1548.995 533.543 1518.735 557.035 1518.585 C 555.506 1517.145 553.71 1515.995 551.726 1515.205 C 543.118 1517.515 528.17 1524.865 523.244 1548.275 Z " fill="rgb(249,151,70)"/><path d=" M 556.881 1795.595 C 556.794 1796.985 556.731 1798.335 556.669 1799.645 C 548.605 1801.135 540.666 1801.075 534.725 1800.675 C 533.413 1800.585 532.203 1800.475 531.104 1800.355 C 530.905 1799.045 530.718 1797.715 530.518 1796.355 C 536.447 1796.985 546.683 1797.655 556.881 1795.595 Z " fill="rgb(255,255,255)"/><path d=" M 556.419 1805.565 C 556.382 1806.965 556.344 1808.295 556.319 1809.555 C 548.755 1810.805 541.365 1810.735 535.761 1810.345 C 534.624 1810.275 533.576 1810.185 532.602 1810.095 L 532.602 1810.085 C 532.39 1808.785 532.178 1807.445 531.966 1806.075 C 537.645 1806.665 546.957 1807.225 556.419 1805.565 Z " fill="rgb(255,255,255)"/><path d=" M 497.64 1795.475 C 490.747 1795.475 484.284 1794.505 479.289 1793.485 C 477.965 1793.205 476.755 1792.935 475.657 1792.675 C 475.781 1791.355 475.919 1790.025 476.044 1788.685 C 481.065 1789.915 489.071 1791.515 497.703 1791.515 C 498.899 1791.515 500.107 1791.485 501.321 1791.425 C 500.822 1792.805 500.36 1794.145 499.923 1795.445 L 499.923 1795.445 C 499.158 1795.465 498.396 1795.475 497.64 1795.475 Z " fill="rgb(242,195,156)"/><path d=" M 496.777 1805.295 C 490.112 1805.225 483.858 1804.295 479.015 1803.295 C 477.467 1802.965 476.068 1802.645 474.845 1802.345 C 474.946 1801.045 475.045 1799.725 475.157 1798.365 C 480.116 1799.595 488.391 1801.325 497.339 1801.325 C 497.559 1801.325 497.779 1801.325 498 1801.325 C 497.563 1802.695 497.164 1804.015 496.777 1805.295 L 496.777 1805.295 Z " fill="rgb(242,195,156)"/><path d=" M 2522.049 976.709 C 2489.289 971.829 2452.909 949.548 2413.939 910.485 C 2382.809 879.283 2349.949 837.352 2316.269 785.857 C 2260.859 701.142 2221.289 617.82 2218.339 611.555 C 2178.419 612.553 2127.589 599.318 2067.339 572.196 C 2019.009 550.443 1964.509 519.758 1905.359 480.994 C 1804.669 415.003 1724.319 347.552 1723.519 346.878 L 1724.319 345.923 C 1725.119 346.597 1805.419 414.007 1906.059 479.958 C 1965.149 518.684 2019.589 549.335 2067.849 571.061 C 2128.139 598.195 2178.909 611.401 2218.709 610.296 L 2219.119 610.285 L 2219.299 610.656 C 2219.699 611.516 2260.029 697.606 2317.319 785.186 C 2350.949 836.606 2383.759 878.468 2414.829 909.608 C 2453.609 948.474 2489.739 970.635 2522.239 975.475 L 2522.049 976.709 Z " fill="rgb(173,200,254)"/><path d=" M 2323.689 962.334 C 2280.909 955.76 2234.629 932.543 2186.129 893.327 C 2147.369 861.982 2107.109 820.399 2066.459 769.733 C 1999.309 686.023 1953.119 604.602 1950.029 599.119 C 1868.769 591.42 1789.199 572.597 1713.529 543.172 C 1652.909 519.601 1594.629 489.211 1540.329 452.848 C 1466.329 403.303 1414.749 351.98 1397.819 331.764 L 1398.769 330.962 C 1415.679 351.14 1467.169 402.37 1541.059 451.837 C 1595.289 488.144 1653.479 518.485 1714.009 542.02 C 1789.669 571.437 1869.229 590.239 1950.469 597.907 L 1950.799 597.938 L 1950.959 598.225 C 1951.429 599.061 1998.319 682.799 2067.449 768.966 C 2108.029 819.559 2148.229 861.075 2186.929 892.362 C 2235.239 931.434 2281.319 954.561 2323.879 961.101 L 2323.689 962.334 Z " fill="rgb(173,200,254)"/><path d=" M 2148.529 976.716 C 2091.219 974.866 2031.069 953.836 1969.729 914.208 C 1920.699 882.527 1870.799 838.953 1821.419 784.696 C 1739.769 694.974 1686.369 605.054 1682.889 599.143 C 1627.949 597.642 1561.779 582.688 1486.229 554.694 C 1425.679 532.261 1358.999 501.45 1288.039 463.117 C 1167.219 397.855 1074.639 332.524 1073.709 331.872 L 1074.439 330.853 C 1075.359 331.505 1167.889 396.799 1288.639 462.025 C 1359.549 500.329 1426.179 531.115 1486.669 553.526 C 1562.249 581.529 1628.399 596.46 1683.269 597.904 L 1683.619 597.914 L 1683.799 598.215 C 1684.329 599.138 1738.389 691.61 1822.359 783.873 C 1871.659 838.046 1921.479 881.546 1970.419 913.166 C 2031.559 952.665 2091.499 973.626 2148.569 975.468 L 2148.529 976.716 Z " fill="rgb(173,200,254)"/><path d=" M 2829.449 1846.735 L 224.011 1846.735 C 222.441 1846.735 221.156 1845.445 221.156 1843.875 L 221.156 1843.135 C 221.156 1841.565 222.441 1840.275 224.011 1840.275 L 2829.449 1840.275 C 2831.019 1840.275 2832.309 1841.565 2832.309 1843.135 L 2832.309 1843.875 C 2832.309 1845.445 2831.019 1846.735 2829.449 1846.735 Z " fill="rgb(46,53,82)"/></g></svg>